<?xml version="1.0" encoding="utf-8"?>
<!-- Generator: Adobe Illustrator 27.5.0, SVG Export Plug-In . SVG Version: 6.00 Build 0)  -->
<svg version="1.1" id="Layer_1" xmlns="http://www.w3.org/2000/svg" xmlns:xlink="http://www.w3.org/1999/xlink" x="0px" y="0px"
	 viewBox="0 0 500 400" style="enable-background:new 0 0 500 400;" xml:space="preserve">
<g>
	<g>
		<path style="fill:#FFD880;" d="M429.327,21.287c-35.825,1.989-71.475,7.402-106.193,16.489
			c-31.59,8.268-62.362,19.605-91.691,33.972c-28.048,13.739-54.787,30.201-79.553,49.238
			c-23.905,18.374-45.939,39.146-65.607,61.999c0.317,0.237,0.638,0.46,0.947,0.721c0.549,0.463-0.243,1.246-0.787,0.787
			c-0.284-0.239-0.574-0.465-0.866-0.683c-0.6,0.701-1.205,1.396-1.8,2.101c-0.325,0.384-0.87-0.169-0.551-0.551
			c0.563-0.673,1.134-1.337,1.701-2.007c-4.793-3.267-10.687-4.005-16.449-3.484c-13.494,1.22-25.904,9.601-39.775,6.947
			c-11.635-2.226-20.784-10.928-27.916-19.874c-0.266-0.333-0.521-0.677-0.785-1.012v233.962h500V21.724
			C476.479,20.154,452.865,19.98,429.327,21.287z"/>
		<path style="fill:#FFCD50;" d="M0,0v165.929c0.264,0.335,0.519,0.679,0.785,1.012c7.132,8.946,16.282,17.648,27.916,19.874
			c13.871,2.654,26.281-5.727,39.775-6.947c5.762-0.521,11.656,0.217,16.449,3.484c-0.566,0.669-1.138,1.334-1.701,2.007
			c-0.319,0.382,0.226,0.935,0.551,0.551c0.595-0.704,1.201-1.4,1.8-2.101c0.293,0.219,0.583,0.444,0.866,0.683
			c0.544,0.459,1.336-0.324,0.787-0.787c-0.308-0.26-0.63-0.484-0.947-0.721c19.668-22.853,41.702-43.625,65.607-61.999
			c24.766-19.036,51.506-35.498,79.553-49.238c29.328-14.367,60.101-25.703,91.691-33.972
			c34.719-9.087,70.368-14.501,106.193-16.489c23.538-1.306,47.152-1.133,70.673,0.438V0H0z"/>
	</g>
	<rect y="49.398" style="fill:#64231D;" width="110.089" height="273.315"/>
	<rect y="46.233" style="fill:#FFFFFF;" width="112.185" height="6.331"/>
	<rect x="103.25" y="47.621" style="fill:#FFFFFF;" width="8.935" height="272.725"/>
	<rect x="110.74" y="46.233" style="fill:#EAAD3F;" width="3.125" height="274.114"/>
	<rect y="322.593" style="fill:#F47E31;" width="500" height="77.407"/>
	<path style="opacity:0.5;fill:#FF965C;" d="M409.452,330.247c-119.619,0-216.589,19.505-216.589,43.566
		c0,9.265,14.388,17.852,38.899,24.912H500v-64.496C472.447,331.675,441.781,330.247,409.452,330.247z"/>
	<rect x="108.937" y="315.623" style="fill:#DD601B;" width="391.063" height="6.97"/>
	<g>
		<path style="fill:#525C9E;" d="M309.73,126.144c-2.89-1.691-6.113-2.355-9.394-2.308c-0.542-2.949-1.986-5.833-4.649-8.496
			c-6.261-6.261-15.756-6.516-24.104-4.632c-0.931-10.044-9.34-17.559-19.589-17.605c-4.089-0.019-8.056,0.655-11.878,1.854
			c-2.713-7.451-9.866-13.337-18.287-9.8c-18.51,7.774-35.137,19.023-47.908,34.704c-11.441,14.048-30.624,41.471-15.974,59.101
			c6.542,7.872,15.291,8.564,24.156,5.699c-2.481,12.08-0.566,23.808,11.626,30.276c7.158,3.798,14.063,3.737,20.476,1.341
			c0.999,5.956,3.509,11.367,8.159,15.589c17.115,15.542,34.9-5.001,46.413-22.265c7.96,6.846,22.717,6.074,26.645-7.143
			c4.909-16.513,11.958-30.856,20.225-45.868C321.46,146.032,321.247,132.883,309.73,126.144z M203.621,185.498
			c-0.287,0.164-0.574,0.327-0.86,0.491c0.708-0.987,1.512-1.507,2.41-1.582C204.095,185.285,203.139,186.032,203.621,185.498z"/>
	</g>
</g>
<g>
	<path style="fill:#DD601B;" d="M234.594,330.189h-82.942c-2.698,0-4.906,2.207-4.906,4.906c0,2.698,2.207,4.906,4.906,4.906h82.942
		c2.698,0,4.906-2.207,4.906-4.906C239.5,332.397,237.292,330.189,234.594,330.189z"/>
	<path style="fill:#DD601B;" d="M416.385,371.694H391.28h-57.836h-25.105c-2.698,0-4.906,2.208-4.906,4.906
		c0,2.698,2.208,4.906,4.906,4.906h25.105h57.836h25.105c2.698,0,4.906-2.208,4.906-4.906
		C421.291,373.901,419.084,371.694,416.385,371.694z"/>
	<path style="fill:#DD601B;" d="M183.373,371.694h-25.105h-15.718h-25.106h-17.013H75.325H59.607H34.502
		c-2.698,0-4.906,2.208-4.906,4.906c0,2.698,2.208,4.906,4.906,4.906h25.106h15.718h25.106h17.013h25.106h15.718h25.105
		c2.698,0,4.906-2.208,4.906-4.906C188.278,373.901,186.071,371.694,183.373,371.694z"/>
	<path style="fill:#DD601B;" d="M162.961,346.5h-25.106h-15.718H97.032H80.019H54.914H39.196H14.09
		c-2.698,0-4.906,2.207-4.906,4.906c0,2.698,2.208,4.906,4.906,4.906h25.106h15.718h25.105h17.013h25.106h15.718h25.106
		c2.698,0,4.906-2.207,4.906-4.906C167.867,348.707,165.659,346.5,162.961,346.5z"/>
	<path style="fill:#DD601B;" d="M164.024,325.896h-25.106H123.2H98.095H81.081H55.976H40.258H15.153
		c-2.698,0-4.906,2.208-4.906,4.906c0,2.698,2.208,4.906,4.906,4.906h25.105h15.718h25.105h17.013H123.2h15.718h25.106
		c2.698,0,4.906-2.208,4.906-4.906C168.929,328.104,166.722,325.896,164.024,325.896z"/>
	<path style="fill:#DD601B;" d="M327.32,330.189H291.5h-1.669h-33.285c-2.698,0-4.906,2.207-4.906,4.906
		c0,2.698,2.207,4.906,4.906,4.906h33.285h1.669h35.82c2.698,0,4.906-2.207,4.906-4.906
		C332.226,332.397,330.018,330.189,327.32,330.189z"/>
	<path style="fill:#DD601B;" d="M415.178,338.039h-9.581h-17.54h-8.446c-2.698,0-4.906,2.208-4.906,4.906
		c0,2.698,2.208,4.906,4.906,4.906h8.446h17.54h9.581c2.698,0,4.906-2.208,4.906-4.906
		C420.084,340.246,417.876,338.039,415.178,338.039z"/>
	<path style="fill:#DD601B;" d="M292.354,370.628h-9.581h-17.54h-8.446c-2.698,0-4.906,2.208-4.906,4.906s2.207,4.906,4.906,4.906
		h8.446h17.54h9.581c2.698,0,4.905-2.208,4.905-4.906S295.052,370.628,292.354,370.628z"/>
	<path style="fill:#DD601B;" d="M460.603,356.996h-9.581h-17.54h-8.446c-2.698,0-4.906,2.208-4.906,4.906
		c0,2.698,2.207,4.906,4.906,4.906h8.446h17.54h9.581c2.698,0,4.906-2.207,4.906-4.906
		C465.509,359.204,463.301,356.996,460.603,356.996z"/>
	<path style="fill:#DD601B;" d="M479.778,330.477h-9.581h-17.54h-8.446c-2.698,0-4.906,2.208-4.906,4.906
		c0,2.698,2.208,4.906,4.906,4.906h8.446h17.54h9.581c2.698,0,4.906-2.208,4.906-4.906
		C484.684,332.685,482.476,330.477,479.778,330.477z"/>
</g>
<g>
	<g>
		<g>
			<path style="fill:#4D374B;" d="M208.917,65.935c-0.154-0.247-0.289-0.466-0.395-0.639c-0.445-0.725-0.975-1.165-1.575-1.308
				c-0.582-0.139-1.194-0.004-1.87,0.412c-0.806,0.496-2.322,1.461-2.338,1.47l0.569,0.894c0.015-0.01,1.525-0.97,2.325-1.462
				c0.425-0.262,0.774-0.354,1.069-0.284c0.317,0.076,0.626,0.356,0.918,0.832c0.106,0.174,0.243,0.394,0.398,0.643
				c0.535,0.863,1.268,2.045,1.706,2.826c0.727,1.297-0.039,2.28-1.995,4.577l-0.061,0.072c-0.565,0.663-1.474,1.64-2.438,2.675
				c-1.543,1.658-3.139,3.372-3.852,4.354c-1.387,1.909-0.644,3.116,0.481,4.943l4.877,7.922l0.902-0.555l-4.877-7.922
				c-1.161-1.886-1.455-2.487-0.526-3.765c0.676-0.93,2.32-2.697,3.771-4.255c0.971-1.044,1.889-2.029,2.468-2.71l0.061-0.072
				c1.944-2.283,3.229-3.79,2.113-5.782C210.197,67.999,209.457,66.806,208.917,65.935z"/>
		</g>
		
			<rect x="181.284" y="69.178" transform="matrix(0.8516 -0.5242 0.5242 0.8516 -8.8138 112.3623)" style="fill:#4D374B;" width="25.473" height="5.137"/>
		<polygon style="fill:#525C9E;" points="202.405,62.283 181.841,74.943 183.756,78.055 185.728,81.257 206.292,68.596 
			204.321,65.395 		"/>
		<g>
			<path style="fill:#F47E31;" d="M204.161,86.088c-0.004-0.004-0.006-0.007-0.006-0.007l-2.411,1.443l-0.013,0.008
				c0,0,4.904,9.877,7.53,13.439c0.445,0.603,1.733,1.339,2.936,0.599c1.143-0.703,0.929-2.233,0.63-2.916
				C211.095,94.689,204.397,86.393,204.161,86.088z M211.234,100.048c-0.332,0.204-0.767,0.101-0.972-0.231
				c-0.204-0.332-0.101-0.767,0.231-0.971c0.332-0.204,0.767-0.101,0.971,0.231C211.669,99.409,211.566,99.844,211.234,100.048z"/>
		</g>
	</g>
	<g>
		<path style="fill:#F79F63;" d="M196.576,143.582h-12.159c0,0,0.462,3.276-0.328,6.973c-0.688,3.221-2.273,6.101-2.273,6.101
			s7.023,3.597,11.074,2.899c4.051-0.698,7.082-3.156,7.082-3.156s-2.706-3.962-3.051-5.845
			C196.576,148.672,196.576,143.582,196.576,143.582z"/>
		<path style="fill:#64231D;" d="M196.868,119.909c0,0,1.813,0,3.104-1.276c-3.104-1.017-6.65-1.497-9.078,0.158
			c-1.907-1.582-5.069-2.091-7.187-0.709c1.576,0.631,2.206,1.261,2.206,1.261s-3.539-0.144-5.595,2.049
			c0.443,0.236,1.498,0.473,1.498,0.473s-3.941,2.995-3.021,10.195c0.552,4.321,2.431,9.011,5.149,12.166
			c1.937,2.247,3.961,2.272,6.95,5.217c2.111-2.591,4.836-2.924,6.638-5.12c2.536-3.09,4.158-7.711,4.538-12.055
			C203.073,120.811,196.868,119.909,196.868,119.909z"/>
		<g>
			<path style="fill:#624A5F;" d="M208.942,207.356c0,0-10.098,0.743-13.437,0.938c-4.665,0.273-21.282-1.05-21.282-1.05
				s-4.278,41.401-4.862,52.912c-0.261,5.134-1.806,18.885-2.989,32.139c3.226,1.103,7.75,1.423,10.5,1.501
				c0.861,0.024,1.721-0.016,2.58-0.066c0.773-3.838,0.986-7.704-0.871-7.913c-2.593-0.292-2.43-3.336-0.566-6.663
				c1.864-3.326,5.671-21.231,7.075-26.533c1.404-5.303,3.34-17.86,1.801-19.256c-1.539-1.395-4.042-5.023-2.749-6.45
				c1.294-1.426,6.259,0.257,10.454,0.691c4.597,0.475,8.623-2.613,9.842-0.691c1.219,1.922-2.614,6.45-4.758,8.699
				c-2.143,2.249,2.144,14.495,3.087,19.175c0.943,4.681,3.521,20.156,6.873,22.945c3.351,2.789,2.23,2.792,0,5.207
				c-2.163,2.342-3.798,2.877-2.112,10.037c0.846,0.039,1.732,0.029,2.72-0.08c3.525-0.389,6.975-1.497,9.883-3.503
				c-1.478-15.504-3.373-33.637-4.912-42.914C212.071,227.507,208.942,207.356,208.942,207.356z"/>
			<path style="fill:#4D374B;" d="M209.641,277.736c-3.352-2.789-5.93-18.264-6.873-22.945c-0.943-4.681-5.23-16.926-3.087-19.175
				c2.144-2.249,5.977-6.776,4.758-8.699c-1.219-1.922-5.245,1.166-9.842,0.691c-4.195-0.434-9.16-2.117-10.454-0.691
				c-1.294,1.426,1.21,5.054,2.749,6.45c1.539,1.396-0.397,13.953-1.801,19.256c-1.404,5.302-5.211,23.207-7.075,26.533
				c-1.864,3.327-2.027,6.371,0.566,6.663c1.857,0.209,1.644,4.075,0.871,7.913c1.419-0.083,2.828-0.259,4.222-0.538
				c0.689-9.721,1.245-19.029,1.924-22.362c1.637-8.04,7.91-39.642,7.91-39.642s4.727,35.96,5.737,39.642
				c0.44,1.603,1.609,10.92,2.808,20.867c1.753,0.717,3.465,1.189,5.477,1.282c-1.686-7.159-0.051-7.694,2.112-10.037
				C211.871,280.528,212.992,280.526,209.641,277.736z"/>
		</g>
		<path style="fill:#F79F63;" d="M147.454,202.172c-1.576,4.098-8.511,20.806-11.349,27.741c-2.837,6.935-0.315,11.007,2.837,5.648
			c3.152-5.359,4.729-9.28,4.729-9.28s0,7.074,0.946,9.911c0.946,2.837,3.783-7.553,3.783-9.911c0-2.357-0.023-6.642,2.291-10.869
			c5.523-10.088,17.096-28.923,17.096-28.923l-10.824-7.271C156.963,179.218,149.031,198.074,147.454,202.172z"/>
		<path style="fill:#F79F63;" d="M214.601,101.61c2.722-2.665-1.534-11.014-4.492-11.23c-3.192-0.233-4.268,8.256-4.492,10.758
			c-0.293,3.269,0.158,7.408,1.103,13.083c0.946,5.674,3.389,26.165,3.389,26.165s3.98,17.457,7.448,3.901
			c3.468-13.555-3.039-29.133-3.31-31.091C213.32,106.51,212.892,103.283,214.601,101.61z"/>
		<g>
			<path style="fill:#FFFFFF;" d="M206.773,134.198c0,0-2.414,8.684-3.403,13.742c-0.386,1.973-1.831,4.384-5.832,4.312
				c-5.556,2.699-13.9,0-13.9,0s-12.068,2.879-15.754,7.393c-3.028,3.709-11.498,17.873-12.739,21.187
				c1.561,2.473,3.922,4.034,6.543,5.279c1.89,0.897,3.912,1.633,5.866,2.427c1.923-2.663,4.421-6.165,5.659-8.071
				c1.578,6.181-2.054,29.664-3.339,37.495c8.563,2.699,17.723,3.247,26.445,0.348c7.024-2.335,8.335-7.672,7.967-14.304
				c-0.29-5.241-0.899-10.435-0.837-15.695c0.218-18.532,12.099-33.943,13.332-52.212
				C212.512,134.636,206.773,134.198,206.773,134.198z"/>
			<path style="fill:#A7ADD0;" d="M216.78,136.099c-1.233,18.269-13.114,33.68-13.332,52.212
				c-0.062,5.261,0.548,10.455,0.837,15.695c0.367,6.633-0.943,11.969-7.967,14.304c-8.722,2.9-17.882,2.351-26.445-0.348
				c-0.264,1.609-0.431,2.572-0.431,2.572s9.38,4.873,28.135,3.31c11.349-0.946,14.493-4.256,14.493-4.256
				s-3.266-14.023-3.036-19.757c0.275-6.837,0.452-15.475,1.022-20.405c0.879-7.597,6.863-18.797,8.124-23.595
				c1.261-4.799,3.333-14.15,1.951-18.048C219.307,137.109,218.113,136.555,216.78,136.099z"/>
		</g>
		<path style="fill:#A7ADD0;" d="M187.659,150.128c-5.855-0.829-6.898,3.166-6.898,3.166s5.709,2.372,11.22,3.105
			c5.511,0.733,7.991-4.48,7.991-4.48l-1.749-2.14C198.223,149.78,193.515,150.958,187.659,150.128z"/>
		<g>
			<path style="fill:#F79F63;" d="M168.775,308.787c0,6.305,0.095,10.338-0.726,16.618c-0.372,2.848-3.01,6.087-1.677,7.867
				c1.77,2.364,12.142,2.773,11.976-5.004c-0.169-7.895,1.024-21.872,2.092-26.416c0.62-2.639,1.403-8.472,1.953-12.91h-13.617
				V308.787z"/>
			<path style="fill:#624A5F;" d="M176.358,325.405c-2.581,0.735-3.85,3.018-5.617,3.018c-2.054,0-2.691-3.018-2.691-3.018
				s-9.391,2.138-11.026,3.899c-1.635,1.761-1.132,5.716-1.132,5.716h25.238c0,0-0.084-3.913-1.844-7.938
				C178.947,326.31,177.415,325.104,176.358,325.405z"/>
			<rect x="155.891" y="333.665" style="fill:#4D374B;" width="25.13" height="1.356"/>
		</g>
		<g>
			<path style="fill:#F79F63;" d="M217.573,308.787v-19.845h-13.617c0.55,4.438,1.333,10.271,1.953,12.91
				c1.067,4.544,2.26,18.521,2.092,26.416c-0.166,7.778,10.206,7.369,11.976,5.004c1.333-1.781-1.305-5.019-1.678-7.867
				C217.478,319.125,217.573,315.092,217.573,308.787z"/>
			<path style="fill:#624A5F;" d="M218.299,325.405c0,0-0.637,3.019-2.691,3.018c-1.767,0-3.036-2.283-5.617-3.018
				c-1.057-0.301-2.589,0.904-2.927,1.677c-1.761,4.025-1.845,7.938-1.845,7.938h25.238c0,0,0.503-3.955-1.132-5.716
				C227.69,327.543,218.299,325.405,218.299,325.405z"/>
			<rect x="205.328" y="333.665" style="fill:#4D374B;" width="25.13" height="1.356"/>
		</g>
		<g>
			<path style="fill:#775D75;" d="M175.644,286.736c-4.31-0.243-9.906-1.655-9.906-1.655s-0.473,2.874-0.671,5.794
				c2.228,1.422,6.104,1.525,8.462,1.764c2.132,0.216,4.651,0.651,6.785,0.369c2.517-0.333,3.598-1.778,4.955-2.929
				c0.103-1.848,0.17-3.368,0.17-3.368S181.238,287.051,175.644,286.736z"/>
			<path style="fill:#624A5F;" d="M173.529,292.638c-2.358-0.239-6.233-0.342-8.462-1.764c-0.052,0.762-0.089,1.527-0.089,2.245
				c0,2.417,6.278,2.837,11.163,3.31c4.886,0.473,8.648,0.404,8.881-2.551c0.093-1.185,0.178-2.564,0.247-3.801
				c-1.357,1.151-2.438,2.596-4.955,2.929C178.18,293.289,175.661,292.854,173.529,292.638z"/>
		</g>
		<g>
			<path style="fill:#775D75;" d="M210.504,285.935c-4.277,0.584-10.039,0.265-10.039,0.265s0.084,2.912,0.447,5.815
				c2.459,0.97,6.283,0.332,8.643,0.117c2.134-0.194,4.69-0.248,6.731-0.932c2.408-0.807,3.193-2.431,4.305-3.821
				c-0.251-1.833-0.476-3.338-0.476-3.338S216.056,285.177,210.504,285.935z"/>
			<path style="fill:#624A5F;" d="M220.591,287.379c-1.112,1.389-1.897,3.014-4.305,3.821c-2.041,0.684-4.597,0.738-6.731,0.932
				c-2.36,0.215-6.184,0.853-8.643-0.117c0.095,0.758,0.204,1.516,0.341,2.221c0.461,2.372,6.704,1.588,11.59,1.12
				c4.886-0.468,8.566-1.253,8.231-4.198C220.938,289.976,220.759,288.606,220.591,287.379z"/>
		</g>
	</g>
</g>
<g>
	<g>
		<g>
			<path style="fill:#F79F63;" d="M300.564,157.266c0.136-3.016,0-9.048,0-9.048h-4.674h-1.761h-4.674c0,0-0.137,6.032,0,9.048
				c0.136,3.016-5.073,4.871-5.073,4.871s2.474,3.994,7.901,5.349c0.477,0.288,1.06,0.451,1.776,0.451
				c0.328,0,0.637-0.024,0.95-0.043c0.313,0.019,0.622,0.043,0.951,0.043c0.717,0,1.3-0.163,1.776-0.451
				c5.427-1.355,7.9-5.349,7.9-5.349S300.427,160.282,300.564,157.266z"/>
			<path style="fill:#64231D;" d="M295.305,126.432c-10.524-0.297-10.612,8.923-10.688,13.161c-0.098,5.476,1.942,8.768,3.437,11.32
				c1.255,2.143,6.878,7.165,6.878,7.165s5.659-4.993,7.134-7.194c2.974-4.438,3.209-8.35,3.334-11.291
				C305.577,135.45,305.04,126.707,295.305,126.432z"/>
		</g>
	</g>
	<path style="fill:#F79F63;" d="M276.06,286.549c0,0-0.305,1.491-0.286,2.232c0.094,3.7,0.701,14.131,0.825,18.912
		c0.149,5.738,0.539,12.165,0,15.608c-0.539,3.443-6.278,4.747-7.54,5.049c-2.869,0.689-5.853,0.23-6.656,3.902
		c-0.644,2.943,9.379,2.165,14.428,2.265c5.05,0.099,8.781,0.942,9.672-1.674c0.377-1.106,0.842,0.741-0.344-10.001
		c-0.332-3.006,2.794-34.061,2.794-34.061L276.06,286.549z"/>
	<path style="fill:#F79F63;" d="M317.354,328.351c-1.263-0.303-7.001-1.607-7.54-5.049c-0.539-3.443-0.149-9.87,0-15.608
		c0.124-4.781,0.416-16.275,0.509-19.975c0.019-0.741,0.03-1.169,0.03-1.169h-12.335c0,0,2.568,33.287,2.236,36.293
		c-1.186,10.742-0.721,8.895-0.344,10.001c0.892,2.616,4.623,1.774,9.673,1.674c5.05-0.1,15.072,0.678,14.428-2.265
		C323.207,328.58,320.223,329.039,317.354,328.351z"/>
	<rect x="262.373" y="334.067" style="fill:#4D374B;" width="24.396" height="1.316"/>
	<path style="fill:#4D374B;" d="M265.668,328.975l2.817,5.528l3.098-0.436c0,0-1.033-2.471-2.41-4.308
		C267.797,327.923,265.668,328.975,265.668,328.975z"/>
	<rect x="299.644" y="334.067" style="fill:#4D374B;" width="24.396" height="1.316"/>
	<path style="fill:#4D374B;" d="M317.239,329.759c-1.377,1.836-2.41,4.308-2.41,4.308l3.099,0.436l2.817-5.528
		C320.745,328.975,318.616,327.923,317.239,329.759z"/>
	<g>
		<path style="fill:#F47E31;" d="M312.169,211.884h-33.213c0,0-2.161,10.354-4.175,19.845c-2.013,9.491-0.776,25.642-0.4,29.692
			c0.645,6.95,1.391,27.359,1.391,27.359s3.27,1.66,6.942,1.66c0.848,0,1.709-0.14,2.519-0.332
			c-0.379-9.699-0.597-19.441,0.37-29.112c0.473-4.724,1.223-9.433,2.41-14.032c0.798-3.091,2.428-5.922,0.902-8.911
			c-0.314-0.614-2.091-2.298-2.232-3.256c-0.243-1.653,2.114-2.93,6.054-1.441c4.055,1.532,10.176-0.995,11.246,1.448
			c0.451,1.029-1.014,2.42-1.53,3.234c-1.627,2.568-2.403,4.86-2.388,7.96c0.022,4.467,0.828,8.998,1.17,13.454
			c0.75,9.785,1.292,19.588,1.427,29.402c0.003,0.205,0.005,0.425,0.006,0.647c0.617,0.084,1.244,0.15,1.85,0.168
			c2.678,0.077,5.782-1.149,5.782-1.149s2.765-20.836,3.093-24.941c0.459-5.738,3.09-26.097,2.227-33.575
			C314.76,222.526,312.169,211.884,312.169,211.884z"/>
		<path style="fill:#DD601B;" d="M303.985,234.805c-1.07-2.442-7.191,0.085-11.246-1.448c-3.94-1.489-6.297-0.212-6.054,1.441
			c0.141,0.959,1.919,2.643,2.232,3.256c1.526,2.988-0.104,5.82-0.902,8.911c-1.187,4.599-1.938,9.308-2.41,14.032
			c-0.967,9.671-0.749,19.413-0.37,29.112c2.042-0.483,3.717-1.328,3.717-1.328s1.037-22.814,1.491-26.574
			c0.812-6.726,3.868-23.745,3.868-23.745s1.934,17.528,2.176,23.817c0.093,2.42,1.68,26.243,1.68,26.243s2.161,0.661,4.503,0.98
			c-0.002-0.222-0.003-0.442-0.006-0.647c-0.135-9.814-0.677-19.617-1.427-29.402c-0.342-4.455-1.148-8.986-1.17-13.454
			c-0.015-3.099,0.761-5.392,2.388-7.96C302.971,237.225,304.436,235.834,303.985,234.805z"/>
	</g>
	<g>
		<g>
			<path style="fill:#4D374B;" d="M272.034,98.326c-0.963-1.035-1.873-2.012-2.437-2.675l-0.061-0.072
				c-1.957-2.297-2.722-3.281-1.995-4.577c0.438-0.782,1.171-1.964,1.706-2.826c0.155-0.249,0.291-0.47,0.398-0.643
				c0.292-0.476,0.601-0.756,0.918-0.832c0.294-0.07,0.644,0.023,1.069,0.284c0.799,0.492,2.309,1.453,2.324,1.462l0.569-0.894
				c-0.016-0.01-1.532-0.974-2.338-1.47c-0.676-0.417-1.288-0.551-1.87-0.412c-0.6,0.143-1.13,0.584-1.575,1.308
				c-0.105,0.172-0.241,0.391-0.395,0.639c-0.54,0.871-1.28,2.065-1.73,2.867c-1.116,1.992,0.169,3.5,2.113,5.782l0.061,0.072
				c0.579,0.68,1.497,1.666,2.468,2.71c1.451,1.559,3.095,3.325,3.771,4.255c0.928,1.278,0.635,1.879-0.527,3.765l-4.877,7.922
				l0.902,0.555l4.877-7.922c1.125-1.827,1.868-3.034,0.481-4.943C275.173,101.698,273.577,99.984,272.034,98.326z"/>
		</g>
		
			<rect x="280.674" y="80.692" transform="matrix(0.5243 -0.8516 0.8516 0.5243 55.1894 285.6447)" style="fill:#4D374B;" width="5.137" height="25.473"/>
		<polygon style="fill:#525C9E;" points="272.942,87.077 270.971,90.279 291.535,102.939 293.507,99.737 295.422,96.626 
			274.858,83.965 		"/>
		<g>
			<path style="fill:#F47E31;" d="M273.107,107.763c0,0-0.002,0.003-0.006,0.007c-0.235,0.305-6.934,8.601-8.667,12.564
				c-0.299,0.683-0.512,2.213,0.63,2.916c1.203,0.74,2.491,0.004,2.936-0.599c2.626-3.561,7.53-13.439,7.53-13.439l-0.013-0.008
				L273.107,107.763z M267.001,121.5c-0.204,0.332-0.639,0.436-0.972,0.231c-0.332-0.205-0.435-0.639-0.231-0.971
				c0.204-0.332,0.639-0.436,0.971-0.231C267.102,120.732,267.205,121.168,267.001,121.5z"/>
		</g>
	</g>
	<path style="fill:#F79F63;" d="M265.782,111.168c-2.873,0.21-7.003,8.316-4.361,10.903c1.659,1.624,1.243,4.757,0.344,11.247
		c-0.206,1.491-5.904,19.322-2.538,24.761c1.509,2.437,6.788,1.529,6.555,1.635c0,0,2.372-19.892,3.29-25.401
		c0.918-5.509,1.356-9.527,1.071-12.701C269.925,119.183,268.88,110.941,265.782,111.168z"/>
	<path style="fill:#F79F63;" d="M329.081,178.98l-20.658,3.977c0,0,17.903,19.665,26.166,14.615
		c1.806-1.104,1.996-6.433,1.148-9.181C334.36,183.932,329.081,178.98,329.081,178.98z"/>
	<g>
		<path style="fill:#22B99A;" d="M316.423,164.772c-4.081-1.451-13.072-3.825-13.072-3.825s-5.191,7.316-16.664,0
			c0,0-5.809-1.428-8.637-2.992c-2.266-1.253-7.2-5.628-10.248-9.138c-3.013,1.519-6.184,2.797-8.313,5.53
			c-0.769,0.987-1.393,2.052-1.922,3.163c5.343,6.294,12.07,11.261,17.82,17.337c8.229,8.698,6.542,21.188,5.487,32.216
			c-0.258,2.694,2.185,5.498,5.056,6.247c10.035,2.618,20.038,1.835,29.081-2.582c-1.161-5.564-2.661-12.441-3.508-15.106
			c-1.52-4.778,0.912-11.847,0.912-11.847s4.493,3.769,10.045,7.152c5.559-2.327,8.71-11.836,8.71-11.836
			S321.453,166.561,316.423,164.772z"/>
		<path style="fill:#12A07E;" d="M285.929,213.312c-2.871-0.749-5.314-3.553-5.056-6.247c1.055-11.028,2.742-23.518-5.487-32.216
			c-5.749-6.077-12.476-11.044-17.82-17.337c-0.338,0.709-0.629,1.439-0.893,2.182c5.959,6.842,17.878,19.132,18.502,22.889
			c0.793,4.769,1.406,13.565,0.315,22.518c-0.311,2.555-2.439,13.006-2.439,13.006s14.492,5.542,22.692,5.462
			c11.401-0.112,20.895-4.839,20.895-4.839s-0.708-3.587-1.629-8C305.968,215.147,295.964,215.929,285.929,213.312z"/>
	</g>
	<path style="fill:#7A2D2A;" d="M278.964,125.354c-8.573,4.566-2.808,16.046-5.207,18.185c-3.672,3.275-7.369,0.646-7.369,0.646
		s2.696,8.004,11.806,5.493c9.181-2.531,10.865-12.413,10.558-19.605C288.637,127.34,284.767,122.264,278.964,125.354z"/>
	<path style="fill:#7A2D2A;" d="M316.758,143.539c-2.399-2.139,3.366-13.619-5.207-18.185c-5.803-3.09-9.673,1.986-9.789,4.719
		c-0.306,7.192,1.377,17.074,10.558,19.605c9.11,2.511,11.806-5.493,11.806-5.493S320.431,146.814,316.758,143.539z"/>
</g>
<g>
	<rect x="320.645" y="359.797" style="fill:#0D8C6B;" width="89.985" height="14.341"/>
	<g>
		<rect x="356.486" y="357.509" style="fill:#12A07E;" width="57.972" height="4.437"/>
		<g>
			<path style="fill:#12A07E;" d="M313.953,374.352h9.064c1.926-4.751,7.725-8.202,14.582-8.202c6.857,0,12.656,3.451,14.582,8.202
				h9.064v-14.77h-47.293V374.352z"/>
		</g>
		<rect x="308.924" y="357.509" style="fill:#22B99A;" width="57.972" height="4.437"/>
	</g>
</g>
<g>
	<g>
		<g>
			<path style="fill:#64231D;" d="M294.087,363.409c-1.548-0.733-10.589,0.733-15.069,0.896c-0.428,0.016-1.385,0.204-1.466-1.262
				c-0.111-1.996-0.081-3.543-0.081-4.847c0-1.712-2.118-1.955-2.118-1.955v19.712c0,0,2.118-0.242,2.118-1.955
				c0-1.303-0.03-2.85,0.081-4.846c0.081-1.466,1.038-1.278,1.466-1.263c4.48,0.163,13.522,1.629,15.069,0.896
				C296.09,367.836,296.09,364.357,294.087,363.409z M293.049,367.339c-0.686,0-1.242-0.556-1.242-1.242
				c0-0.686,0.556-1.242,1.242-1.242c0.686,0,1.242,0.556,1.242,1.242C294.291,366.783,293.735,367.339,293.049,367.339z"/>
		</g>
		<g>
			<rect x="256.129" y="356.291" style="fill:#FFCD50;" width="10.997" height="19.641"/>
		</g>
		<g>
			<rect x="269.235" y="356.251" style="fill:#BCBCBC;" width="6.117" height="19.712"/>
		</g>
		<g>
			<polygon style="fill:#F47E31;" points="267.288,358.409 267.288,357.432 256.618,357.88 			"/>
			<polygon style="fill:#F47E31;" points="267.288,361.627 267.288,360.649 256.618,361.097 			"/>
			<polygon style="fill:#F47E31;" points="267.288,365.333 267.288,364.356 256.618,364.803 			"/>
			<polygon style="fill:#F47E31;" points="267.288,368.55 267.288,367.573 256.618,368.021 			"/>
			<polygon style="fill:#F47E31;" points="267.288,371.768 267.288,370.79 256.618,371.238 			"/>
			<polygon style="fill:#F47E31;" points="267.288,374.986 267.288,374.008 256.618,374.456 			"/>
		</g>
		<rect x="267.126" y="356.291" style="fill:#525C9E;" width="3.34" height="19.641"/>
	</g>
	<rect x="274.018" y="356.241" style="fill:#6A6C6D;" width="1.335" height="19.692"/>
</g>
<g>
	<path style="fill:#FFFFFF;" d="M377.409,321.671h-8.322c0,0-0.564,2.493-2.969,3.743c-2.406,1.25-8.281,1.37-9.656,3.247
		c-1.375,1.878,0.25,3.18,3.75,3.466c3.5,0.286,9.75,0.161,11.875,0.786s5.775,0.319,5.275-3.7S377.409,321.671,377.409,321.671z"/>
	<g>
		<path style="fill:#7A2D2A;" d="M397.959,254.567h-30.198c0,0-1.019,12.709-1.069,18.351c-0.066,7.436,0.244,21.265,0.331,28.628
			c0.061,5.112-0.919,21.046-0.919,21.046s4.639,5.023,9.163,4.236c0.014-0.184,0.027-0.368,0.038-0.552
			c0.452-7.727,0.895-15.455,1.353-23.181c0.206-3.484,0.538-6.912,1.165-10.347c0.653-3.579,1.327-8.362,0.801-11.998
			c-0.204-1.409-1.829-2.514-2.563-3.688c-0.938-1.5-1.188-4.063,4-2.625c2.077,0.576,9.935-1.579,9.125,1.75
			c-0.35,1.439-2.24,3.019-2.51,4.55c-0.309,1.753,0.177,3.525,0.457,5.258c0.444,2.746,0.779,5.51,1.02,8.281
			c0.911,10.503,0.514,21.082-0.206,31.6c4.458,1.353,9.176-3.127,9.176-3.127s2.286-40.011,1.786-49.631
			C398.412,263.499,397.959,254.567,397.959,254.567z"/>
		<path style="fill:#64231D;" d="M380.063,274.438c-5.188-1.438-4.938,1.125-4,2.625c0.733,1.173,2.358,2.278,2.563,3.688
			c0.526,3.636-0.148,8.419-0.801,11.998c-0.627,3.435-0.958,6.863-1.165,10.347c-0.458,7.727-0.901,15.454-1.353,23.181
			c-0.011,0.184-0.024,0.369-0.038,0.552c1.431-0.249,2.85-1.073,4.108-2.829c1.684-12.223,3.093-44.755,3.093-44.755
			s0.815,25.151,1.532,43.348c1.19,1.876,2.557,2.861,3.949,3.284c0.72-10.518,1.117-21.096,0.206-31.6
			c-0.241-2.771-0.576-5.535-1.02-8.281c-0.28-1.733-0.766-3.505-0.457-5.258c0.27-1.531,2.159-3.111,2.51-4.55
			C389.998,272.858,382.14,275.013,380.063,274.438z"/>
	</g>
	<g>
		<path style="fill:#525C9E;" d="M348.041,202.413c-0.319,0.966-0.454,2.527-1.161,2.839c-1.359,0.6-1.47-3.198-1.685-4.199
			c-0.167-0.777-0.568-2.664-1.094-2.984c-0.494-0.3-1.092,0.256-1.047,1.456c0.038,1.013,0.177,3.057,0.267,4.096
			c0.041,0.48-0.296,0.699-0.688,0.3c-0.891-0.905-1.47-2.818-2.705-3.788c-0.993-0.779-2.146-0.01-1.196,1.493
			c0.935,1.479,2.087,3.712,2.165,3.941c0.176,0.511-0.148,0.959-0.498,0.633c-1.549-1.441-2.152-2.598-3.013-3.267
			c-0.742-0.576-1.575-0.709-1.746,0.076c-0.114,0.524,0.48,1.131,1.059,1.798c0.599,0.69,1.244,1.423,1.59,1.857
			c0.133,0.166,1.036,1.012,0.455,1.352c-0.161,0.094-1.306-0.66-1.477-0.746c-0.759-0.381-1.414-0.657-2.26-0.737
			c-0.639-0.061-1.285,0.533-0.32,1.244c1.557,1.148,3.263,2.076,4.896,3.112c1.117,0.708,2.4,1.835,3.734,2.135
			c1.158,0.261,1.578,0.018,2.493-0.501c0.997-0.566,2.05-0.591,2.83-1.533c0.939-1.132,0.548-3.792,0.995-6.989
			c0.098-0.702,0.827-2.481,0.104-3.027C349.055,200.458,348.438,201.213,348.041,202.413z"/>
		<path style="fill:#525C9E;" d="M448.664,228.786c-0.841,0.572-1.899,1.729-2.649,1.546c-1.443-0.351,0.78-3.432,1.219-4.357
			c0.34-0.718,1.171-2.459,0.948-3.033c-0.21-0.538-1.022-0.462-1.717,0.517c-0.587,0.827-1.72,2.533-2.282,3.412
			c-0.259,0.406-0.66,0.374-0.728-0.18c-0.156-1.26,0.549-3.131,0.159-4.652c-0.313-1.223-1.697-1.315-1.858,0.457
			c-0.158,1.743-0.604,4.216-0.68,4.445c-0.172,0.512-0.701,0.671-0.78,0.2c-0.352-2.086-0.126-3.372-0.402-4.426
			c-0.238-0.909-0.818-1.521-1.432-1.003c-0.41,0.346-0.307,1.189-0.254,2.072c0.055,0.912,0.121,1.887,0.131,2.441
			c0.004,0.213,0.206,1.434-0.462,1.35c-0.185-0.023-0.634-1.319-0.717-1.491c-0.371-0.764-0.723-1.382-1.345-1.961
			c-0.47-0.437-1.344-0.359-1.012,0.792c0.536,1.858,1.326,3.633,1.99,5.449c0.455,1.242,0.788,2.917,1.663,3.967
			c0.76,0.912,1.241,0.975,2.283,1.12c1.135,0.158,1.987,0.779,3.179,0.507c1.434-0.327,2.742-2.675,5.043-4.94
			c0.505-0.497,2.166-1.465,1.925-2.339C450.658,227.852,449.709,228.075,448.664,228.786z"/>
		<path style="fill:#525C9E;" d="M346.516,250.143c-0.319,0.966-0.454,2.527-1.161,2.839c-1.359,0.6-1.47-3.198-1.685-4.199
			c-0.167-0.777-0.568-2.664-1.094-2.984c-0.494-0.3-1.092,0.256-1.048,1.456c0.038,1.013,0.177,3.057,0.267,4.096
			c0.041,0.48-0.296,0.699-0.688,0.3c-0.891-0.905-1.47-2.818-2.705-3.788c-0.993-0.779-2.147-0.01-1.196,1.493
			c0.935,1.479,2.087,3.712,2.166,3.941c0.175,0.511-0.148,0.959-0.498,0.633c-1.549-1.441-2.152-2.598-3.013-3.267
			c-0.742-0.576-1.575-0.709-1.746,0.076c-0.114,0.524,0.48,1.131,1.059,1.798c0.599,0.69,1.244,1.423,1.59,1.856
			c0.132,0.166,1.036,1.013,0.455,1.353c-0.161,0.094-1.306-0.66-1.477-0.746c-0.759-0.381-1.414-0.657-2.26-0.738
			c-0.639-0.061-1.285,0.533-0.32,1.244c1.557,1.148,3.263,2.076,4.896,3.112c1.117,0.708,2.4,1.834,3.734,2.135
			c1.158,0.261,1.578,0.018,2.493-0.501c0.997-0.566,2.05-0.592,2.83-1.533c0.939-1.132,0.548-3.792,0.995-6.989
			c0.098-0.702,0.827-2.481,0.104-3.027C347.529,248.188,346.912,248.942,346.516,250.143z"/>
		<path style="fill:#525C9E;" d="M361.727,177.959c-0.922,0.429-2.153,1.399-2.864,1.098c-1.367-0.58,1.324-3.261,1.907-4.103
			c0.452-0.654,1.554-2.238,1.426-2.84c-0.12-0.565-0.934-0.621-1.778,0.233c-0.713,0.721-2.107,2.222-2.803,2.999
			c-0.321,0.359-0.712,0.263-0.69-0.296c0.05-1.269,1.048-3.001,0.909-4.565c-0.112-1.257-1.462-1.572-1.907,0.15
			c-0.438,1.694-1.277,4.063-1.39,4.276c-0.252,0.478-0.8,0.548-0.802,0.071c-0.01-2.116,0.42-3.348,0.318-4.433
			c-0.088-0.935-0.562-1.633-1.251-1.221c-0.46,0.276-0.496,1.124-0.585,2.003c-0.093,0.909-0.185,1.881-0.265,2.43
			c-0.03,0.21-0.029,1.449-0.674,1.258c-0.179-0.053-0.413-1.404-0.467-1.587c-0.242-0.814-0.49-1.481-1.01-2.153
			c-0.393-0.508-1.268-0.572-1.126,0.618c0.229,1.92,0.721,3.8,1.084,5.699c0.248,1.299,0.306,3.005,1.001,4.183
			c0.603,1.022,1.067,1.163,2.072,1.474c1.095,0.339,1.835,1.089,3.055,1.014c1.468-0.091,3.139-2.196,5.775-4.06
			c0.579-0.409,2.374-1.096,2.277-1.997C363.846,177.359,362.873,177.426,361.727,177.959z"/>
		<path style="fill:#525C9E;" d="M358.684,234.973c-0.922,0.429-2.153,1.399-2.864,1.098c-1.367-0.58,1.324-3.261,1.907-4.103
			c0.452-0.654,1.553-2.238,1.426-2.84c-0.12-0.565-0.934-0.621-1.778,0.233c-0.713,0.721-2.107,2.222-2.803,2.999
			c-0.321,0.358-0.712,0.263-0.69-0.296c0.05-1.269,1.048-3.001,0.909-4.565c-0.112-1.257-1.462-1.572-1.907,0.15
			c-0.438,1.694-1.277,4.063-1.39,4.276c-0.253,0.478-0.8,0.548-0.802,0.071c-0.01-2.116,0.42-3.348,0.318-4.433
			c-0.088-0.935-0.562-1.633-1.251-1.221c-0.46,0.276-0.496,1.124-0.585,2.003c-0.093,0.909-0.185,1.882-0.265,2.43
			c-0.03,0.21-0.029,1.449-0.674,1.258c-0.179-0.053-0.413-1.404-0.467-1.587c-0.242-0.814-0.49-1.481-1.01-2.153
			c-0.393-0.507-1.268-0.572-1.126,0.618c0.229,1.92,0.721,3.8,1.084,5.699c0.248,1.299,0.306,3.005,1.001,4.184
			c0.603,1.022,1.067,1.163,2.072,1.474c1.095,0.339,1.835,1.089,3.055,1.014c1.468-0.091,3.139-2.196,5.775-4.06
			c0.579-0.409,2.374-1.096,2.278-1.997C360.803,234.374,359.83,234.44,358.684,234.973z"/>
		<path style="fill:#525C9E;" d="M420.462,214.287c-0.846,0.081-1.501,0.357-2.26,0.738c-0.171,0.086-1.315,0.84-1.477,0.746
			c-0.581-0.34,0.323-1.186,0.455-1.352c0.345-0.433,0.991-1.167,1.59-1.857c0.579-0.667,1.174-1.274,1.059-1.798
			c-0.171-0.785-1.004-0.652-1.746-0.076c-0.861,0.669-1.464,1.826-3.013,3.267c-0.35,0.325-0.673-0.122-0.498-0.633
			c0.078-0.228,1.23-2.461,2.165-3.941c0.951-1.504-0.203-2.273-1.196-1.493c-1.235,0.97-1.814,2.883-2.705,3.788
			c-0.392,0.398-0.729,0.179-0.688-0.3c0.09-1.039,0.229-3.083,0.267-4.096c0.045-1.2-0.554-1.755-1.047-1.456
			c-0.527,0.32-0.927,2.207-1.094,2.984c-0.215,1.001-0.326,4.798-1.685,4.199c-0.707-0.312-0.842-1.874-1.161-2.839
			c-0.396-1.201-1.014-1.955-1.698-1.438c-0.723,0.546,0.006,2.325,0.104,3.027c0.447,3.198,0.056,5.857,0.995,6.989
			c0.781,0.941,1.834,0.967,2.83,1.533c0.915,0.52,1.335,0.762,2.493,0.501c1.334-0.3,2.618-1.426,3.734-2.135
			c1.633-1.036,3.34-1.965,4.896-3.112C421.748,214.82,421.102,214.226,420.462,214.287z"/>
		<path style="fill:#525C9E;" d="M415.837,263.828c-0.95,0.364-2.245,1.246-2.934,0.896c-1.324-0.673,1.548-3.161,2.187-3.96
			c0.496-0.62,1.705-2.124,1.62-2.734c-0.08-0.572-0.889-0.684-1.79,0.109c-0.761,0.67-2.256,2.07-3.005,2.797
			c-0.346,0.335-0.728,0.213-0.668-0.343c0.138-1.263,1.254-2.921,1.224-4.491c-0.024-1.262-1.349-1.669-1.913,0.018
			c-0.555,1.66-1.556,3.964-1.684,4.169c-0.285,0.459-0.836,0.491-0.805,0.015c0.137-2.111,0.652-3.31,0.626-4.4
			c-0.023-0.939-0.447-1.669-1.163-1.305c-0.479,0.243-0.573,1.087-0.723,1.958c-0.156,0.9-0.316,1.864-0.433,2.406
			c-0.045,0.208-0.129,1.443-0.76,1.208c-0.175-0.065-0.314-1.429-0.356-1.616c-0.185-0.829-0.385-1.511-0.858-2.217
			c-0.357-0.534-1.226-0.658-1.167,0.539c0.095,1.931,0.455,3.841,0.685,5.761c0.157,1.313,0.096,3.019,0.707,4.243
			c0.53,1.062,0.984,1.234,1.965,1.614c1.069,0.414,1.754,1.214,2.977,1.224c1.471,0.011,3.284-1.973,6.044-3.649
			c0.606-0.368,2.445-0.928,2.411-1.834C417.993,263.376,417.018,263.375,415.837,263.828z"/>
		<path style="fill:#525C9E;" d="M449.262,252.584c-0.398-1.13-1.155-0.687-1.284-0.058c-0.171,0.832-0.098,1.54,0.043,2.377
			c0.032,0.188,0.418,1.504,0.281,1.63c-0.495,0.456-1.04-0.656-1.16-0.831c-0.313-0.457-0.825-1.289-1.31-2.064
			c-0.469-0.749-0.874-1.495-1.409-1.54c-0.801-0.066-0.918,0.769-0.584,1.648c0.387,1.019,1.317,1.934,2.241,3.838
			c0.209,0.43-0.314,0.608-0.751,0.29c-0.195-0.142-1.993-1.897-3.134-3.225c-1.159-1.349-2.232-0.471-1.778,0.706
			c0.566,1.465,2.225,2.579,2.83,3.696c0.266,0.491-0.042,0.75-0.489,0.57c-0.967-0.39-2.881-1.122-3.839-1.454
			c-1.134-0.394-1.84,0.015-1.699,0.575c0.151,0.597,1.839,1.533,2.533,1.92c0.894,0.499,4.492,1.717,3.521,2.841
			c-0.505,0.584-2.038,0.256-3.055,0.278c-1.264,0.027-2.166,0.397-1.872,1.203c0.311,0.851,2.225,0.675,2.925,0.787
			c3.188,0.509,5.616,1.662,6.974,1.095c1.128-0.471,1.461-1.47,2.294-2.258c0.765-0.723,1.119-1.054,1.209-2.237
			c0.103-1.364-0.597-2.921-0.948-4.196C450.292,256.312,449.904,254.408,449.262,252.584z"/>
		<path style="fill:#525C9E;" d="M431.641,193.184c-0.672,0.521-1.077,1.105-1.515,1.833c-0.098,0.164-0.661,1.414-0.848,1.42
			c-0.673,0.024-0.362-1.175-0.339-1.386c0.06-0.551,0.213-1.516,0.35-2.419c0.132-0.874,0.31-1.704-0.067-2.086
			c-0.565-0.572-1.198-0.014-1.516,0.87c-0.369,1.025-0.259,2.326-0.797,4.372c-0.121,0.462-0.634,0.257-0.759-0.269
			c-0.056-0.235-0.278-2.738-0.279-4.488c-0.002-1.779-1.388-1.811-1.809-0.621c-0.525,1.48,0.01,3.406-0.258,4.648
			c-0.118,0.546-0.52,0.542-0.742,0.114c-0.48-0.926-1.456-2.727-1.967-3.603c-0.604-1.037-1.407-1.187-1.664-0.669
			c-0.274,0.552,0.398,2.361,0.672,3.106c0.354,0.961,2.292,4.228,0.823,4.449c-0.764,0.115-1.714-1.132-2.5-1.777
			c-0.977-0.802-1.903-1.109-2.204-0.306c-0.318,0.849,1.249,1.961,1.708,2.502c2.089,2.462,3.181,4.918,4.58,5.372
			c1.163,0.377,2.066-0.165,3.211-0.22c1.051-0.051,1.536-0.071,2.374-0.911c0.966-0.968,1.448-2.606,2.012-3.802
			c0.825-1.749,1.77-3.447,2.471-5.249C433.011,192.946,432.148,192.79,431.641,193.184z"/>
		<path style="fill:#525C9E;" d="M467.259,221.539c-1.291-1.44-2.487-2.971-3.875-4.317c-0.86-0.834-1.34-0.1-1.175,0.521
			c0.219,0.821,0.599,1.422,1.099,2.108c0.113,0.154,1.045,1.159,0.979,1.334c-0.24,0.629-1.223-0.123-1.409-0.227
			c-0.484-0.269-1.314-0.785-2.093-1.263c-0.754-0.462-1.45-0.948-1.948-0.749c-0.746,0.298-0.478,1.098,0.212,1.735
			c0.801,0.739,2.042,1.143,3.718,2.434c0.378,0.291-0.01,0.684-0.543,0.595c-0.238-0.04-2.63-0.809-4.243-1.488
			c-1.64-0.69-2.208,0.574-1.276,1.425c1.16,1.059,3.142,1.315,4.182,2.045c0.457,0.321,0.297,0.69-0.183,0.728
			c-1.04,0.083-3.078,0.281-4.084,0.411c-1.191,0.154-1.64,0.835-1.264,1.273c0.402,0.467,2.329,0.551,3.123,0.588
			c1.023,0.047,4.786-0.468,4.419,0.971c-0.191,0.748-1.71,1.139-2.61,1.612c-1.119,0.588-1.762,1.322-1.138,1.912
			c0.658,0.623,2.293-0.388,2.969-0.601c3.08-0.967,5.768-1.019,6.73-2.131c0.8-0.925,0.652-1.968,1.046-3.044
			c0.362-0.988,0.532-1.442,0.084-2.541C469.464,223.605,468.141,222.524,467.259,221.539z"/>
		<path style="fill:#525C9E;" d="M423.326,173.81c-0.325-1.154-1.109-0.759-1.277-0.139c-0.223,0.82-0.196,1.53-0.108,2.375
			c0.02,0.19,0.322,1.527,0.177,1.645c-0.523,0.424-0.996-0.721-1.105-0.903c-0.284-0.476-0.742-1.339-1.176-2.143
			c-0.42-0.777-0.778-1.548-1.309-1.626c-0.795-0.117-0.965,0.71-0.687,1.607c0.322,1.041,1.192,2.014,1.993,3.972
			c0.181,0.442-0.352,0.587-0.768,0.242c-0.186-0.154-1.869-2.02-2.923-3.417c-1.071-1.42-2.198-0.612-1.819,0.592
			c0.471,1.498,2.057,2.715,2.59,3.868c0.234,0.507-0.09,0.745-0.524,0.538c-0.941-0.451-2.804-1.302-3.738-1.695
			c-1.107-0.465-1.838-0.102-1.732,0.466c0.113,0.605,1.738,1.646,2.406,2.077c0.861,0.555,4.374,1.999,3.334,3.058
			c-0.541,0.551-2.05,0.126-3.066,0.084c-1.263-0.053-2.187,0.258-1.945,1.082c0.256,0.869,2.178,0.815,2.869,0.971
			c3.149,0.71,5.5,2.015,6.89,1.536c1.156-0.398,1.552-1.375,2.433-2.107c0.809-0.673,1.184-0.98,1.349-2.156
			c0.19-1.354-0.411-2.953-0.68-4.247C424.117,177.596,423.85,175.671,423.326,173.81z"/>
		<path style="fill:#F79F63;" d="M388.221,221.939c0.13-2.875,0-8.626,0-8.626h-4.456h-1.679h-4.456c0,0-0.13,5.75,0,8.626
			c0.13,2.875-4.837,4.644-4.837,4.644s2.358,3.808,7.533,5.1c0.454,0.274,1.01,0.43,1.694,0.43c0.313,0,0.607-0.023,0.906-0.041
			c0.299,0.018,0.593,0.041,0.906,0.041c0.683,0,1.24-0.156,1.694-0.43c5.174-1.292,7.532-5.1,7.532-5.1
			S388.091,224.814,388.221,221.939z"/>
		<g>
			<path style="fill:#F79F63;" d="M366.804,201.551c0.405-2.153,0.516-4.01,1.171-5.296c0.347-0.681,0.789-1.131,1.269-1.463
				c-0.122-0.256-0.263-0.498-0.459-0.701c-0.488-0.506-0.786-2.028-2.081-2.102c-1.169-0.067-1.112,1.895-1.369,2.372
				c-0.284,0.529-0.512,1.032-1.161,1.217c-0.596,0.17-1.326,0.076-1.615-0.443c-1.285-2.308-2.317-2.91-3.016-3.009
				c0.463,1.362,1.176,2.739,1.063,4.689c-0.359,6.216-1.723,10.822-1.986,14.415c-0.315,4.309,3.969,14.966,3.969,14.966
				l7.213-4.594c0,0-2.007-5.512-2.84-9.772C366.256,208.216,366.202,204.754,366.804,201.551z"/>
			<path style="fill:#F79F63;" d="M406.005,196.815c-0.07-1.211,0.181-2.2,0.491-3.102c-0.141-0.016-0.281-0.042-0.421-0.081
				c-0.5-0.142-0.844-0.374-1.208-0.738c-0.436-0.436-0.787-2.093-1.569-0.419c-0.351,0.751,0.676,1.648-0.146,2.552
				c-0.573,0.63-1.423,0.521-2.144,0.296c-2.143-1.099-2.916-0.888-3.449-0.395c0.406,0.317,0.777,0.737,1.078,1.327
				c0.655,1.286,0.767,3.143,1.171,5.296c0.602,3.203,0.548,6.665-0.159,10.28c-0.833,4.26-2.84,9.772-2.84,9.772l7.213,4.594
				c0,0,4.284-10.658,3.969-14.966C407.728,207.637,406.364,203.031,406.005,196.815z"/>
			<path style="fill:#525C9E;" d="M372.128,191.252c-2.305,0.796-3.027,0.023-3.417-0.713c-0.59-1.115,2.056-2.575,2.384-4.449
				c0.328-1.874-0.437-2.196-1.43-1.033c-0.892,1.044-3.527,4.211-3.527,4.211s0.899-3.611,1.064-4.37
				c0.656-3.019-1.054-2.345-1.668-1.192c-1.314,2.466-2.145,5.561-2.145,5.561s0.242-2.735-0.079-4.29
				c-0.477-2.304-1.879-2.061-1.986-0.953c-0.238,2.462,0.079,5.608,0.079,5.608s-2.542-4.814-3.39-3.887
				c-0.515,0.563,0.73,2.656,1.245,5.35c0.067,0.349,0.171,0.69,0.287,1.031c0.699,0.099,1.731,0.701,3.016,3.009
				c0.289,0.518,1.019,0.612,1.615,0.443c0.648-0.185,0.876-0.688,1.161-1.217c0.257-0.478,0.2-2.44,1.369-2.372
				c1.295,0.074,1.593,1.597,2.081,2.102c0.196,0.203,0.337,0.446,0.459,0.701c1.197-0.827,2.631-0.89,3.439-1.779
				C374.345,191.186,373.329,190.837,372.128,191.252z"/>
			<path style="fill:#525C9E;" d="M405.21,189.632c0,0,0.318-3.146,0.079-5.608c-0.107-1.108-1.509-1.351-1.986,0.953
				c-0.322,1.555-0.079,4.29-0.079,4.29s-0.831-3.095-2.145-5.561c-0.615-1.153-2.324-1.827-1.668,1.192
				c0.165,0.758,1.064,4.37,1.064,4.37s-2.635-3.167-3.527-4.211c-0.993-1.163-1.758-0.841-1.43,1.033
				c0.328,1.874,2.974,3.334,2.383,4.449c-0.39,0.736-1.112,1.509-3.417,0.713c-1.202-0.415-2.217-0.066-0.555,1.762
				c0.851,0.936,2.399,0.952,3.63,1.915c0.533-0.493,1.306-0.704,3.449,0.395c0.721,0.225,1.571,0.334,2.144-0.296
				c0.822-0.904-0.205-1.801,0.146-2.552c0.782-1.675,1.134-0.017,1.569,0.419c0.364,0.364,0.707,0.595,1.208,0.738
				c0.14,0.04,0.281,0.065,0.421,0.081c0.315-0.916,0.692-1.742,0.859-2.618c0.516-2.693,1.761-4.786,1.245-5.35
				C407.753,184.818,405.21,189.632,405.21,189.632z"/>
		</g>
		<g>
			<g>
				<path style="fill:#F47E31;" d="M398.2,212.855c-1.733,2.661-4.121,7.245-6.569,10.232c0.421,1.987-0.009,4.385-1.202,5.498
					c-2.659,2.481-8.72,2.084-11.877,1.085c-3.567-1.129-5.186-4.247-4.004-7.712c-2.301-2.591-5.763-6.634-6.311-8.098
					c-3.6-1.544-8.572,1.467-10.348,5.869c1.931,5.174,4.899,10.116,6.023,13.514c1.268,3.831,2.317,4.797,3.398,9.885
					c0.44,2.07-0.008,9.613-0.337,14.202c0.477,0.21,1.036,0.432,1.722,0.66c1.745,0.58,5.275,1.604,7.026,2.124
					c3.853,1.145,7.915,1.87,11.934,1.35c2.005-0.259,4.197-0.774,5.888-1.932c2.263-1.55,2.366-4.081,2.234-6.541
					c-0.199-3.714-0.839-7.552-0.565-11.271c0.247-3.349,1.959-6.242,3.68-9.042c3.354-5.457,7.176-10.657,8.866-16.875
					C405.859,213.655,402.113,211.907,398.2,212.855z"/>
				<path style="fill:#DD601B;" d="M390.135,224.686c-1.354,5.363-12.709,4.927-13.516-0.432c0,0-0.884-0.958-2.072-2.296
					c-1.182,3.465,0.438,6.583,4.004,7.712c3.156,0.999,9.217,1.396,11.877-1.085c1.193-1.113,1.623-3.511,1.202-5.498
					C391.133,223.694,390.633,224.241,390.135,224.686z"/>
			</g>
			<path style="fill:#DD601B;" d="M398.893,232.679c-1.721,2.8-3.433,5.692-3.68,9.042c-0.275,3.719,0.365,7.557,0.565,11.271
				c0.132,2.46,0.029,4.991-2.234,6.541c-1.691,1.158-3.884,1.673-5.888,1.932c-4.019,0.52-8.081-0.205-11.934-1.35
				c-1.751-0.52-5.281-1.544-7.026-2.124c-0.686-0.228-1.245-0.45-1.722-0.66c-0.153,2.138-0.281,3.637-0.281,3.637
				s6.785,3.784,16.428,4.247c8.241,0.396,15.845-3.172,15.845-3.172s0.39-16.588,0.586-20.876c0.119-2.611,2.526-6.24,4.658-10.704
				c2.327-4.873,4.403-10.567,4.726-12.663c-0.188-0.66-0.601-1.345-1.175-1.994C406.07,222.021,402.247,227.221,398.893,232.679z"
				/>
		</g>
		<path style="fill:#64231D;" d="M383.207,192.543c-4.488-0.127-7.719,1.689-9.635,5.449c-3.096,6.075-5.573,20.549-5.573,20.549
			s8.466,5.332,14.926,5.59c6.46,0.258,15.443-4.802,15.443-4.802s-0.204-12.828-5.642-21.64
			C390.742,194.471,386.84,192.646,383.207,192.543z"/>
	</g>
</g>
<g>
	<rect x="382.564" y="308.572" style="fill:#525C9E;" width="30.178" height="34.973"/>
	<rect x="388.376" y="315.623" style="fill:#FFFFFF;" width="18.977" height="22.605"/>
	<rect x="390.763" y="317.371" style="fill:#624A5F;" width="14.364" height="1.723"/>
	<rect x="380.731" y="307.443" style="fill:#5B72C4;" width="34.268" height="2.68"/>
	<path style="fill:#5B72C4;" d="M396.842,304.717c-1.493,0-2.715,1.221-2.715,2.715v0.494c0,1.493,1.221,1.633,2.715,1.633
		s2.715-0.14,2.715-1.633v-0.494C399.557,305.939,398.335,304.717,396.842,304.717z"/>
	<g>
		<path style="fill:#624A5F;" d="M397.425,307.092c-0.27-0.379-0.799-0.466-1.181-0.196c-0.38,0.272-0.467,0.801-0.196,1.181
			l18.262,25.524c0.165,0.23,0.425,0.354,0.69,0.354c0.17,0,0.343-0.052,0.491-0.158c0.38-0.272,0.467-0.801,0.196-1.181
			L397.425,307.092z"/>
	</g>
</g>
<g>
	<g>
		<rect x="71.76" y="244.9" style="fill:#624A5F;" width="35.936" height="4.447"/>
		<polygon style="fill:#8A93BC;" points="44.662,328.18 52.54,328.18 91.008,202.174 85.783,193.394 		"/>
		<path style="fill:#A7ADD0;" d="M71.192,163.406H47.714v6.094h22.539c2.378,0,4.499,1.493,5.302,3.73l55.589,154.949h7.259
			L81.875,170.919C80.255,166.412,75.981,163.406,71.192,163.406z"/>
		<path style="fill:#FFFFFF;" d="M88.695,199.314c-1.003,0-1.816,0.813-1.816,1.816c0,1.003,0.813,1.816,1.816,1.816
			c1.003,0,1.815-0.813,1.815-1.816C90.51,200.127,89.697,199.314,88.695,199.314z"/>
		<path style="fill:#FFFFFF;" d="M105.881,245.307c-1.003,0-1.816,0.813-1.816,1.816c0,1.003,0.813,1.816,1.816,1.816
			c1.003,0,1.815-0.813,1.815-1.816C107.697,246.12,106.884,245.307,105.881,245.307z"/>
		<path style="fill:#FFFFFF;" d="M73.576,245.307c-1.003,0-1.816,0.813-1.816,1.816c0,1.003,0.813,1.816,1.816,1.816
			c1.003,0,1.816-0.813,1.816-1.816C75.391,246.12,74.578,245.307,73.576,245.307z"/>
		<path style="fill:#FFFFFF;" d="M110.375,258.479c-1.003,0-1.815,0.813-1.815,1.815c0,1.003,0.813,1.815,1.815,1.815
			c1.003,0,1.816-0.813,1.816-1.815C112.191,259.292,111.378,258.479,110.375,258.479z"/>
		<path style="fill:#FFFFFF;" d="M118.837,280.421c-1.003,0-1.815,0.813-1.815,1.815c0,1.003,0.813,1.815,1.815,1.815
			c1.003,0,1.816-0.813,1.816-1.815C120.653,281.233,119.84,280.421,118.837,280.421z"/>
		<path style="fill:#FFFFFF;" d="M126.347,302.362c-1.003,0-1.815,0.813-1.815,1.816c0,1.003,0.813,1.815,1.815,1.815
			c1.003,0,1.815-0.813,1.815-1.815C128.162,303.175,127.349,302.362,126.347,302.362z"/>
		<rect x="42.303" y="324.592" style="fill:#FFCD50;" width="13.482" height="3.587"/>
		<rect x="126.973" y="324.592" style="fill:#FFCD50;" width="13.482" height="3.587"/>
	</g>
	<rect x="58.664" y="198.906" style="fill:#624A5F;" width="25.285" height="4.446"/>
	<g>
		<rect x="44.197" y="244.9" style="fill:#624A5F;" width="35.936" height="4.447"/>
		<rect x="80.133" y="258.071" style="fill:#624A5F;" width="25.286" height="4.447"/>
		<polygon style="fill:#8A93BC;" points="17.099,328.18 24.976,328.18 63.444,202.174 58.219,193.394 		"/>
		<rect x="89.458" y="280.013" style="fill:#624A5F;" width="25.285" height="4.447"/>
		<rect x="98.783" y="301.954" style="fill:#624A5F;" width="25.285" height="4.447"/>
		<path style="fill:#A7ADD0;" d="M48.3,163.406c-1.772,0-3.01,1.756-2.413,3.425L103.58,328.18h7.259L51.753,163.406H48.3z"/>
		<path style="fill:#FFFFFF;" d="M61.131,199.314c-1.003,0-1.816,0.813-1.816,1.816c0,1.003,0.813,1.816,1.816,1.816
			c1.002,0,1.815-0.813,1.815-1.816C62.946,200.127,62.133,199.314,61.131,199.314z"/>
		<path style="fill:#FFFFFF;" d="M78.318,245.307c-1.003,0-1.816,0.813-1.816,1.816c0,1.003,0.813,1.816,1.816,1.816
			c1.003,0,1.815-0.813,1.815-1.816C80.133,246.12,79.32,245.307,78.318,245.307z"/>
		<path style="fill:#FFFFFF;" d="M46.012,245.307c-1.003,0-1.815,0.813-1.815,1.816c0,1.003,0.813,1.816,1.815,1.816
			c1.003,0,1.816-0.813,1.816-1.816C47.828,246.12,47.015,245.307,46.012,245.307z"/>
		<path style="fill:#FFFFFF;" d="M82.812,258.479c-1.003,0-1.815,0.813-1.815,1.815c0,1.003,0.813,1.815,1.815,1.815
			c1.003,0,1.816-0.813,1.816-1.815C84.627,259.292,83.814,258.479,82.812,258.479z"/>
		<path style="fill:#FFFFFF;" d="M91.274,280.421c-1.003,0-1.815,0.813-1.815,1.815c0,1.003,0.813,1.815,1.815,1.815
			c1.003,0,1.816-0.813,1.816-1.815C93.089,281.233,92.276,280.421,91.274,280.421z"/>
		<path style="fill:#FFFFFF;" d="M98.783,302.362c-1.002,0-1.815,0.813-1.815,1.816c0,1.003,0.813,1.815,1.815,1.815
			c1.003,0,1.816-0.813,1.816-1.815C100.599,303.175,99.786,302.362,98.783,302.362z"/>
		<rect x="14.74" y="324.592" style="fill:#FFCD50;" width="13.482" height="3.587"/>
		<rect x="99.409" y="324.592" style="fill:#FFCD50;" width="13.482" height="3.587"/>
	</g>
	<rect x="96.967" y="258.071" style="fill:#897989;" width="31.46" height="4.447"/>
	<rect x="75.499" y="198.906" style="fill:#897989;" width="31.46" height="4.446"/>
	<rect x="108.57" y="280.013" style="fill:#897989;" width="31.46" height="4.447"/>
	<rect x="120.172" y="301.954" style="fill:#4D374B;" width="31.46" height="4.447"/>
</g>
<g>
	<rect x="99.804" y="295.865" style="fill:#DB8F49;" width="58.813" height="41.752"/>
	<rect x="61.561" y="295.865" style="fill:#EFA65E;" width="58.813" height="41.752"/>
	<rect x="84.339" y="295.865" style="fill:#624A5F;" width="15.067" height="14.37"/>
	<rect x="135.674" y="295.865" style="fill:#624A5F;" width="9.562" height="14.37"/>
</g>
<g>
	<g>
		<path style="fill:#525C9E;" d="M23.131,334.64c-4.458,0-8.073,3.718-8.073,8.305c0,1.734,0.518,3.343,1.402,4.675h139.65v-13.009
			H23.131V334.64z"/>
	</g>
	<g>
		<path style="fill:#5B72C4;" d="M34.373,336.66c-2.251,0-4.075,1.824-4.075,4.075c0,2.251,1.824,4.075,4.075,4.075
			c2.251,0,4.075-1.824,4.075-4.075C38.448,338.484,36.624,336.66,34.373,336.66z"/>
		<path style="fill:#5B72C4;" d="M139.294,338.886c-2.852,0-5.164,2.312-5.164,5.164c0,2.852,2.312,5.164,5.164,5.164
			c2.852,0,5.164-2.312,5.164-5.164C144.458,341.198,142.146,338.886,139.294,338.886z"/>
		<path style="fill:#5B72C4;" d="M56.674,344.05c5.2,0,9.414-4.206,9.435-9.401H47.24C47.261,339.844,51.474,344.05,56.674,344.05z"
			/>
		<path style="fill:#5B72C4;" d="M102.746,340c-5.213,0-9.439,4.226-9.439,9.439c0,0.092,0.025,0.179,0.027,0.271h18.823
			c0.002-0.092,0.027-0.178,0.027-0.271C112.185,344.226,107.959,340,102.746,340z"/>
		<g>
			<path style="fill:#A7ADD0;" d="M76.053,334.649c3.113,1.983,5.195,5.444,5.195,9.402c0,2.074-0.606,3.993-1.595,5.659h2.404
				c0.818-1.723,1.313-3.627,1.313-5.659c0-3.669-1.496-6.995-3.909-9.402H76.053z"/>
			<path style="fill:#A7ADD0;" d="M56.8,344.051c0,2.032,0.495,3.936,1.313,5.659h2.404c-0.989-1.665-1.595-3.585-1.595-5.659
				c0-3.957,2.083-7.419,5.195-9.402h-3.409C58.296,337.056,56.8,340.382,56.8,344.051z"/>
		</g>
		<g>
			<path style="fill:#A7ADD0;" d="M123.231,343.115c-5.221,0-9.582-3.616-10.796-8.465h-2.212
				c1.25,6.037,6.606,10.588,13.008,10.588c6.402,0,11.758-4.551,13.008-10.588h-2.212
				C132.812,339.498,128.451,343.115,123.231,343.115z"/>
		</g>
	</g>
	<path style="fill:#3D4A89;" d="M23.131,351.249v0.01h132.98v-3.639H16.461C17.914,349.81,20.359,351.249,23.131,351.249z"/>
	<ellipse style="fill:#5B72C4;" cx="156.111" cy="342.944" rx="8.072" ry="8.305"/>
	<path style="fill:#525C9E;" d="M156.111,338.362c-2.531,0-4.582,2.052-4.582,4.582c0,2.531,2.052,4.582,4.582,4.582
		c2.531,0,4.582-2.052,4.582-4.582C160.693,340.414,158.642,338.362,156.111,338.362z"/>
</g>
<g>
	<g>
		<path style="fill:#525C9E;" d="M40.206,359.805c-4.458,0-8.072,3.718-8.072,8.305c0,1.734,0.518,3.343,1.402,4.675h139.65v-13.009
			H40.206V359.805z"/>
	</g>
	<g>
		<path style="fill:#5B72C4;" d="M51.448,361.825c-2.251,0-4.075,1.824-4.075,4.075c0,2.251,1.824,4.075,4.075,4.075
			c2.251,0,4.075-1.824,4.075-4.075C55.523,363.649,53.698,361.825,51.448,361.825z"/>
		<path style="fill:#5B72C4;" d="M156.369,364.051c-2.852,0-5.164,2.312-5.164,5.164c0,2.852,2.312,5.164,5.164,5.164
			c2.852,0,5.164-2.312,5.164-5.164C161.533,366.363,159.221,364.051,156.369,364.051z"/>
		<path style="fill:#5B72C4;" d="M73.749,369.215c5.2,0,9.414-4.206,9.435-9.401h-18.87
			C64.335,365.009,68.549,369.215,73.749,369.215z"/>
		<path style="fill:#5B72C4;" d="M119.821,365.166c-5.213,0-9.439,4.226-9.439,9.439c0,0.092,0.025,0.179,0.027,0.271h18.823
			c0.002-0.092,0.027-0.178,0.027-0.271C129.259,369.391,125.034,365.166,119.821,365.166z"/>
		<g>
			<path style="fill:#A7ADD0;" d="M93.128,359.814c3.113,1.983,5.195,5.444,5.195,9.402c0,2.074-0.606,3.993-1.595,5.659h2.404
				c0.818-1.723,1.313-3.627,1.313-5.659c0-3.669-1.496-6.995-3.909-9.402H93.128z"/>
			<path style="fill:#A7ADD0;" d="M73.874,369.216c0,2.032,0.495,3.936,1.313,5.659h2.404c-0.989-1.665-1.595-3.585-1.595-5.659
				c0-3.957,2.083-7.419,5.195-9.402h-3.409C75.37,362.221,73.874,365.547,73.874,369.216z"/>
		</g>
		<g>
			<path style="fill:#A7ADD0;" d="M140.305,368.28c-5.221,0-9.582-3.616-10.796-8.465h-2.212c1.25,6.037,6.606,10.588,13.008,10.588
				c6.402,0,11.758-4.551,13.008-10.588h-2.212C149.887,364.663,145.526,368.28,140.305,368.28z"/>
		</g>
	</g>
	<path style="fill:#3D4A89;" d="M40.206,376.414v0.01h132.98v-3.639H33.535C34.989,374.975,37.433,376.414,40.206,376.414z"/>
	<path style="fill:#5B72C4;" d="M173.186,359.805c-4.458,0-8.072,3.718-8.072,8.305c0,4.586,3.614,8.305,8.072,8.305
		c4.458,0,8.073-3.718,8.073-8.305C181.258,363.523,177.644,359.805,173.186,359.805z"/>
	<circle style="fill:#525C9E;" cx="173.186" cy="368.109" r="4.582"/>
</g>
<g>
	<g>
		<polygon style="fill:#FFFFFF;" points="446.23,335.233 477.758,335.233 485.17,290.457 438.819,290.457 		"/>
		<g>
			<path style="fill:#624A5F;" d="M483.895,290.779h2.427v3.736c0,13.414-10.914,24.327-24.327,24.327s-24.327-10.914-24.327-24.327
				v-3.736h0.435v-2.29h-2.724v6.026c0,14.677,11.94,26.617,26.617,26.617c14.677,0,26.617-11.94,26.617-26.617v-6.026h-4.717
				V290.779z"/>
		</g>
	</g>
	<rect x="438.125" y="287.25" style="fill:#A7ADD0;" width="47.044" height="4.564"/>
</g>
<g>
	<rect x="324.745" y="278.533" style="fill:#FFFFFF;" width="25.71" height="13.095"/>
	<path style="fill:#A7ADD0;" d="M332.238,281.06c-2.221,0-4.021,1.8-4.021,4.021c0,2.221,1.8,4.021,4.021,4.021
		c2.221,0,4.021-1.8,4.021-4.021C336.258,282.86,334.458,281.06,332.238,281.06z"/>
	<path style="fill:#A7ADD0;" d="M343.3,281.06c-2.221,0-4.021,1.8-4.021,4.021c0,2.221,1.8,4.021,4.021,4.021
		c2.221,0,4.021-1.8,4.021-4.021C347.321,282.86,345.52,281.06,343.3,281.06z"/>
	<path style="fill:#624A5F;" d="M330.484,284.135c-0.522,0-0.946,0.423-0.946,0.946c0,0.522,0.423,0.946,0.946,0.946
		c0.522,0,0.945-0.423,0.945-0.946C331.429,284.558,331.006,284.135,330.484,284.135z"/>
	<circle style="fill:#624A5F;" cx="333.991" cy="285.081" r="0.946"/>
	<path style="fill:#624A5F;" d="M341.546,284.135c-0.522,0-0.945,0.423-0.945,0.946c0,0.522,0.423,0.946,0.945,0.946
		c0.522,0,0.946-0.423,0.946-0.946C342.492,284.558,342.068,284.135,341.546,284.135z"/>
	<path style="fill:#624A5F;" d="M345.054,284.135c-0.522,0-0.946,0.423-0.946,0.946c0,0.522,0.423,0.946,0.946,0.946
		c0.522,0,0.945-0.423,0.945-0.946C345.999,284.558,345.576,284.135,345.054,284.135z"/>
</g>
<g>
	<rect x="427.439" y="326.667" style="fill:#FFCD50;" width="30.178" height="34.973"/>
	<rect x="433.251" y="333.718" style="fill:#FFFFFF;" width="18.977" height="22.605"/>
	<rect x="435.638" y="335.466" style="fill:#624A5F;" width="14.363" height="1.724"/>
	<rect x="425.605" y="325.538" style="fill:#FFB715;" width="34.268" height="2.68"/>
	<path style="fill:#FFB715;" d="M441.717,322.812c-1.493,0-2.715,1.221-2.715,2.715v0.494c0,1.493,1.222,1.633,2.715,1.633
		c1.493,0,2.715-0.14,2.715-1.633v-0.494C444.431,324.034,443.21,322.812,441.717,322.812z"/>
	<g>
		<path style="fill:#624A5F;" d="M442.3,325.187c-0.27-0.379-0.799-0.466-1.181-0.196c-0.38,0.272-0.467,0.801-0.196,1.181
			l18.262,25.524c0.165,0.23,0.425,0.354,0.69,0.354c0.17,0,0.342-0.052,0.491-0.158c0.38-0.272,0.467-0.801,0.196-1.181
			L442.3,325.187z"/>
	</g>
</g>
<g>
	<g>
		<rect x="383.002" y="71.823" style="fill:#F47E31;" width="63.992" height="30.467"/>
		<rect x="383.002" y="96.187" style="fill:#FFCD50;" width="63.992" height="2.554"/>
		<rect x="383.002" y="76.285" style="fill:#FFCD50;" width="63.992" height="2.554"/>
		<rect x="383.002" y="90.644" style="fill:#FFFFFF;" width="63.992" height="2.554"/>
		<rect x="383.002" y="81.735" style="fill:#FFFFFF;" width="63.992" height="2.554"/>
	</g>
	<rect x="405.762" y="67.86" style="fill:#64231D;" width="18.472" height="3.963"/>
	<rect x="412.905" style="fill:#64231D;" width="4.187" height="67.86"/>
</g>
<g>
	<path style="fill:#FFFFFF;" d="M133.451,177.224h-10.155c-1.65,0-3,1.35-3,3v10.155c0,1.65,1.35,3,3,3h10.155c1.65,0,3-1.35,3-3
		v-10.155C136.451,178.574,135.102,177.224,133.451,177.224z"/>
	<path style="fill:#A7ADD0;" d="M132.387,178.918h-8.025c-1.304,0-2.371,1.067-2.371,2.371v8.025c0,1.304,1.067,2.371,2.371,2.371
		h8.025c1.304,0,2.371-1.067,2.371-2.371v-8.025C134.757,179.985,133.691,178.918,132.387,178.918z"/>
	<rect x="127.895" y="178.918" style="fill:#624A5F;" width="0.957" height="12.767"/>
</g>
<g>
	<path style="fill:#FFCD50;" d="M195.016,345.017c-3.607,0-6.531,1.268-6.531,2.833c0,1.565,2.924,2.833,6.531,2.833
		c3.607,0,6.531-1.268,6.531-2.833C201.547,346.285,198.623,345.017,195.016,345.017z"/>
	<ellipse style="fill:#FFCD50;" cx="457.617" cy="375.963" rx="6.531" ry="2.833"/>
	<path style="fill:#525C9E;" d="M348.658,334.307c-2.54,0-4.599,0.893-4.599,1.995c0,1.102,2.059,1.995,4.599,1.995
		c2.54,0,4.599-0.893,4.599-1.995C353.257,335.2,351.198,334.307,348.658,334.307z"/>
	<path style="fill:#525C9E;" d="M470.248,368.486c-2.54,0-4.599,0.893-4.599,1.995c0,1.102,2.059,1.995,4.599,1.995
		c2.54,0,4.599-0.893,4.599-1.995C474.847,369.379,472.788,368.486,470.248,368.486z"/>
	<path style="fill:#FFCD50;" d="M237.863,379.203c-2.591,0-4.691,0.911-4.691,2.035c0,1.124,2.1,2.035,4.691,2.035
		s4.691-0.911,4.691-2.035C242.554,380.114,240.453,379.203,237.863,379.203z"/>
	<path style="fill:#FFCD50;" d="M320.774,347.096c-2.283,0-4.134,0.803-4.134,1.793c0,0.991,1.851,1.794,4.134,1.794
		c2.283,0,4.134-0.803,4.134-1.794C324.908,347.899,323.057,347.096,320.774,347.096z"/>
	<path style="fill:#FFCD50;" d="M244.378,373.028c-1.884,0-3.411,0.662-3.411,1.48c0,0.817,1.527,1.479,3.411,1.479
		c1.884,0,3.411-0.662,3.411-1.479C247.789,373.69,246.262,373.028,244.378,373.028z"/>
	<path style="fill:#525C9E;" d="M210.528,346.37c-1.884,0-3.411,0.662-3.411,1.48c0,0.817,1.527,1.479,3.411,1.479
		c1.884,0,3.411-0.662,3.411-1.479C213.938,347.033,212.411,346.37,210.528,346.37z"/>
	<path style="fill:#525C9E;" d="M343.214,327.059c-1.301,0-2.356,0.458-2.356,1.022c0,0.565,1.055,1.022,2.356,1.022
		s2.356-0.458,2.356-1.022C345.57,327.517,344.515,327.059,343.214,327.059z"/>
</g>
<g>
	<path style="fill:#64231D;" d="M159.902,34.908c-2.023-1.278-3.941-2.663-5.805-4.154c2.45-3.088,5.006-6.497,5.112-10.438
		c0-0.746-0.053-1.438-0.479-2.023c-0.799-1.278-2.769-1.278-4.047-0.426c-1.225,0.852-1.917,2.29-2.556,3.622
		c-0.799-0.107-0.852-1.172-0.958-1.917c-0.373-2.343-3.515-3.674-5.432-2.343c-0.533,6.816-0.746,13.579-0.692,20.396
		c0,0.479,0,0.959,0.266,1.332c0.213,0.319,0.533,0.479,0.905,0.586c1.385,0.532,3.089,0.16,4.154-0.905
		c1.012-1.065,1.385-2.716,0.852-4.154c1.065,0.799,2.13,1.545,3.195,2.29c0.852,0.585,1.757,1.225,2.769,1.491
		c1.012,0.267,2.184,0.106,2.875-0.639C160.807,36.879,160.807,35.494,159.902,34.908z M151.861,26.601
		c-1.012-2.077,0.586-4.474,2.077-6.284c0.746-0.905,1.651-1.917,2.876-1.917c0.426,0.692,0.852,1.598,0.32,2.29
		C155.535,22.767,153.778,24.79,151.861,26.601z"/>
	<path style="fill:#64231D;" d="M174.279,34.163c-0.479-0.053-1.012,0.16-1.438,0.373c-0.799,0.426-1.598,0.852-2.396,1.225
		c-0.533,0.32-1.331,0.586-1.757,0.053c-0.213-0.213-0.267-0.585-0.267-0.958c-0.107-2.822-0.107-5.645-0.107-8.521
		c1.438,0.106,2.876-0.213,4.154-0.905c0.213-0.746-0.958-1.171-1.704-0.905c-0.746,0.32-1.598,0.799-2.29,0.426
		c-0.426-1.598-0.852-3.195-1.225-4.74c-0.319-1.278-0.426-2.982,0.746-3.408c1.225-0.479,2.769,1.012,3.834,0.266
		c0.053-1.118-1.171-1.704-2.236-2.023c-0.905-0.266-1.864-0.533-2.77-0.266c-1.97,0.479-2.609,2.982-2.876,5.059
		c-0.639,4.473-1.225,9-1.811,13.473c-0.16,1.172-0.319,2.396-0.053,3.515c0.266,1.171,1.065,2.29,2.184,2.556
		c0.798,0.213,1.597,0.053,2.343-0.16c3.036-0.799,5.964-2.183,8.521-4.047C175.291,34.695,174.759,34.216,174.279,34.163z"/>
	<path style="fill:#64231D;" d="M187.006,35.601c-1.917,0.958-4.047,1.491-6.231,1.598c-0.479-1.171-0.213-2.556-0.053-3.834
		c0.48-3.675,0.16-7.402-0.16-11.024c-0.106-1.225-0.266-2.503-1.171-3.302c-0.905-0.799-2.716-0.426-2.77,0.746
		c-0.16,4.686-0.373,9.426-0.585,14.112c-0.053,1.864,0.106,4.207,1.811,5.059c0.586,0.266,1.331,0.319,1.97,0.319
		c2.929-0.106,5.752-1.065,8.095-2.769C187.645,36.24,187.325,35.92,187.006,35.601z"/>
	<path style="fill:#64231D;" d="M199.359,16.749c-1.172,0.639-2.769-0.586-3.941,0.106c-0.373,0.266-0.586,0.639-0.799,1.065
		c-1.598,2.876-2.876,5.911-3.94,9.053c-0.959,3.036-1.704,6.391-0.48,9.266c0.373,0.852,0.852,1.598,1.598,2.13
		c2.023,1.491,5.112,0.586,6.71-1.384c1.651-1.917,2.13-4.527,2.503-7.029c0.585-3.835,0.958-7.775,0.16-11.609
		C200.957,17.441,200.211,16.323,199.359,16.749z M196.963,35.813c-0.426,0.586-1.438,0.32-1.811-0.266
		c-0.426-0.586-0.426-1.332-0.373-2.077c0.32-4.899,1.598-9.799,3.675-14.272c0.266-0.533,1.171-0.479,1.544,0
		c0.373,0.479,0.426,1.118,0.426,1.757C200.584,26.122,200.105,31.66,196.963,35.813z"/>
	<path style="fill:#64231D;" d="M216.293,15.205c-0.426,0.479-0.586,1.172-0.746,1.811c-0.852,4.154-2.13,8.254-3.728,12.195
		c-1.118-4.527-2.556-9-4.26-13.367c-0.319-0.799-1.332-1.171-2.184-1.065c-0.852,0.106-1.597,0.639-2.343,1.118
		c1.704,6.497,3.195,13.047,4.42,19.65c0.16,0.799,0.373,1.651,1.065,2.023c0.266,0.107,0.533,0.107,0.799,0.16
		c1.544,0.16,3.568-0.053,3.834-1.544c1.172-7.189,2.823-14.325,4.899-21.301C217.571,14.459,216.719,14.672,216.293,15.205z"/>
	<path style="fill:#64231D;" d="M226.623,14.672c-1.65-0.107-2.556,1.811-2.982,3.408c-1.438,5.698-2.929,11.343-4.367,17.041
		c-0.106,0.266-0.16,0.532-0.053,0.798c0.213,0.426,0.852,0.426,1.225,0.107c0.373-0.267,0.479-0.746,0.639-1.172
		c0.533-1.811,1.065-3.568,1.651-5.325c1.118,0.213,2.343-0.053,3.302-0.639c0.692,1.971,1.171,4.047,1.438,6.178
		c0.16,1.331,0.267,2.716,1.119,3.781c0.852,1.012,2.716,1.278,3.408,0.107c0.16-0.319,0.213-0.692,0.266-1.118
		c0.905-7.03-0.213-14.378-3.249-20.822C228.54,15.95,227.794,14.779,226.623,14.672z M226.037,27.399
		c-0.426,1.012-1.811,1.065-2.876,1.012c0.746-2.876,1.491-5.751,2.237-8.574c0.692,2.077,0.746,4.26,0.799,6.443
		C226.197,26.654,226.197,27.08,226.037,27.399z"/>
	<path style="fill:#64231D;" d="M235.249,17.761c-0.426,0-1.012,0.32-0.852,0.692c0.746,1.225,3.195-0.372,3.887,0.852
		c0.16,0.319,0.16,0.639,0.16,1.012c-0.267,4.58-0.533,9.16-0.799,13.793c-0.053,1.119-0.107,2.343,0.426,3.302
		c0.533,1.066,1.704,1.757,2.929,1.704c1.171-0.053,2.29-0.852,2.716-1.917c0.373-0.799,0.319-1.704,0.319-2.556
		c-0.053-4.953-0.16-9.959-1.225-14.751c-0.16-0.746,0.746-1.331,1.491-1.278c0.799,0,1.491,0.426,2.237,0.426
		c0.799,0.053,1.704-0.533,1.491-1.278C243.77,17.282,239.509,17.282,235.249,17.761z"/>
	<path style="fill:#64231D;" d="M250.053,16.962c-0.533,5.964-0.799,11.929-0.799,17.946c0,0.746,0,1.491,0.266,2.13
		c0.586,1.491,2.928,2.183,3.781,0.852c0.319-0.533,0.319-1.172,0.319-1.81c0-5.112,0-10.225,0.054-15.337
		c0-1.119-0.054-2.343-0.692-3.302C252.342,16.536,250.851,16.11,250.053,16.962z"/>
	<path style="fill:#64231D;" d="M265.069,16.749c-1.172,0.639-2.77-0.586-3.941,0.106c-0.372,0.266-0.586,0.639-0.799,1.065
		c-1.598,2.876-2.875,5.911-3.94,9.053c-0.959,3.036-1.704,6.391-0.48,9.266c0.373,0.852,0.852,1.598,1.598,2.13
		c2.023,1.491,5.112,0.586,6.71-1.384c1.651-1.917,2.13-4.527,2.503-7.029c0.586-3.835,0.959-7.775,0.16-11.609
		C266.667,17.441,265.921,16.323,265.069,16.749z M262.673,35.813c-0.427,0.586-1.438,0.32-1.811-0.266
		c-0.427-0.586-0.427-1.332-0.373-2.077c0.319-4.899,1.598-9.799,3.675-14.272c0.266-0.533,1.171-0.479,1.544,0
		c0.373,0.479,0.426,1.118,0.426,1.757C266.294,26.122,265.814,31.66,262.673,35.813z"/>
	<path style="fill:#64231D;" d="M283.546,16.376c-0.639-0.107-1.171,0.532-1.438,1.065c-1.704,3.248-1.065,7.136-1.544,10.704
		c-1.118-2.183-2.237-4.367-3.355-6.55c-1.012-1.971-2.343-4.207-4.526-4.527c-0.852-0.16-1.863,0.053-2.343,0.746
		c-0.373,0.48-0.479,1.119-0.532,1.757c-0.64,5.326-0.959,10.651-1.065,16.029c0,1.065,0,2.184,0.373,3.195
		c0.426,1.012,1.278,1.917,2.343,2.023c1.225,0.106,2.343-0.852,2.822-1.97c0.532-1.118,0.532-2.396,0.532-3.621
		c0-2.29,0-4.633-0.585-6.87c-0.214-0.799-0.32-1.917,0.479-2.13c1.225,3.462,2.503,6.976,3.729,10.491
		c0.319,0.905,0.691,1.917,1.49,2.556c0.799,0.639,2.024,0.746,2.982,0.213c0.905-0.479,1.438-1.598,1.331-2.663
		c-0.745-6.071-0.692-12.195,0.106-18.266C284.452,17.708,284.398,16.589,283.546,16.376z"/>
	<path style="fill:#64231D;" d="M291.958,17.761c-0.426,0-1.012,0.32-0.852,0.692c0.745,1.225,3.195-0.372,3.888,0.852
		c0.159,0.319,0.159,0.639,0.159,1.012c-0.266,4.58-0.532,9.16-0.799,13.793c-0.053,1.119-0.107,2.343,0.427,3.302
		c0.532,1.066,1.704,1.757,2.929,1.704c1.171-0.053,2.29-0.852,2.716-1.917c0.373-0.799,0.319-1.704,0.319-2.556
		c-0.053-4.953-0.16-9.959-1.225-14.751c-0.16-0.746,0.745-1.331,1.491-1.278c0.799,0,1.491,0.426,2.236,0.426
		c0.799,0.053,1.704-0.533,1.491-1.278C300.478,17.282,296.219,17.282,291.958,17.761z"/>
	<path style="fill:#64231D;" d="M306.762,16.962c-0.532,5.964-0.799,11.929-0.799,17.946c0,0.746,0,1.491,0.267,2.13
		c0.586,1.491,2.929,2.183,3.781,0.852c0.319-0.533,0.319-1.172,0.319-1.81c0-5.112,0-10.225,0.053-15.337
		c0-1.119-0.053-2.343-0.692-3.302C309.052,16.536,307.56,16.11,306.762,16.962z"/>
	<path style="fill:#64231D;" d="M326.305,18.719c-0.426,0.267-0.692,0.746-0.905,1.225c-1.65,3.728-3.354,7.455-5.006,11.183
		c-0.745-3.195-1.438-6.444-2.13-9.692c-0.16-0.692-0.373-1.491-0.905-2.024c-0.533-0.533-1.491-0.639-1.971-0.053
		c-1.811,6.604-3.142,13.314-3.994,20.077c1.332-0.107,1.651-1.864,1.704-3.142c0.106-3.302,0.853-6.603,2.077-9.692
		c0.106,3.248,0.213,6.55,1.598,9.426c0.586-0.267,1.225,0,1.864,0.106c0.639,0.106,1.49,0.053,1.757-0.586
		c1.598-3.781,3.248-7.615,4.899-11.396c-0.267,4.42-0.532,8.893-0.799,13.366c-0.106,1.065-0.16,2.184,0.267,3.142
		c0.426,1.012,1.491,1.811,2.503,1.544c1.544-0.319,1.863-2.29,1.863-3.835c0-5.378,0-10.757,0.054-16.082
		c0-0.958,0-1.97-0.479-2.769C328.222,18.719,327.103,18.187,326.305,18.719z"/>
	<path style="fill:#64231D;" d="M342.653,34.163c-0.479-0.053-1.012,0.16-1.439,0.373c-0.799,0.426-1.598,0.852-2.396,1.225
		c-0.532,0.32-1.331,0.586-1.757,0.053c-0.213-0.213-0.267-0.585-0.267-0.958c-0.106-2.822-0.106-5.645-0.106-8.521
		c1.438,0.106,2.876-0.213,4.154-0.905c0.213-0.746-0.959-1.171-1.704-0.905c-0.746,0.32-1.598,0.799-2.29,0.426
		c-0.427-1.598-0.853-3.195-1.225-4.74c-0.32-1.278-0.427-2.982,0.745-3.408c1.225-0.479,2.77,1.012,3.834,0.266
		c0.054-1.118-1.171-1.704-2.236-2.023c-0.905-0.266-1.864-0.533-2.77-0.266c-1.97,0.479-2.609,2.982-2.875,5.059
		c-0.64,4.473-1.226,9-1.812,13.473c-0.159,1.172-0.319,2.396-0.053,3.515c0.267,1.171,1.065,2.29,2.184,2.556
		c0.799,0.213,1.598,0.053,2.343-0.16c3.035-0.799,5.965-2.183,8.52-4.047C343.665,34.695,343.132,34.216,342.653,34.163z"/>
	<path style="fill:#64231D;" d="M346.806,39.382c-0.64-0.213-1.385-0.054-1.811,0.426c0.319,0.586,0.799,1.171,1.491,1.225
		c0.691,0.107,1.384-0.585,1.171-1.225C347.392,39.701,347.071,39.542,346.806,39.382z"/>
	<path style="fill:#64231D;" d="M348.297,12.915c-1.066-0.586-2.663-0.267-3.143,0.852c-0.159,0.373-0.213,0.746-0.213,1.119
		c-0.48,5.805-0.586,11.663-0.267,17.467c0.054,1.065,0.373,2.45,1.438,2.609c1.331,0.16,1.863-1.597,1.917-2.929
		c0.213-4.154,0.586-8.254,1.491-12.301c0.267-1.225,0.586-2.45,0.48-3.675C349.947,14.832,349.361,13.554,348.297,12.915z"/>
</g>
</svg>
