<?xml version="1.0" encoding="utf-8"?>
<!-- Generator: Adobe Illustrator 27.5.0, SVG Export Plug-In . SVG Version: 6.00 Build 0)  -->
<svg version="1.1" xmlns="http://www.w3.org/2000/svg" xmlns:xlink="http://www.w3.org/1999/xlink" x="0px" y="0px"
	 viewBox="0 0 500 500" style="enable-background:new 0 0 500 500;" xml:space="preserve">
<g id="Background">
	<rect style="fill:#7689F4;" width="500" height="500"/>
</g>
<g id="Objects">
	<g>
		<circle style="fill:#FFFFFF;" cx="250" cy="250" r="191.997"/>
		<path style="fill:#C8D0FB;" d="M106.381,377.405c35.171,39.618,86.475,64.592,143.619,64.592s108.448-24.974,143.619-64.592
			H106.381z"/>
	</g>
	<g>
		<g>
			<polygon style="fill:#E5E5E5;" points="287.112,372.484 215.095,372.484 224.202,317.917 278.005,317.917 			"/>
			<polygon style="fill:#E5E5E5;" points="287.112,372.484 219.054,338.624 278.005,317.917 			"/>
			<path style="fill:#212028;" d="M377,306V156.652c0-3.885-3.179-7.064-7.064-7.064H132.271c-3.885,0-7.064,3.179-7.064,7.064V306
				H377z"/>
			
				<rect x="189.09" y="118.696" transform="matrix(-1.836970e-16 1 -1 -1.836970e-16 479.5486 -22.6584)" style="fill:#FFFFFF;" width="124.028" height="219.499"/>
			<path style="fill:#E5E5E5;" d="M125.207,304.994v26.566c0,3.885,3.179,7.064,7.064,7.064h237.664
				c3.885,0,7.064-3.179,7.064-7.064v-26.566H125.207z"/>
			<path style="fill:#E5E5E5;" d="M300.94,377.412c-0.661-2.814-3.194-4.928-6.202-4.928h-88.636c-3.008,0-5.541,2.114-6.201,4.928
				H300.94z"/>
		</g>
		<polygon style="fill:#D3D2D4;" points="153.193,165.799 161.969,281.5 340.859,281.5 347.993,165.799 		"/>
		
			<rect x="135.714" y="76.354" transform="matrix(-1.836970e-16 1 -1 -1.836970e-16 417.2136 -85.6146)" style="fill:#FFCFC8;" width="231.401" height="178.891"/>
		
			<rect x="244.63" y="-32.562" transform="matrix(-1.836970e-16 1 -1 -1.836970e-16 308.2969 -194.5313)" style="fill:#5400FF;" width="13.568" height="178.891"/>
		
			<rect x="244.63" y="185.271" transform="matrix(-1.836970e-16 1 -1 -1.836970e-16 526.1302 23.3021)" style="fill:#5400FF;" width="13.568" height="178.891"/>
		<g>
			<path style="fill:#F4EA67;" d="M312.392,56.883c0,1.167-0.946,2.113-2.113,2.113s-2.113-0.946-2.113-2.113
				c0-1.167,0.946-2.113,2.113-2.113S312.392,55.716,312.392,56.883z"/>
			<path style="fill:#E79F00;" d="M323.559,56.883c0,1.167-0.946,2.113-2.113,2.113c-1.167,0-2.113-0.946-2.113-2.113
				c0-1.167,0.946-2.113,2.113-2.113C322.613,54.77,323.559,55.716,323.559,56.883z"/>
			<path style="fill:#FC6A33;" d="M334.725,56.883c0,1.167-0.946,2.113-2.113,2.113c-1.167,0-2.113-0.946-2.113-2.113
				c0-1.167,0.946-2.113,2.113-2.113C333.779,54.77,334.725,55.716,334.725,56.883z"/>
		</g>
		<g>
			<rect x="252.619" y="201.361" style="fill:#5400FF;" width="68.985" height="55.391"/>
			<rect x="251.074" y="250.351" style="fill:#7689F4;" width="72.076" height="6.939"/>
			<rect x="251.074" y="199.6" style="fill:#7689F4;" width="72.076" height="6.938"/>
			<g>
				<path style="fill:#F15A24;" d="M298.3,236.706h-22.412c-0.993,0-1.805-0.812-1.805-1.805v-13.64
					c0-0.993,0.812-1.805,1.805-1.805H298.3c0.993,0,1.805,0.812,1.805,1.805v13.64C300.106,235.894,299.293,236.706,298.3,236.706z
					"/>
				<path style="fill:#FFFFFF;" d="M291.751,227.508l-6.621-3.823c-0.441-0.254-0.992,0.064-0.992,0.572v7.646
					c0,0.509,0.551,0.827,0.992,0.572l6.621-3.823C292.192,228.399,292.192,227.763,291.751,227.508l-6.621-3.823
					c-0.441-0.254-0.992,0.064-0.992,0.572v7.646c0,0.509,0.551,0.827,0.992,0.572l6.621-3.823
					C292.192,228.399,292.192,227.763,291.751,227.508z"/>
			</g>
		</g>
		<rect x="183.416" y="78.667" style="fill:#7689F4;" width="138.188" height="39.333"/>
		<g>
			<rect x="251.849" y="127" style="fill:#FFFFFF;" width="70.526" height="9.461"/>
			<g>
				
					<line style="fill:none;stroke:#FFFFFF;stroke-width:2;stroke-miterlimit:10;" x1="251.849" y1="143.839" x2="322.375" y2="143.839"/>
				
					<line style="fill:none;stroke:#FFFFFF;stroke-width:2;stroke-miterlimit:10;" x1="251.849" y1="152.764" x2="322.375" y2="152.764"/>
				
					<line style="fill:none;stroke:#FFFFFF;stroke-width:2;stroke-miterlimit:10;" x1="251.849" y1="161.69" x2="322.375" y2="161.69"/>
				
					<line style="fill:none;stroke:#FFFFFF;stroke-width:2;stroke-miterlimit:10;" x1="251.849" y1="170.615" x2="322.375" y2="170.615"/>
				
					<line style="fill:none;stroke:#FFFFFF;stroke-width:2;stroke-miterlimit:10;" x1="251.849" y1="179.541" x2="322.375" y2="179.541"/>
				
					<line style="fill:none;stroke:#FFFFFF;stroke-width:2;stroke-miterlimit:10;" x1="251.849" y1="188.466" x2="322.375" y2="188.466"/>
			</g>
		</g>
		<g>
			<rect x="183.462" y="135.899" style="fill:#FE8876;" width="55.702" height="55.581"/>
			<g>
				
					<line style="fill:none;stroke:#FFFFFF;stroke-width:4;stroke-miterlimit:10;" x1="190.318" y1="142.695" x2="232.308" y2="184.684"/>
				
					<line style="fill:none;stroke:#FFFFFF;stroke-width:4;stroke-miterlimit:10;" x1="232.308" y1="142.695" x2="190.318" y2="184.684"/>
			</g>
		</g>
		<g>
			<g>
				
					<rect x="214.389" y="202.606" transform="matrix(-1.836970e-16 1 -1 -1.836970e-16 439.8756 -11.7826)" style="fill:#FFFFFF;" width="22.881" height="22.881"/>
				
					<rect x="214.389" y="230.675" transform="matrix(-1.836970e-16 1 -1 -1.836970e-16 467.9443 16.2861)" style="fill:#7689F4;" width="22.881" height="22.881"/>
			</g>
			<g>
				
					<rect x="185.356" y="202.606" transform="matrix(-1.836970e-16 1 -1 -1.836970e-16 410.8431 17.2499)" style="fill:#FFFFFF;" width="22.881" height="22.881"/>
				
					<rect x="185.356" y="230.675" transform="matrix(-1.836970e-16 1 -1 -1.836970e-16 438.9118 45.3186)" style="fill:#7689F4;" width="22.881" height="22.881"/>
			</g>
		</g>
		<circle style="fill:#FFFFFF;" cx="250.593" cy="320" r="5.75"/>
		<rect x="183.462" y="126" style="fill:#7689F4;" width="55.702" height="5"/>
		<path style="fill:#212028;" d="M152.208,216.167c0,0.438-0.355,0.792-0.792,0.792c-0.438,0-0.792-0.355-0.792-0.792
			c0-0.438,0.355-0.792,0.792-0.792C151.853,215.374,152.208,215.729,152.208,216.167z"/>
		<path style="fill:#212028;" d="M160.583,215.374c0,0.438-0.355,0.792-0.792,0.792c-0.438,0-0.792-0.355-0.792-0.792
			c0-0.438,0.355-0.792,0.792-0.792C160.229,214.582,160.583,214.937,160.583,215.374z"/>
		<path style="fill:none;stroke:#FE8876;stroke-width:0.75;stroke-linecap:round;stroke-linejoin:round;stroke-miterlimit:10;" d="
			M155.421,213.226c0,0,0.579,7.191,2.579,9.358c0,0-1.958,1.875-3.917,0.875"/>
		<path style="fill:#FFFFFF;" d="M151.829,227.332c-0.006,0.084-0.025,0.164-0.025,0.249c0,1.875,1.52,3.394,3.394,3.394
			s3.394-1.52,3.394-3.394c0-0.085-0.019-0.166-0.025-0.249H151.829z"/>
		<line style="fill:none;stroke:#FFFFFF;stroke-width:4;stroke-miterlimit:10;" x1="192.333" y1="97" x2="310.279" y2="97"/>
	</g>
	<g>
		<g>
			<path style="fill:none;stroke:#5400FF;stroke-width:2;stroke-miterlimit:10;stroke-dasharray:4,5;" d="M73.492,89.03
				c0,0-42.736,5.479-37.992,35.408c4.744,29.929,62.662,21.341,59.749,4.972c-2.913-16.369-53.528-2.762-49.149,21.843
				s41.841,25.514,54.983,10.936c13.141-14.578-27.129-17.593-37.264-3.07c-10.134,14.523,0.444,61.436,39.423,54.499"/>
			<g>
				<polygon style="fill:#5400FF;" points="76.772,89.966 80.011,103.487 106.381,82.162 				"/>
				<polygon style="fill:#5400FF;" points="76.152,87.038 73.628,73.365 106.381,82.162 				"/>
			</g>
		</g>
		<g>
			<path style="fill:none;stroke:#5400FF;stroke-width:2;stroke-miterlimit:10;stroke-dasharray:4,5;" d="M427.784,280.414
				c0,0,40.652,14.275,29.769,42.555c-10.884,28.28-65.736,7.798-59.472-7.603c6.264-15.401,52.926,8.466,43.51,31.616
				c-9.416,23.15-46.243,16.223-56.054-0.776c-9.811-16.999,30.203-11.546,37.084,4.772c6.882,16.318-13.251,59.992-49.926,45.074"
				/>
			<g>
				<polygon style="fill:#5400FF;" points="424.381,280.645 418.393,293.193 397.051,266.835 				"/>
				<polygon style="fill:#5400FF;" points="425.598,277.911 430.919,265.066 397.051,266.835 				"/>
			</g>
		</g>
	</g>
	<g>
		<g>
			<path style="fill:#E65869;" d="M250.956,258.845l-2.095,1.768c-2.943,2.482-7.382,2.106-9.864-0.837l-19.022-22.548
				c-2.482-2.943-2.106-7.382,0.837-9.864l2.095-1.767c2.943-2.483,7.382-2.106,9.864,0.837l19.022,22.548
				C254.275,251.923,253.899,256.362,250.956,258.845z"/>
			<path style="fill:#DCAB7C;" d="M173.997,158.359l-11.224,9.469c-0.501,0.422-1.263,0.275-1.57-0.304l-16.276-30.679
				c-0.518-0.976,0.66-1.97,1.535-1.295l27.5,21.21C174.481,157.16,174.498,157.937,173.997,158.359z"/>
			<path style="fill:#212028;" d="M152.027,139.842l-5.565-4.292c-0.875-0.675-2.053,0.319-1.535,1.295l3.293,6.208L152.027,139.842
				z"/>
			
				<rect x="193.705" y="145.566" transform="matrix(0.7643 -0.6448 0.6448 0.7643 -83.9383 179.209)" style="fill:#FFCE00;" width="19" height="117.749"/>
			
				<rect x="194.825" y="148.628" transform="matrix(0.7643 -0.6448 0.6448 0.7643 -86.7688 177.5885)" style="fill:#E79F00;" width="9.5" height="117.749"/>
		</g>
		<g>
			<rect x="150.111" y="229.97" style="fill:#FFB0B2;" width="5.971" height="16.75"/>
			<path style="fill:#FFB0B2;" d="M190.835,205.209c0,0,0.345-2.204,0.169-6.049c-0.074-1.622,0.573-3.15,1.633-4.38
				c3.049-3.538,7.081-9.396,9.349-8.309c2.03,0.973,5.955,4.508,5,6.875c-0.955,2.367-13.561,15.38-13.561,15.38L190.835,205.209z"
				/>
			<path style="fill:#FFB0B2;" d="M157.593,203.347c5.017,4.748,8.891,16.03,4.509,24.684c-4.536,8.955-10.453,11.112-17.324,3.175
				c-6.871-7.938-7.772-21.995-2.835-27.112C146.88,198.976,153.294,199.279,157.593,203.347z"/>
			
				<rect x="121.203" y="356.854" transform="matrix(-0.9654 -0.2606 0.2606 -0.9654 148.8264 744.7731)" style="fill:#FFC3BF;" width="5.167" height="11.333"/>
			<path style="fill:#8B2288;" d="M125.298,366.834l-0.494,1.83c0,0,10.423-0.639,14.53,8.367l-22.085-5.961
				c0,0,0.847-3.138,3.061-5.583L125.298,366.834z"/>
			
				<rect x="157.822" y="365.123" transform="matrix(-1 -1.224647e-16 1.224647e-16 -1 320.8099 741.5794)" style="fill:#FFC3BF;" width="5.167" height="11.333"/>
			<path style="fill:#B84E68;" d="M147.366,239.027c4.604,3.881-10.548,31.983-12.354,36.809c0,0,12.304,8.899,16.198,14.329
				l-2.213,4.216c0,0-14.358-7.615-20.797-13.549C121.761,274.896,136.949,230.247,147.366,239.027z"/>
			<path style="fill:#5400FF;" d="M161.691,294.549c0.082,0.786-6.976,31.486-11.991,34.472c-5.015,2.986-23.488,35.51-23.488,35.51
				l-5.675-1.257c0,0,1.075-18.711,17.794-40.868l9.202-30.993L161.691,294.549z"/>
			<path style="fill:#F5688A;" d="M197.427,205.564c0,0-15.2,27.465-20.04,34.234c-4.84,6.769-12.951,13.878-17.834,11.384
				c-4.883-2.494,10.209-18.922,14.424-24.621c4.544-6.143,16-25.83,16-25.83L197.427,205.564z"/>
			<path style="fill:#F5688A;" d="M172.341,245.696c0,0-5.888,21.398-6.451,39.432h-25.628c0,0-4.299-39.896-0.893-44.421
				c6.656-8.845,19.309,7.496,31.305-7.536L172.341,245.696z"/>
			<path style="fill:#7689F4;" d="M166.378,281.222l-3.25,87.5h-6.25c0,0-8.394-16.74-4.75-42.25c0.25-1.75-13.25-17.75-12.5-45.25
				H166.378z"/>
		</g>
		<path style="fill:#8B2288;" d="M162.988,371.988v1.896c0,0,9.896-3.333,16.208,4.292h-22.875c0,0,0-3.25,1.5-6.188H162.988z"/>
		<path style="fill:#5400FF;" d="M139.892,220.845c0,0-5.657-3.475-6.087-12.12c-0.43-8.645,2.131-10.679,5.852-9.577
			c3.801,1.125,14.75-1.926,18.187-5.199c1.494-1.423,4.644-2.15,6.166-0.757c0.879,0.805,2.044,2.48,2.456,4.339
			c2.205,9.971-3.671,11.194-10.384,11.194c-5.715,0-12.686-2.774-13.624-1.939C141.519,207.622,139.892,220.845,139.892,220.845z"
			/>
		<path style="fill:#FFB0B2;" d="M143.042,219.831c0,1.778-1.441,3.22-3.22,3.22c-1.778,0-3.22-1.442-3.22-3.22
			c0-1.778,1.441-3.22,3.22-3.22C141.601,216.611,143.042,218.053,143.042,219.831z"/>
	</g>
	
		<text transform="matrix(1 0 0 1 180.8462 409.0889)" style="fill:#5967B7; font-family:'Montserrat-Bold'; font-size:17.0562px; letter-spacing:2;">WEB DESIGN</text>
</g>
<g id="Designed_by_freepik">
	<g>
		<g id="XMLID_97_">
			<path id="XMLID_118_" style="fill:#FFFFFF;" d="M180.04,469.689c-0.245,0-0.433,0.085-0.563,0.254
				c-0.134,0.169-0.199,0.419-0.199,0.75v2.383c-0.303-0.33-0.614-0.576-0.934-0.736c-0.319-0.158-0.712-0.239-1.177-0.239
				c-0.804,0-1.452,0.282-1.944,0.846c-0.492,0.563-0.739,1.35-0.739,2.359c0,0.477,0.063,0.919,0.186,1.33
				c0.124,0.41,0.306,0.767,0.547,1.069c0.24,0.304,0.524,0.537,0.854,0.701c0.329,0.163,0.688,0.245,1.074,0.245
				c0.292,0,0.561-0.04,0.806-0.122c0.247-0.08,0.476-0.198,0.686-0.354c0.211-0.155,0.424-0.357,0.641-0.605v0.159
				c0,0.296,0.072,0.523,0.217,0.684c0.144,0.159,0.325,0.239,0.546,0.239c0.225,0,0.408-0.077,0.551-0.23
				c0.143-0.154,0.212-0.385,0.212-0.692v-7.118c0-0.304-0.065-0.532-0.197-0.688C180.473,469.767,180.284,469.689,180.04,469.689z
				 M178.979,476.503c-0.141,0.305-0.327,0.531-0.561,0.68c-0.234,0.147-0.494,0.221-0.778,0.221c-0.279,0-0.537-0.078-0.775-0.235
				c-0.236-0.154-0.422-0.386-0.559-0.693c-0.135-0.308-0.203-0.68-0.203-1.117c0-0.413,0.064-0.777,0.192-1.092
				c0.127-0.313,0.308-0.553,0.54-0.721c0.232-0.167,0.497-0.251,0.793-0.251c0.283,0,0.545,0.082,0.783,0.244
				c0.238,0.165,0.427,0.401,0.567,0.71c0.141,0.309,0.21,0.68,0.21,1.109C179.189,475.814,179.12,476.197,178.979,476.503z"/>
			<path id="XMLID_115_" style="fill:#FFFFFF;" d="M187.377,475.586c0.231-0.121,0.348-0.383,0.348-0.79
				c0-0.436-0.112-0.866-0.336-1.289c-0.225-0.421-0.563-0.765-1.015-1.03c-0.451-0.267-0.992-0.398-1.622-0.398
				c-0.485,0-0.927,0.077-1.324,0.232c-0.398,0.156-0.733,0.38-1.006,0.672c-0.271,0.291-0.478,0.641-0.621,1.049
				c-0.142,0.408-0.212,0.85-0.212,1.327c0,1.013,0.288,1.816,0.863,2.405c0.574,0.591,1.381,0.888,2.418,0.888
				c0.453,0,0.854-0.06,1.202-0.178c0.351-0.119,0.638-0.267,0.869-0.446c0.232-0.18,0.403-0.366,0.518-0.563
				c0.114-0.195,0.172-0.364,0.172-0.511c0-0.166-0.052-0.293-0.155-0.385c-0.102-0.09-0.235-0.136-0.4-0.136
				c-0.153,0-0.273,0.035-0.355,0.107c-0.202,0.189-0.364,0.339-0.49,0.449c-0.126,0.111-0.265,0.215-0.414,0.311
				c-0.149,0.098-0.304,0.166-0.464,0.213c-0.159,0.044-0.336,0.067-0.529,0.067c-0.288,0-0.551-0.07-0.789-0.212
				c-0.238-0.143-0.43-0.353-0.573-0.634c-0.145-0.279-0.219-0.603-0.222-0.97h3.156
				C186.816,475.766,187.145,475.706,187.377,475.586z M183.238,474.85c0.055-0.545,0.212-0.956,0.471-1.233
				c0.258-0.279,0.587-0.416,0.99-0.416c0.421,0,0.76,0.136,1.019,0.409c0.258,0.274,0.408,0.688,0.447,1.24H183.238z"/>
			<path id="XMLID_114_" style="fill:#FFFFFF;" d="M192.782,475.151c-0.318-0.17-0.727-0.315-1.227-0.438
				c-0.422-0.103-0.753-0.19-0.993-0.26c-0.241-0.07-0.432-0.161-0.574-0.27c-0.142-0.108-0.212-0.246-0.212-0.417
				c0-0.185,0.097-0.34,0.289-0.463c0.193-0.125,0.436-0.187,0.728-0.187c0.284,0,0.509,0.047,0.674,0.141
				c0.166,0.096,0.31,0.223,0.431,0.38c0.151,0.189,0.283,0.33,0.4,0.424c0.115,0.096,0.257,0.144,0.422,0.144
				c0.229,0,0.406-0.061,0.529-0.178c0.124-0.118,0.186-0.271,0.186-0.455c0-0.17-0.058-0.343-0.174-0.521
				c-0.116-0.177-0.285-0.338-0.509-0.483c-0.222-0.145-0.5-0.264-0.834-0.349c-0.331-0.088-0.707-0.131-1.125-0.131
				c-0.533,0-0.986,0.085-1.362,0.258c-0.376,0.171-0.662,0.401-0.854,0.688c-0.193,0.288-0.29,0.595-0.29,0.917
				c0,0.362,0.104,0.668,0.313,0.917c0.209,0.248,0.487,0.448,0.836,0.6c0.35,0.151,0.801,0.296,1.357,0.434
				c0.492,0.119,0.846,0.243,1.061,0.373c0.215,0.131,0.321,0.337,0.321,0.62c0,0.185-0.103,0.35-0.31,0.495
				c-0.207,0.143-0.472,0.215-0.795,0.215c-0.399,0-0.712-0.07-0.943-0.212c-0.23-0.143-0.43-0.357-0.595-0.646
				c-0.082-0.148-0.169-0.266-0.261-0.349c-0.091-0.082-0.22-0.124-0.388-0.124c-0.194,0-0.355,0.063-0.48,0.189
				c-0.128,0.126-0.19,0.277-0.19,0.455c0,0.268,0.099,0.535,0.296,0.801c0.196,0.266,0.503,0.487,0.916,0.665
				c0.414,0.178,0.911,0.266,1.489,0.266c0.607,0,1.123-0.082,1.547-0.245c0.423-0.164,0.744-0.404,0.96-0.722
				c0.218-0.317,0.325-0.699,0.325-1.145c0-0.296-0.081-0.559-0.244-0.789C193.34,475.52,193.099,475.32,192.782,475.151z"/>
			<path id="XMLID_113_" style="fill:#FFFFFF;" d="M195.379,472.089c-0.237,0-0.429,0.081-0.575,0.242
				c-0.149,0.162-0.222,0.403-0.222,0.721v4.618c0,0.314,0.072,0.557,0.222,0.728c0.146,0.169,0.338,0.254,0.575,0.254
				c0.237,0,0.433-0.083,0.586-0.248c0.153-0.166,0.23-0.411,0.23-0.733v-4.665c0-0.286-0.077-0.512-0.23-0.674
				C195.811,472.17,195.616,472.089,195.379,472.089z"/>
			<path id="XMLID_112_" style="fill:#FFFFFF;" d="M195.396,469.76c-0.216,0-0.406,0.072-0.569,0.222
				c-0.164,0.148-0.245,0.335-0.245,0.564c0,0.253,0.079,0.448,0.239,0.586c0.159,0.137,0.352,0.207,0.575,0.207
				c0.217,0,0.405-0.07,0.563-0.211c0.156-0.139,0.236-0.334,0.236-0.582c0-0.257-0.081-0.451-0.242-0.585
				C195.792,469.826,195.606,469.76,195.396,469.76z"/>
			<path id="XMLID_109_" style="fill:#FFFFFF;" d="M202.491,472.089c-0.217,0-0.395,0.077-0.532,0.23
				c-0.139,0.154-0.207,0.371-0.207,0.65v0.22c-0.287-0.375-0.6-0.649-0.935-0.826c-0.335-0.174-0.732-0.263-1.189-0.263
				c-0.382,0-0.732,0.068-1.052,0.203c-0.319,0.138-0.602,0.339-0.846,0.607c-0.243,0.268-0.432,0.596-0.564,0.987
				c-0.132,0.39-0.198,0.828-0.198,1.313c0,0.65,0.109,1.223,0.326,1.721c0.216,0.496,0.526,0.882,0.931,1.158
				c0.404,0.275,0.875,0.413,1.416,0.413c0.447,0,0.836-0.09,1.16-0.271c0.326-0.181,0.612-0.445,0.861-0.793
				c-0.008,0.528-0.02,0.912-0.035,1.15c-0.016,0.239-0.07,0.463-0.163,0.671c-0.093,0.208-0.254,0.372-0.484,0.487
				c-0.23,0.117-0.555,0.176-0.973,0.176c-0.204,0-0.387-0.02-0.544-0.057c-0.158-0.038-0.293-0.095-0.404-0.171
				c-0.112-0.077-0.216-0.17-0.309-0.278c-0.093-0.109-0.182-0.217-0.269-0.322c-0.177-0.209-0.385-0.314-0.621-0.314
				c-0.188,0-0.351,0.061-0.484,0.186c-0.134,0.123-0.201,0.283-0.201,0.48c0,0.261,0.119,0.514,0.355,0.761
				c0.237,0.246,0.573,0.447,1.01,0.603c0.438,0.154,0.936,0.233,1.49,0.233c0.606,0,1.114-0.061,1.522-0.183
				c0.407-0.122,0.737-0.309,0.99-0.561c0.251-0.253,0.436-0.572,0.549-0.957c0.115-0.388,0.173-0.849,0.173-1.385v-4.688
				c0-0.382-0.052-0.675-0.155-0.878C203.01,472.191,202.802,472.089,202.491,472.089z M201.469,476.437
				c-0.151,0.289-0.345,0.506-0.584,0.65c-0.238,0.143-0.491,0.216-0.759,0.216c-0.453,0-0.822-0.167-1.108-0.503
				c-0.286-0.335-0.429-0.831-0.429-1.484c0-0.646,0.139-1.145,0.417-1.495c0.278-0.35,0.646-0.526,1.108-0.526
				c0.473,0,0.855,0.184,1.145,0.551c0.289,0.366,0.434,0.879,0.434,1.536C201.692,475.796,201.617,476.147,201.469,476.437z"/>
			<path id="XMLID_108_" style="fill:#FFFFFF;" d="M209.814,473.152c-0.165-0.338-0.416-0.6-0.751-0.785
				c-0.335-0.185-0.715-0.278-1.141-0.278c-0.439,0-0.824,0.088-1.162,0.263c-0.337,0.176-0.647,0.45-0.931,0.825v-0.194
				c0-0.193-0.034-0.358-0.103-0.491c-0.07-0.134-0.162-0.234-0.275-0.301c-0.114-0.068-0.242-0.102-0.386-0.102
				c-0.232,0-0.415,0.076-0.55,0.228c-0.134,0.152-0.2,0.382-0.2,0.689v4.665c0,0.314,0.076,0.557,0.225,0.728
				c0.15,0.169,0.341,0.254,0.574,0.254c0.24,0,0.437-0.082,0.589-0.245c0.15-0.164,0.227-0.41,0.227-0.736v-2.022
				c0-0.658,0.04-1.107,0.118-1.348c0.11-0.299,0.283-0.535,0.52-0.707c0.235-0.171,0.498-0.257,0.785-0.257
				c0.442,0,0.736,0.143,0.884,0.423c0.148,0.281,0.223,0.689,0.223,1.221v2.69c0,0.314,0.073,0.557,0.226,0.728
				c0.149,0.169,0.344,0.254,0.584,0.254c0.236,0,0.43-0.083,0.576-0.248c0.148-0.166,0.223-0.411,0.223-0.733v-3.004
				c0-0.355-0.017-0.646-0.049-0.875C209.989,473.563,209.922,473.349,209.814,473.152z"/>
			<path id="XMLID_105_" style="fill:#FFFFFF;" d="M216.631,475.586c0.232-0.121,0.349-0.383,0.349-0.79
				c0-0.436-0.112-0.866-0.337-1.289c-0.226-0.421-0.563-0.765-1.015-1.03c-0.452-0.267-0.992-0.398-1.623-0.398
				c-0.484,0-0.926,0.077-1.323,0.232c-0.398,0.156-0.733,0.38-1.005,0.672c-0.272,0.291-0.479,0.641-0.621,1.049
				s-0.213,0.85-0.213,1.327c0,1.013,0.288,1.816,0.862,2.405c0.576,0.591,1.382,0.888,2.419,0.888c0.453,0,0.854-0.06,1.203-0.178
				c0.349-0.119,0.637-0.267,0.868-0.446c0.23-0.18,0.403-0.366,0.518-0.563c0.114-0.195,0.172-0.364,0.172-0.511
				c0-0.166-0.051-0.293-0.154-0.385c-0.102-0.09-0.236-0.136-0.401-0.136c-0.154,0-0.273,0.035-0.356,0.107
				c-0.2,0.189-0.364,0.339-0.49,0.449c-0.126,0.111-0.265,0.215-0.413,0.311c-0.151,0.098-0.306,0.166-0.464,0.213
				c-0.161,0.044-0.337,0.067-0.53,0.067c-0.287,0-0.551-0.07-0.789-0.212c-0.238-0.143-0.429-0.353-0.573-0.634
				c-0.145-0.279-0.218-0.603-0.223-0.97h3.158C216.071,475.766,216.397,475.706,216.631,475.586z M212.491,474.85
				c0.057-0.545,0.212-0.956,0.47-1.233c0.258-0.279,0.589-0.416,0.991-0.416c0.422,0,0.761,0.136,1.02,0.409
				c0.258,0.274,0.408,0.688,0.446,1.24H212.491z"/>
			<path id="XMLID_102_" style="fill:#FFFFFF;" d="M222.991,469.689c-0.245,0-0.434,0.085-0.565,0.254
				c-0.131,0.169-0.198,0.419-0.198,0.75v2.383c-0.303-0.33-0.614-0.576-0.933-0.736c-0.318-0.158-0.711-0.239-1.177-0.239
				c-0.804,0-1.452,0.282-1.945,0.846c-0.492,0.563-0.738,1.35-0.738,2.359c0,0.477,0.062,0.919,0.187,1.33
				c0.124,0.41,0.306,0.767,0.546,1.069c0.241,0.304,0.525,0.537,0.854,0.701c0.329,0.163,0.687,0.245,1.074,0.245
				c0.291,0,0.56-0.04,0.806-0.122c0.246-0.08,0.474-0.198,0.687-0.354c0.21-0.155,0.424-0.357,0.641-0.605v0.159
				c0,0.296,0.072,0.523,0.216,0.684c0.145,0.159,0.326,0.239,0.548,0.239c0.225,0,0.407-0.077,0.549-0.23
				c0.142-0.154,0.213-0.385,0.213-0.692v-7.118c0-0.304-0.065-0.532-0.197-0.688C223.423,469.767,223.235,469.689,222.991,469.689z
				 M221.929,476.503c-0.139,0.305-0.327,0.531-0.562,0.68c-0.234,0.147-0.493,0.221-0.776,0.221c-0.28,0-0.538-0.078-0.774-0.235
				c-0.236-0.154-0.424-0.386-0.559-0.693c-0.137-0.308-0.204-0.68-0.204-1.117c0-0.413,0.063-0.777,0.191-1.092
				c0.128-0.313,0.309-0.553,0.541-0.721c0.233-0.167,0.497-0.251,0.793-0.251c0.282,0,0.544,0.082,0.782,0.244
				c0.238,0.165,0.429,0.401,0.567,0.71c0.141,0.309,0.21,0.68,0.21,1.109C222.139,475.814,222.069,476.197,221.929,476.503z"/>
			<path id="XMLID_99_" style="fill:#FFFFFF;" d="M232.333,472.482c-0.404-0.254-0.873-0.382-1.41-0.382
				c-0.465,0-0.857,0.084-1.17,0.251c-0.316,0.167-0.626,0.409-0.93,0.725v-2.466c0-0.296-0.066-0.523-0.2-0.683
				c-0.134-0.158-0.325-0.238-0.574-0.238c-0.235,0-0.42,0.084-0.552,0.251c-0.133,0.167-0.198,0.414-0.198,0.741v7.047
				c0,0.304,0.067,0.533,0.204,0.69c0.136,0.155,0.318,0.232,0.546,0.232c0.226,0,0.411-0.077,0.557-0.232
				c0.146-0.157,0.218-0.387,0.218-0.69v-0.159c0.178,0.204,0.321,0.359,0.43,0.461c0.108,0.104,0.24,0.202,0.394,0.299
				c0.153,0.098,0.339,0.174,0.559,0.233c0.218,0.06,0.451,0.089,0.7,0.089c0.405,0,0.778-0.082,1.114-0.245
				c0.337-0.164,0.623-0.396,0.86-0.696c0.236-0.298,0.416-0.652,0.541-1.06c0.124-0.409,0.186-0.856,0.186-1.345
				c0-0.662-0.112-1.236-0.335-1.718C233.049,473.105,232.736,472.737,232.333,472.482z M231.547,476.875
				c-0.294,0.353-0.644,0.529-1.049,0.529c-0.479,0-0.863-0.174-1.157-0.518c-0.294-0.345-0.439-0.838-0.439-1.48
				c0-0.438,0.068-0.815,0.206-1.132c0.139-0.317,0.327-0.56,0.568-0.728c0.239-0.167,0.514-0.251,0.822-0.251
				c0.298,0,0.561,0.084,0.786,0.251c0.224,0.168,0.397,0.405,0.52,0.713c0.123,0.307,0.184,0.675,0.184,1.1
				C231.987,476.016,231.839,476.521,231.547,476.875z"/>
			<path id="XMLID_98_" style="fill:#FFFFFF;" d="M239.248,472.186c-0.111-0.066-0.229-0.098-0.352-0.098
				c-0.17,0-0.301,0.029-0.393,0.09c-0.092,0.058-0.18,0.172-0.264,0.342c-0.082,0.17-0.174,0.405-0.277,0.703l-1.295,3.695
				l-1.365-3.973c-0.091-0.276-0.194-0.487-0.313-0.636c-0.118-0.147-0.294-0.222-0.527-0.222c-0.134,0-0.262,0.035-0.387,0.108
				c-0.124,0.069-0.222,0.165-0.293,0.284c-0.07,0.116-0.105,0.245-0.105,0.383c0,0.131,0.06,0.34,0.183,0.627l1.985,5.001
				l-0.146,0.361c-0.11,0.264-0.208,0.464-0.292,0.598c-0.086,0.139-0.182,0.234-0.287,0.288c-0.106,0.056-0.253,0.084-0.438,0.084
				c-0.074,0-0.163-0.013-0.265-0.036c-0.083-0.024-0.168-0.036-0.255-0.036c-0.22,0-0.388,0.051-0.499,0.151
				c-0.113,0.1-0.169,0.244-0.169,0.429c0,0.272,0.118,0.459,0.354,0.563c0.236,0.102,0.592,0.152,1.065,0.152
				c0.484,0,0.868-0.073,1.155-0.222c0.285-0.147,0.516-0.36,0.688-0.636c0.174-0.275,0.352-0.656,0.533-1.141l2.105-5.51
				c0.051-0.142,0.094-0.282,0.129-0.419c0.037-0.139,0.061-0.245,0.078-0.32c0-0.122-0.031-0.238-0.092-0.348
				C239.447,472.339,239.361,472.252,239.248,472.186z"/>
		</g>
		<g id="XMLID_61_">
			<g id="XMLID_76_">
				<path id="XMLID_96_" style="fill:#FFFFFF;" d="M261.564,469.684c-0.531,0-0.949,0.068-1.255,0.203
					c-0.307,0.137-0.525,0.353-0.652,0.649c-0.129,0.3-0.191,0.7-0.191,1.207v0.485h-0.385c-0.541,0-0.811,0.19-0.811,0.579
					c0,0.174,0.065,0.315,0.195,0.422c0.131,0.11,0.314,0.163,0.557,0.163h0.443v4.277c0,0.316,0.074,0.56,0.227,0.727
					c0.154,0.169,0.344,0.253,0.572,0.253c0.242,0,0.436-0.084,0.587-0.253c0.154-0.167,0.23-0.41,0.23-0.727v-4.277h0.393
					c0.291,0,0.516-0.035,0.678-0.108c0.166-0.07,0.244-0.239,0.244-0.501c0-0.371-0.305-0.556-0.922-0.556h-0.393v-0.386
					c0-0.32,0.043-0.565,0.121-0.736c0.086-0.171,0.271-0.259,0.563-0.259c0.107,0,0.24,0.014,0.389,0.034
					c0.154,0.026,0.266,0.038,0.328,0.038c0.135,0,0.252-0.055,0.348-0.159c0.1-0.108,0.148-0.235,0.148-0.384
					C262.978,469.913,262.509,469.684,261.564,469.684z"/>
				<path id="XMLID_95_" style="fill:#FFFFFF;" d="M266.702,472.34c-0.318-0.17-0.645-0.254-0.986-0.254
					c-0.34,0-0.607,0.084-0.814,0.254c-0.201,0.17-0.398,0.419-0.59,0.752c-0.014-0.333-0.08-0.582-0.199-0.752
					c-0.117-0.17-0.311-0.254-0.58-0.254c-0.523,0-0.785,0.363-0.785,1.089v4.496c0,0.321,0.078,0.566,0.225,0.729
					c0.148,0.168,0.34,0.25,0.578,0.25c0.234,0,0.43-0.081,0.582-0.246c0.15-0.163,0.232-0.409,0.232-0.733v-1.351
					c0-0.484,0.014-0.896,0.045-1.233c0.033-0.336,0.09-0.628,0.17-0.874c0.084-0.242,0.201-0.424,0.352-0.552
					c0.148-0.122,0.344-0.184,0.58-0.184c0.17,0,0.371,0.035,0.598,0.106c0.227,0.073,0.371,0.112,0.434,0.112
					c0.156,0,0.301-0.064,0.438-0.194c0.135-0.125,0.203-0.29,0.203-0.486C267.183,472.736,267.024,472.51,266.702,472.34z"/>
				<path id="XMLID_92_" style="fill:#FFFFFF;" d="M272.765,475.584c0.232-0.121,0.35-0.383,0.35-0.788
					c0-0.438-0.111-0.866-0.338-1.291c-0.221-0.421-0.563-0.766-1.014-1.028c-0.451-0.269-0.992-0.402-1.621-0.402
					c-0.486,0-0.928,0.078-1.324,0.231c-0.4,0.157-0.732,0.38-1.004,0.673c-0.273,0.293-0.482,0.641-0.621,1.05
					c-0.145,0.409-0.217,0.852-0.217,1.328c0,1.013,0.291,1.816,0.865,2.408c0.574,0.591,1.381,0.886,2.42,0.886
					c0.451,0,0.854-0.06,1.201-0.179c0.348-0.116,0.637-0.268,0.871-0.444c0.23-0.181,0.402-0.366,0.519-0.565
					c0.111-0.193,0.166-0.363,0.166-0.509c0-0.167-0.047-0.293-0.152-0.385c-0.103-0.093-0.236-0.138-0.402-0.138
					c-0.152,0-0.27,0.037-0.355,0.107c-0.201,0.188-0.365,0.339-0.49,0.447c-0.127,0.113-0.264,0.218-0.414,0.311
					c-0.15,0.097-0.305,0.169-0.463,0.212c-0.16,0.048-0.334,0.069-0.529,0.069c-0.289,0-0.549-0.07-0.789-0.211
					c-0.238-0.145-0.428-0.355-0.576-0.634c-0.143-0.278-0.215-0.604-0.221-0.97h3.158
					C272.206,475.764,272.532,475.705,272.765,475.584z M268.626,474.847c0.055-0.544,0.213-0.953,0.471-1.232
					c0.258-0.279,0.59-0.416,0.99-0.416c0.424,0,0.76,0.135,1.02,0.41c0.26,0.272,0.406,0.685,0.445,1.237H268.626z"/>
				<path id="XMLID_89_" style="fill:#FFFFFF;" d="M279.477,475.584c0.231-0.121,0.352-0.383,0.352-0.788
					c0-0.438-0.117-0.866-0.34-1.291c-0.221-0.421-0.561-0.766-1.01-1.028c-0.457-0.269-0.998-0.402-1.627-0.402
					c-0.484,0-0.928,0.078-1.324,0.231c-0.398,0.157-0.734,0.38-1.006,0.673c-0.271,0.293-0.478,0.641-0.619,1.05
					c-0.143,0.409-0.217,0.852-0.217,1.328c0,1.013,0.291,1.816,0.865,2.408c0.578,0.591,1.381,0.886,2.42,0.886
					c0.451,0,0.855-0.06,1.203-0.179c0.346-0.116,0.639-0.268,0.869-0.444c0.232-0.181,0.406-0.366,0.516-0.565
					c0.117-0.193,0.17-0.363,0.17-0.509c0-0.167-0.045-0.293-0.148-0.385c-0.105-0.093-0.238-0.138-0.404-0.138
					c-0.152,0-0.27,0.037-0.355,0.107c-0.201,0.188-0.365,0.339-0.49,0.447c-0.125,0.113-0.262,0.218-0.412,0.311
					c-0.152,0.097-0.307,0.169-0.467,0.212c-0.158,0.048-0.334,0.069-0.525,0.069c-0.291,0-0.555-0.07-0.793-0.211
					c-0.236-0.145-0.428-0.355-0.572-0.634c-0.142-0.278-0.217-0.604-0.221-0.97h3.156
					C278.919,475.764,279.245,475.705,279.477,475.584z M275.341,474.847c0.053-0.544,0.209-0.953,0.467-1.232
					c0.26-0.279,0.59-0.416,0.992-0.416c0.424,0,0.76,0.135,1.021,0.41c0.256,0.272,0.406,0.685,0.445,1.237H275.341z"/>
				<path id="XMLID_86_" style="fill:#FFFFFF;" d="M285.464,472.482c-0.418-0.256-0.879-0.386-1.371-0.386
					c-0.414,0-0.787,0.09-1.111,0.267c-0.328,0.175-0.645,0.45-0.947,0.824v-0.193c0-0.296-0.072-0.518-0.217-0.676
					c-0.143-0.154-0.328-0.232-0.559-0.232c-0.232,0-0.416,0.078-0.551,0.226c-0.133,0.154-0.199,0.381-0.199,0.689v6.968
					c0,0.354,0.051,0.618,0.147,0.804c0.1,0.182,0.299,0.273,0.603,0.273c0.516,0,0.775-0.357,0.775-1.064v-2.424
					c0.285,0.357,0.584,0.633,0.897,0.814c0.313,0.186,0.701,0.278,1.162,0.278c0.381,0,0.738-0.076,1.074-0.226
					c0.332-0.152,0.619-0.371,0.863-0.651c0.246-0.282,0.439-0.629,0.578-1.046c0.141-0.416,0.211-0.874,0.211-1.37
					c0-0.674-0.123-1.256-0.367-1.751C286.212,473.113,285.884,472.739,285.464,472.482z M284.989,476.469
					c-0.135,0.311-0.318,0.544-0.549,0.702c-0.229,0.152-0.479,0.232-0.744,0.232c-0.453,0-0.824-0.179-1.129-0.534
					c-0.305-0.357-0.457-0.859-0.457-1.498c0-0.684,0.154-1.199,0.459-1.552c0.307-0.348,0.682-0.525,1.127-0.525
					c0.279,0,0.537,0.083,0.766,0.246c0.229,0.163,0.41,0.396,0.539,0.702c0.131,0.305,0.197,0.672,0.197,1.097
					C285.198,475.779,285.128,476.157,284.989,476.469z"/>
				<path id="XMLID_85_" style="fill:#FFFFFF;" d="M288.427,472.086c-0.236,0-0.426,0.079-0.576,0.243
					c-0.146,0.163-0.223,0.402-0.223,0.719v4.624c0,0.311,0.076,0.552,0.223,0.726c0.15,0.169,0.34,0.253,0.576,0.253
					c0.238,0,0.432-0.082,0.586-0.25c0.154-0.164,0.23-0.408,0.23-0.728v-4.671c0-0.284-0.076-0.509-0.23-0.672
					C288.858,472.165,288.665,472.086,288.427,472.086z"/>
				<path id="XMLID_84_" style="fill:#FFFFFF;" d="M288.442,469.755c-0.215,0-0.404,0.075-0.568,0.222
					c-0.164,0.148-0.246,0.337-0.246,0.565c0,0.252,0.08,0.446,0.24,0.584c0.158,0.137,0.35,0.208,0.574,0.208
					c0.221,0,0.408-0.071,0.564-0.209c0.158-0.138,0.236-0.334,0.236-0.583c0-0.256-0.082-0.452-0.244-0.588
					C288.841,469.821,288.655,469.755,288.442,469.755z"/>
				<path id="XMLID_83_" style="fill:#FFFFFF;" d="M295.757,477.095l-1.656-2.605l0.857-0.784c0.436-0.395,0.656-0.712,0.656-0.948
					c0-0.191-0.068-0.353-0.201-0.481c-0.135-0.127-0.303-0.191-0.506-0.191c-0.168,0-0.311,0.043-0.43,0.13
					c-0.121,0.085-0.289,0.25-0.516,0.484l-1.814,1.905v-3.917c0-0.328-0.074-0.579-0.221-0.748c-0.145-0.17-0.342-0.256-0.59-0.256
					c-0.254,0-0.455,0.093-0.592,0.282c-0.137,0.188-0.207,0.46-0.207,0.816v6.888c0,0.321,0.072,0.566,0.215,0.729
					c0.139,0.168,0.336,0.25,0.584,0.25c0.213,0,0.404-0.084,0.565-0.253c0.164-0.167,0.246-0.405,0.246-0.716v-1.285l0.877-0.827
					l1.422,2.344c0.182,0.277,0.328,0.47,0.434,0.577c0.105,0.109,0.26,0.16,0.457,0.16c0.225,0,0.412-0.073,0.551-0.221
					c0.141-0.15,0.213-0.35,0.213-0.607c0-0.089-0.029-0.189-0.082-0.287C295.966,477.434,295.876,477.29,295.757,477.095z"/>
				<path id="XMLID_82_" style="fill:#FFFFFF;" d="M297.939,476.87c-0.248,0-0.457,0.086-0.627,0.261
					c-0.17,0.172-0.256,0.379-0.256,0.619c0,0.286,0.092,0.508,0.267,0.663c0.178,0.158,0.389,0.237,0.631,0.237
					c0.236,0,0.441-0.079,0.621-0.24c0.176-0.157,0.262-0.379,0.262-0.66c0-0.242-0.086-0.452-0.262-0.623
					C298.395,476.956,298.186,476.87,297.939,476.87z"/>
				<path id="XMLID_81_" style="fill:#FFFFFF;" d="M305.294,475.947c-0.164,0-0.305,0.054-0.42,0.155
					c-0.113,0.104-0.217,0.244-0.316,0.425c-0.176,0.309-0.379,0.536-0.613,0.686c-0.23,0.15-0.508,0.225-0.83,0.225
					c-0.24,0-0.461-0.045-0.664-0.141c-0.201-0.094-0.371-0.229-0.514-0.407c-0.145-0.179-0.25-0.397-0.324-0.65
					c-0.074-0.255-0.113-0.534-0.113-0.838c0-0.645,0.146-1.157,0.438-1.527c0.291-0.374,0.68-0.56,1.154-0.56
					c0.33,0,0.604,0.075,0.816,0.226c0.219,0.147,0.422,0.375,0.621,0.672c0.107,0.157,0.207,0.269,0.297,0.337
					c0.09,0.069,0.201,0.104,0.338,0.104c0.199,0,0.375-0.068,0.522-0.202c0.143-0.135,0.213-0.299,0.213-0.489
					c0-0.192-0.063-0.396-0.193-0.615c-0.125-0.217-0.313-0.422-0.551-0.617c-0.246-0.192-0.539-0.352-0.889-0.472
					c-0.352-0.124-0.732-0.185-1.15-0.185c-0.672,0-1.256,0.139-1.742,0.418c-0.482,0.276-0.854,0.67-1.109,1.178
					c-0.256,0.509-0.385,1.093-0.385,1.758c0,0.977,0.281,1.758,0.84,2.34c0.559,0.58,1.338,0.873,2.338,0.873
					c0.467,0,0.891-0.065,1.264-0.191c0.377-0.125,0.686-0.293,0.93-0.501c0.248-0.206,0.434-0.423,0.551-0.652
					c0.123-0.228,0.184-0.444,0.184-0.643c0-0.169-0.066-0.33-0.199-0.479C305.657,476.023,305.493,475.947,305.294,475.947z"/>
				<path id="XMLID_78_" style="fill:#FFFFFF;" d="M312.081,472.995c-0.289-0.289-0.627-0.515-1.023-0.672
					c-0.4-0.159-0.844-0.237-1.332-0.237c-0.48,0-0.92,0.078-1.32,0.232c-0.397,0.158-0.734,0.379-1.016,0.667
					c-0.279,0.286-0.496,0.634-0.646,1.04c-0.145,0.407-0.223,0.855-0.223,1.344c0,0.483,0.076,0.926,0.219,1.327
					c0.15,0.399,0.369,0.747,0.654,1.043c0.283,0.291,0.625,0.518,1.012,0.674c0.391,0.158,0.832,0.238,1.32,0.238
					c0.49,0,0.934-0.08,1.332-0.233c0.393-0.157,0.732-0.381,1.016-0.673c0.285-0.289,0.5-0.639,0.652-1.045
					c0.147-0.407,0.223-0.852,0.223-1.331c0-0.486-0.076-0.928-0.221-1.334C312.581,473.635,312.364,473.29,312.081,472.995z
					 M310.894,476.895c-0.289,0.371-0.68,0.555-1.168,0.555c-0.322,0-0.6-0.085-0.842-0.251c-0.238-0.168-0.422-0.408-0.551-0.727
					c-0.129-0.314-0.191-0.682-0.191-1.103c0-0.426,0.064-0.8,0.195-1.12c0.129-0.319,0.315-0.561,0.553-0.725
					c0.242-0.162,0.52-0.244,0.836-0.244c0.488,0,0.879,0.182,1.168,0.553c0.287,0.366,0.434,0.878,0.434,1.536
					C311.327,476.016,311.181,476.527,310.894,476.895z"/>
				<path id="XMLID_77_" style="fill:#FFFFFF;" d="M321.964,472.358c-0.32-0.172-0.703-0.262-1.143-0.262
					c-0.377,0-0.723,0.081-1.033,0.24c-0.313,0.161-0.605,0.407-0.879,0.736c-0.191-0.324-0.428-0.569-0.723-0.732
					c-0.289-0.161-0.637-0.243-1.043-0.243c-0.393,0-0.744,0.079-1.064,0.24c-0.32,0.156-0.619,0.402-0.902,0.736v-0.152
					c0-0.26-0.072-0.464-0.219-0.614c-0.15-0.143-0.334-0.22-0.555-0.22c-0.227,0-0.41,0.078-0.555,0.237
					c-0.139,0.157-0.209,0.388-0.209,0.691v4.618c0,0.335,0.078,0.589,0.234,0.762c0.156,0.17,0.355,0.257,0.603,0.257
					c0.246,0,0.445-0.087,0.6-0.257c0.148-0.173,0.225-0.427,0.225-0.762v-2.18c0-0.681,0.086-1.202,0.254-1.561
					c0.166-0.368,0.514-0.548,1.041-0.548c0.264,0,0.459,0.071,0.58,0.219c0.121,0.142,0.197,0.329,0.227,0.55
					c0.027,0.224,0.039,0.542,0.039,0.948v2.571c0,0.34,0.078,0.591,0.23,0.765c0.148,0.169,0.35,0.254,0.594,0.254
					c0.254,0,0.451-0.085,0.607-0.254c0.156-0.174,0.228-0.425,0.228-0.765v-2.146c0-0.691,0.063-1.173,0.178-1.446
					c0.109-0.208,0.26-0.381,0.449-0.506c0.191-0.124,0.393-0.19,0.607-0.19c0.262,0,0.461,0.071,0.594,0.214
					c0.125,0.142,0.207,0.317,0.236,0.527c0.029,0.209,0.043,0.484,0.043,0.834v2.714c0,0.335,0.078,0.589,0.234,0.762
					c0.156,0.17,0.355,0.257,0.6,0.257c0.252,0,0.459-0.085,0.609-0.254c0.154-0.174,0.23-0.425,0.23-0.765v-3.151
					c0-0.626-0.068-1.086-0.207-1.38C322.52,472.78,322.282,472.531,321.964,472.358z"/>
			</g>
			<g id="XMLID_62_">
				<path id="XMLID_75_" style="fill:#FFFFFF;" d="M243.975,474.977c-0.002-0.002-0.002-0.005-0.002-0.01
					C243.973,474.972,243.973,474.975,243.975,474.977z"/>
				<path id="XMLID_74_" style="fill:#FFFFFF;" d="M244.057,475.493L244.057,475.493c-0.029-0.145-0.055-0.292-0.072-0.435
					C244.002,475.203,244.027,475.349,244.057,475.493z"/>
				<path id="XMLID_73_" style="fill:#FFFFFF;" d="M244.59,476.992c-0.004-0.007-0.006-0.014-0.01-0.021
					C244.584,476.978,244.586,476.985,244.59,476.992z"/>
				<path id="XMLID_72_" style="fill:#FFFFFF;" d="M244.539,476.892c-0.014-0.027-0.027-0.056-0.041-0.083
					C244.512,476.839,244.525,476.865,244.539,476.892z"/>
				<path id="XMLID_71_" style="fill:#FFFFFF;" d="M244.205,476.071c0.08,0.249,0.174,0.49,0.285,0.721
					c-0.113-0.235-0.205-0.477-0.283-0.721H244.205z"/>
				<path id="XMLID_70_" style="fill:#FFFFFF;" d="M249.416,468.243l-0.076-0.259c0.299-0.063,0.523-0.328,0.523-0.645
					c0-0.361-0.297-0.656-0.658-0.656c-0.365,0-0.658,0.295-0.658,0.656c0,0.316,0.225,0.582,0.52,0.645l0.084,0.288
					c-1.018,0.14-1.826,0.536-1.826,0.536l0.143,0.44c0.613-0.206,1.148-0.33,1.635-0.382c0.473-0.051,0.83-0.072,1.121-0.072
					c0.313,0,0.543,0.024,0.807,0.068l0.074-0.474C251.104,468.388,250.375,468.164,249.416,468.243z"/>
				<path id="XMLID_69_" style="fill:#FFFFFF;" d="M244.152,470.74c-0.018,0.023-0.494,0.463-0.871,1.273
					c-0.016-0.024-0.035-0.05-0.057-0.073c-0.111-0.124-0.271-0.186-0.471-0.183c-0.004,0-0.008,0-0.01,0
					c-0.123,0-0.209-0.042-0.266-0.093c0.057-0.07,0.09-0.159,0.09-0.257c0-0.23-0.188-0.417-0.418-0.417
					c-0.229,0-0.416,0.188-0.416,0.417c0,0.23,0.188,0.415,0.416,0.415c0.035,0,0.07-0.005,0.104-0.012
					c0.104,0.113,0.266,0.213,0.502,0.208c0.123-0.002,0.215,0.03,0.273,0.096c0.07,0.075,0.094,0.184,0.1,0.266
					c-0.002,0.002-0.002,0.004-0.002,0.004c-0.271,0.74-0.193,1.661-0.193,1.661l0.658,0.025c0.014-0.335,0.061-0.921,0.23-1.387
					c0.328-0.903,0.74-1.466,0.756-1.49l0.004-0.005c0.023-0.031,0.045-0.06,0.068-0.089l-0.193-0.141L244.152,470.74z"/>
				<path id="XMLID_68_" style="fill:#FFFFFF;" d="M255.949,469.344c-0.23,0-0.418,0.186-0.418,0.416
					c0,0.036,0.006,0.07,0.016,0.103c-0.113,0.103-0.213,0.266-0.209,0.504c0.002,0.123-0.031,0.212-0.098,0.273
					c-0.053,0.047-0.117,0.071-0.184,0.087c-0.49-0.687-1.094-1.106-1.094-1.106l-0.471,0.507c0.357,0.325,0.721,0.732,1.076,1.239
					c0.244,0.351,0.496,0.803,0.707,1.253l0.637-0.303c0,0-0.291-0.719-0.701-1.363c0.072-0.025,0.143-0.063,0.207-0.12
					c0.125-0.112,0.186-0.272,0.182-0.472c0-0.129,0.041-0.217,0.092-0.274c0.072,0.054,0.16,0.089,0.258,0.089
					c0.23,0,0.416-0.186,0.416-0.417C256.365,469.53,256.18,469.344,255.949,469.344z"/>
				<path id="XMLID_67_" style="fill:#FFFFFF;" d="M254.295,475.071c-0.877,0.427-2.32,0.992-4.221,1.257
					c-0.748,0.104-1.471,0.142-2.135,0.142c-0.865,0-1.631-0.064-2.219-0.139c-0.668-0.084-1.191-0.188-1.514-0.26
					c0.078,0.244,0.17,0.485,0.283,0.721c0.002,0.006,0.004,0.013,0.008,0.017c0.014,0.027,0.027,0.056,0.041,0.083
					c0.014,0.027,0.027,0.055,0.041,0.078c0.004,0.008,0.006,0.015,0.01,0.021c0.188,0.355,0.416,0.682,0.672,0.964
					c0.896,0.98,1.811,1.135,1.818,1.137l0.014,0.002l0.014,0.005c0.008,0.003,0.818,0.264,2.051,0.264
					c1.211,0,2.398-0.243,3.531-0.726c0.838-0.43,1.633-1.081,2.025-1.662c0.305-0.45,0.523-0.93,0.654-1.428
					c0.068-0.265,0.123-0.69,0.09-1.136C255.213,474.578,254.822,474.814,254.295,475.071z"/>
				<path id="XMLID_63_" style="fill:#FFFFFF;" d="M250.996,469.213c-0.262-0.044-0.475-0.068-0.773-0.068
					c-0.277,0-0.625,0.022-1.084,0.07c-0.465,0.049-0.98,0.17-1.578,0.371c-0.84,0.281-1.598,0.722-2.195,1.275l-0.02,0.018
					c-0.09,0.081-0.273,0.253-0.486,0.523c-0.025,0.037-0.406,0.576-0.707,1.402c-0.225,0.619-0.215,1.521-0.215,1.531v0.001
					c0,0.211,0.012,0.421,0.035,0.63c0,0.005,0,0.008,0.002,0.01c0.002,0.027,0.006,0.053,0.01,0.08
					c0.018,0.143,0.043,0.29,0.072,0.435c0.438,0.112,3.035,0.719,5.945,0.314c1.822-0.253,3.205-0.792,4.045-1.199
					c0.697-0.339,1.146-0.645,1.32-0.771c-0.174-0.639-0.65-1.643-1.086-2.269C253.033,469.784,251.688,469.326,250.996,469.213z
					 M247.365,474.451c-0.967,0-1.752-0.784-1.752-1.753c0-0.968,0.785-1.753,1.752-1.753c0.969,0,1.756,0.785,1.756,1.753
					C249.121,473.667,248.334,474.451,247.365,474.451z M252.496,473.159c-0.598,0-1.082-0.487-1.082-1.086
					c0-0.6,0.484-1.085,1.082-1.085c0.6,0,1.086,0.485,1.086,1.085C253.582,472.672,253.096,473.159,252.496,473.159z"/>
			</g>
		</g>
	</g>
</g>
</svg>
