<?xml version="1.0" encoding="utf-8"?>
<!-- Generator: Adobe Illustrator 27.5.0, SVG Export Plug-In . SVG Version: 6.00 Build 0)  -->
<svg version="1.1" xmlns="http://www.w3.org/2000/svg" xmlns:xlink="http://www.w3.org/1999/xlink" x="0px" y="0px"
	 viewBox="0 0 500 500" style="enable-background:new 0 0 500 500;" xml:space="preserve">
<g id="BACKGROUND">
	<g>
		<rect x="-1.82" y="-1.311" style="fill:#F7E39C;" width="500" height="500"/>
	</g>
</g>
<g id="OBJECTS">
	<g>
		<g>
			<rect style="fill:none;stroke:#E4B2B0;stroke-miterlimit:10;" width="500" height="500"/>
			<line style="fill:none;stroke:#E4B2B0;stroke-miterlimit:10;" x1="0" y1="454.546" x2="500" y2="454.546"/>
			<line style="fill:none;stroke:#E4B2B0;stroke-miterlimit:10;" x1="0" y1="409.091" x2="500" y2="409.091"/>
			<line style="fill:none;stroke:#E4B2B0;stroke-miterlimit:10;" x1="0" y1="363.636" x2="500" y2="363.636"/>
			<line style="fill:none;stroke:#E4B2B0;stroke-miterlimit:10;" x1="0" y1="318.182" x2="500" y2="318.182"/>
			<line style="fill:none;stroke:#E4B2B0;stroke-miterlimit:10;" x1="0" y1="272.727" x2="500" y2="272.727"/>
			<line style="fill:none;stroke:#E4B2B0;stroke-miterlimit:10;" x1="0" y1="227.273" x2="500" y2="227.273"/>
			<line style="fill:none;stroke:#E4B2B0;stroke-miterlimit:10;" x1="0" y1="181.818" x2="500" y2="181.818"/>
			<line style="fill:none;stroke:#E4B2B0;stroke-miterlimit:10;" x1="0" y1="136.364" x2="500" y2="136.364"/>
			<line style="fill:none;stroke:#E4B2B0;stroke-miterlimit:10;" x1="0" y1="90.909" x2="500" y2="90.909"/>
			<line style="fill:none;stroke:#E4B2B0;stroke-miterlimit:10;" x1="0" y1="45.454" x2="500" y2="45.454"/>
			<line style="fill:none;stroke:#E4B2B0;stroke-miterlimit:10;" x1="454.545" y1="0" x2="454.545" y2="500"/>
			<line style="fill:none;stroke:#E4B2B0;stroke-miterlimit:10;" x1="409.091" y1="0" x2="409.091" y2="500"/>
			<line style="fill:none;stroke:#E4B2B0;stroke-miterlimit:10;" x1="363.636" y1="0" x2="363.636" y2="500"/>
			<line style="fill:none;stroke:#E4B2B0;stroke-miterlimit:10;" x1="318.182" y1="0" x2="318.182" y2="500"/>
			<line style="fill:none;stroke:#E4B2B0;stroke-miterlimit:10;" x1="272.727" y1="0" x2="272.727" y2="500"/>
			<line style="fill:none;stroke:#E4B2B0;stroke-miterlimit:10;" x1="227.273" y1="0" x2="227.273" y2="500"/>
			<line style="fill:none;stroke:#E4B2B0;stroke-miterlimit:10;" x1="181.818" y1="0" x2="181.818" y2="500"/>
			<line style="fill:none;stroke:#E4B2B0;stroke-miterlimit:10;" x1="136.364" y1="0" x2="136.364" y2="500"/>
			<line style="fill:none;stroke:#E4B2B0;stroke-miterlimit:10;" x1="90.909" y1="0" x2="90.909" y2="500"/>
			<line style="fill:none;stroke:#E4B2B0;stroke-miterlimit:10;" x1="45.454" y1="0" x2="45.454" y2="500"/>
		</g>
		<g>
			<g>
				<g>
					<rect x="309.553" y="46.263" style="fill:#FFFFFF;" width="11.843" height="74.358"/>
					<rect x="326.077" y="53.393" style="fill:#FFFFFF;" width="11.843" height="67.229"/>
					<rect x="359.123" y="83.894" style="fill:#FFFFFF;" width="11.843" height="36.728"/>
					<rect x="342.6" y="93.4" style="fill:#FFFFFF;" width="11.843" height="27.221"/>
					<rect x="375.646" y="35.964" style="fill:#FFFFFF;" width="11.843" height="84.657"/>
				</g>
				<g>
					<rect x="391.808" y="78.003" style="fill:#FFFFFF;" width="11.843" height="42.619"/>
					<rect x="408.331" y="82.09" style="fill:#FFFFFF;" width="11.843" height="38.532"/>
					<rect x="441.377" y="99.571" style="fill:#FFFFFF;" width="11.843" height="21.051"/>
					<rect x="424.854" y="105.02" style="fill:#FFFFFF;" width="11.843" height="15.602"/>
					<rect x="457.901" y="72.1" style="fill:#FFFFFF;" width="11.843" height="48.521"/>
				</g>
			</g>
			<path style="fill:#FFFFFF;" d="M293.701,105.233v-9.529l-6.564-0.689c-0.496-1.884-1.236-3.664-2.195-5.307l4.153-5.126
				l-6.738-6.738l-5.126,4.153c-1.643-0.959-3.423-1.699-5.306-2.195l-0.689-6.564h-9.529l-0.689,6.564
				c-1.884,0.496-3.664,1.236-5.307,2.195l-5.126-4.153l-6.738,6.738l4.153,5.126c-0.959,1.643-1.699,3.423-2.195,5.306
				l-6.564,0.689v9.529l6.564,0.689c0.496,1.884,1.236,3.664,2.195,5.307l-4.153,5.126l6.738,6.738l5.126-4.153
				c1.643,0.959,3.423,1.699,5.307,2.195l0.689,6.564h9.529l0.689-6.564c1.884-0.496,3.664-1.236,5.306-2.195l5.126,4.153
				l6.738-6.738l-4.153-5.126c0.959-1.643,1.699-3.423,2.195-5.307L293.701,105.233z M266.47,110.992
				c-5.812,0-10.524-4.712-10.524-10.524c0-5.812,4.712-10.524,10.524-10.524c5.812,0,10.524,4.712,10.524,10.524
				C276.994,106.281,272.282,110.992,266.47,110.992z"/>
			<path style="fill:#FFFFFF;" d="M60.266,312.159v-6.647l-4.579-0.48c-0.346-1.314-0.862-2.556-1.531-3.702l2.897-3.576l-4.7-4.7
				l-3.576,2.897c-1.146-0.669-2.388-1.185-3.701-1.531l-0.481-4.579h-6.647l-0.48,4.579c-1.314,0.346-2.556,0.862-3.702,1.531
				l-3.576-2.897l-4.7,4.7l2.897,3.576c-0.669,1.146-1.185,2.388-1.531,3.702l-4.579,0.48v6.647l4.579,0.48
				c0.346,1.314,0.862,2.556,1.531,3.702l-2.897,3.576l4.7,4.701l3.576-2.897c1.146,0.669,2.388,1.185,3.702,1.531l0.48,4.579h6.647
				l0.481-4.579c1.314-0.346,2.556-0.862,3.701-1.531l3.576,2.897l4.7-4.701l-2.897-3.576c0.669-1.146,1.185-2.388,1.531-3.702
				L60.266,312.159z M41.27,316.176c-4.054,0-7.341-3.287-7.341-7.341c0-4.054,3.287-7.341,7.341-7.341s7.341,3.287,7.341,7.341
				C48.611,312.889,45.324,316.176,41.27,316.176z"/>
			<path style="fill:#FFFFFF;" d="M479.046,280.632v-6.647l-4.579-0.48c-0.346-1.314-0.862-2.556-1.531-3.702l2.897-3.576l-4.7-4.7
				l-3.576,2.897c-1.146-0.669-2.388-1.185-3.702-1.531l-0.481-4.579h-6.647l-0.48,4.579c-1.314,0.346-2.556,0.862-3.702,1.531
				l-3.576-2.897l-4.7,4.7l2.897,3.576c-0.669,1.146-1.185,2.388-1.531,3.702l-4.579,0.48v6.647l4.579,0.48
				c0.346,1.314,0.862,2.556,1.531,3.702l-2.897,3.576l4.7,4.701l3.576-2.897c1.146,0.669,2.388,1.185,3.702,1.531l0.481,4.579
				h6.647l0.481-4.579c1.314-0.346,2.556-0.862,3.702-1.531l3.576,2.897l4.7-4.701l-2.897-3.576
				c0.669-1.146,1.185-2.388,1.531-3.702L479.046,280.632z M460.05,284.649c-4.054,0-7.341-3.287-7.341-7.341
				c0-4.054,3.287-7.341,7.341-7.341s7.341,3.287,7.341,7.341C467.391,281.362,464.105,284.649,460.05,284.649z"/>
			<polygon style="fill:#FFFFFF;" points="40.516,204.458 30.395,204.458 30.395,194.337 27.161,194.337 27.161,204.458 
				17.04,204.458 17.04,207.692 27.161,207.692 27.161,217.813 30.395,217.813 30.395,207.692 40.516,207.692 			"/>
			<polygon style="fill:#FFFFFF;" points="442.514,235.061 432.393,235.061 432.393,224.94 429.159,224.94 429.159,235.061 
				419.038,235.061 419.038,238.296 429.159,238.296 429.159,248.417 432.393,248.417 432.393,238.296 442.514,238.296 			"/>
			<polygon style="fill:#FFFFFF;" points="260.19,34.347 250.069,34.347 250.069,24.226 246.835,24.226 246.835,34.347 
				236.714,34.347 236.714,37.582 246.835,37.582 246.835,47.703 250.069,47.703 250.069,37.582 260.19,37.582 			"/>
		</g>
		<g>
			<g>
				<g>
					<path style="fill:#F5F5F5;" d="M396.773,195.018H103.227c-5.978,0-10.824,4.846-10.824,10.824v189.571
						c0,5.978,4.846,10.824,10.824,10.824h101.318v34.208h-15.277c-4.474,0-8.101,3.627-8.101,8.101v3.146h137.666v-3.146
						c0-4.474-3.627-8.101-8.101-8.101h-15.278v-34.208h101.319c5.978,0,10.824-4.846,10.824-10.824V205.842
						C407.597,199.864,402.751,195.018,396.773,195.018z"/>
					<g>
						<rect x="92.403" y="215.359" style="fill:#1F1426;" width="315.195" height="145.424"/>
						<g>
							
								<line style="fill:none;stroke:#1F1426;stroke-width:0.5;stroke-linecap:round;stroke-linejoin:round;stroke-miterlimit:10;" x1="204.545" y1="440.446" x2="285.267" y2="440.446"/>
							<rect x="204.545" y="406.238" style="fill:#1F1426;" width="90.909" height="6.946"/>
							
								<line style="fill:none;stroke:#1F1426;stroke-width:0.5;stroke-linecap:round;stroke-linejoin:round;stroke-miterlimit:10;" x1="100.258" y1="210.699" x2="127.431" y2="210.699"/>
							
								<line style="fill:none;stroke:#1F1426;stroke-width:0.5;stroke-linecap:round;stroke-linejoin:round;stroke-miterlimit:10;" x1="398.976" y1="370.543" x2="398.976" y2="381.967"/>
							<g>
								
									<path style="fill:none;stroke:#1F1426;stroke-width:0.5;stroke-linecap:round;stroke-linejoin:round;stroke-miterlimit:10;" d="
									M254.044,204.64c0,3.089-2.504,5.592-5.592,5.592c-3.089,0-5.592-2.504-5.592-5.592s2.504-5.592,5.592-5.592
									C251.54,199.048,254.044,201.552,254.044,204.64z"/>
								<path style="fill:#1F1426;" d="M252.406,204.64c0,2.184-1.77,3.954-3.954,3.954c-2.184,0-3.954-1.77-3.954-3.954
									s1.77-3.954,3.954-3.954C250.636,200.686,252.406,202.456,252.406,204.64z"/>
							</g>
						</g>
					</g>
				</g>
				<g>
					<g>
						<g>
							<g>
								<rect x="108.462" y="298.015" style="fill:#E4B2B0;" width="11.611" height="43.92"/>
								<rect x="157.059" y="310.294" style="fill:#E4B2B0;" width="11.611" height="31.64"/>
								<rect x="205.656" y="330.324" style="fill:#E4B2B0;" width="11.611" height="11.611"/>
								<rect x="254.252" y="288.127" style="fill:#E4B2B0;" width="11.611" height="53.808"/>
								<rect x="302.849" y="277.877" style="fill:#E4B2B0;" width="11.611" height="64.058"/>
								<rect x="351.445" y="252.57" style="fill:#E4B2B0;" width="11.611" height="89.364"/>
							</g>
							<g>
								<rect x="124.661" y="284.019" style="fill:#B7AFE8;" width="11.611" height="57.916"/>
								<rect x="173.258" y="298.015" style="fill:#B7AFE8;" width="11.611" height="43.92"/>
								<rect x="221.854" y="275.735" style="fill:#B7AFE8;" width="11.611" height="66.2"/>
								<rect x="270.451" y="312.977" style="fill:#B7AFE8;" width="11.611" height="28.958"/>
								<rect x="319.048" y="284.019" style="fill:#B7AFE8;" width="11.611" height="57.916"/>
								<rect x="367.644" y="310.294" style="fill:#B7AFE8;" width="11.611" height="31.64"/>
							</g>
							<g>
								<rect x="140.86" y="269.005" style="fill:#D36016;" width="11.611" height="72.93"/>
								<rect x="189.457" y="250.919" style="fill:#D36016;" width="11.611" height="91.016"/>
								<rect x="238.053" y="263.747" style="fill:#D36016;" width="11.611" height="78.188"/>
								<rect x="286.65" y="286.325" style="fill:#D36016;" width="11.611" height="55.61"/>
								<rect x="335.247" y="318.484" style="fill:#D36016;" width="11.611" height="23.451"/>
								<rect x="383.843" y="269.005" style="fill:#D36016;" width="11.611" height="72.93"/>
							</g>
						</g>
						
							<line style="fill:none;stroke:#E4B2B0;stroke-width:0.5;stroke-linecap:round;stroke-linejoin:round;stroke-miterlimit:10;" x1="108.462" y1="341.935" x2="395.454" y2="341.935"/>
					</g>
					<g>
						<polyline style="fill:none;stroke:#E4B2B0;stroke-width:0.75;stroke-miterlimit:10;" points="108.462,277.877 
							148.283,249.213 181.725,263.747 236.664,242.388 276.257,280.266 324.853,255.696 373.45,277.877 389.649,248.53 						"/>
						<g>
							<circle style="fill:#1F1426;stroke:#E4B2B0;stroke-width:0.75;stroke-miterlimit:10;" cx="148.255" cy="249.301" r="3.438"/>
							<path style="fill:#1F1426;stroke:#E4B2B0;stroke-width:0.75;stroke-miterlimit:10;" d="M111.872,277.965
								c0,1.899-1.539,3.438-3.438,3.438c-1.899,0-3.438-1.54-3.438-3.438c0-1.899,1.54-3.439,3.438-3.439
								C110.333,274.526,111.872,276.066,111.872,277.965z"/>
							<path style="fill:#1F1426;stroke:#E4B2B0;stroke-width:0.75;stroke-miterlimit:10;" d="M185.03,263.974
								c0,1.899-1.539,3.438-3.438,3.438c-1.899,0-3.438-1.539-3.438-3.438c0-1.899,1.539-3.438,3.438-3.438
								C183.491,260.535,185.03,262.075,185.03,263.974z"/>
							<path style="fill:#1F1426;stroke:#E4B2B0;stroke-width:0.75;stroke-miterlimit:10;" d="M240.342,242.388
								c0,1.899-1.54,3.438-3.439,3.438c-1.899,0-3.438-1.539-3.438-3.438s1.54-3.438,3.438-3.438
								C238.803,238.95,240.342,240.489,240.342,242.388z"/>
							<circle style="fill:#1F1426;stroke:#E4B2B0;stroke-width:0.75;stroke-miterlimit:10;" cx="276.257" cy="280.266" r="3.438"/>
							<path style="fill:#1F1426;stroke:#E4B2B0;stroke-width:0.75;stroke-miterlimit:10;" d="M327.731,255.924
								c0,1.899-1.539,3.438-3.438,3.438c-1.899,0-3.439-1.539-3.439-3.438c0-1.899,1.54-3.438,3.439-3.438
								C326.192,252.485,327.731,254.025,327.731,255.924z"/>
							<path style="fill:#1F1426;stroke:#E4B2B0;stroke-width:0.75;stroke-miterlimit:10;" d="M376.888,277.308
								c0,1.899-1.539,3.438-3.438,3.438c-1.899,0-3.439-1.539-3.439-3.438c0-1.899,1.539-3.438,3.439-3.438
								C375.349,273.87,376.888,275.409,376.888,277.308z"/>
							<path style="fill:#1F1426;stroke:#E4B2B0;stroke-width:0.75;stroke-miterlimit:10;" d="M393.087,248.417
								c0,1.899-1.54,3.438-3.439,3.438c-1.899,0-3.438-1.539-3.438-3.438c0-1.899,1.54-3.438,3.438-3.438
								C391.548,244.978,393.087,246.518,393.087,248.417z"/>
						</g>
					</g>
				</g>
			</g>
			<rect x="22.991" y="451.692" style="fill:#1F1426;" width="454.019" height="9.707"/>
		</g>
		<g>
			<g>
				<rect x="63.59" y="34.828" style="fill:#FFFFFF;" width="145.364" height="185.037"/>
				<g>
					<g>
						<rect x="63.59" y="34.828" style="fill:#1F1426;" width="145.364" height="9.582"/>
						<g>
							<path style="fill:#D36016;" d="M71.333,39.948c0,1.141-0.925,2.065-2.065,2.065c-1.141,0-2.065-0.925-2.065-2.065
								c0-1.141,0.925-2.065,2.065-2.065C70.409,37.883,71.333,38.808,71.333,39.948z"/>
							<path style="fill:#E4B2B0;" d="M78.32,39.948c0,1.141-0.925,2.065-2.065,2.065s-2.065-0.925-2.065-2.065
								c0-1.141,0.925-2.065,2.065-2.065S78.32,38.808,78.32,39.948z"/>
							<path style="fill:#65A281;" d="M85.308,39.948c0,1.141-0.925,2.065-2.065,2.065c-1.141,0-2.065-0.925-2.065-2.065
								c0-1.141,0.925-2.065,2.065-2.065C84.383,37.883,85.308,38.808,85.308,39.948z"/>
							<rect x="202.748" y="38.263" style="fill:#FFFFFF;" width="3.37" height="3.37"/>
							<rect x="196.824" y="38.263" style="fill:#FFFFFF;" width="3.37" height="3.37"/>
						</g>
					</g>
					<g>
						<rect x="82.117" y="191.815" style="fill:#B7AFE8;" width="6.275" height="5.668"/>
						<g>
							<g>
								<g>
									<path style="fill:#B7AFE8;" d="M135.796,79.691c-27.913,0-50.541,22.628-50.541,50.541c0,6.331,1.175,12.385,3.301,17.97
										l47.241-17.97V79.691z"/>
									<path style="fill:#65A281;" d="M184.537,116.865c-5.863-21.424-25.457-37.173-48.741-37.173v50.541L184.537,116.865z"/>
									<path style="fill:#E4B2B0;" d="M180.598,153.619c3.659-6.995,5.739-14.946,5.739-23.386c0-4.629-0.635-9.108-1.8-13.368
										l-48.741,13.368L180.598,153.619z"/>
									<path style="fill:#D36016;" d="M135.796,180.773c19.472,0,36.361-11.019,44.802-27.155l-44.802-23.386l-47.241,17.97
										C95.802,167.241,114.214,180.773,135.796,180.773z"/>
								</g>
								
									<ellipse transform="matrix(0.7071 -0.7071 0.7071 0.7071 -52.3144 134.1665)" style="fill:#FFFFFF;" cx="135.796" cy="130.232" rx="23.465" ry="23.465"/>
							</g>
							<g>
								<g>
									<g>
										<g>
											<rect x="156.111" y="191.815" style="fill:#E3E3E3;" width="39.014" height="5.668"/>
											<rect x="146.935" y="191.815" style="fill:#65A281;" width="6.275" height="5.668"/>
										</g>
										<g>
											<rect x="156.111" y="201.827" style="fill:#E3E3E3;" width="39.014" height="5.668"/>
											<rect x="146.935" y="201.827" style="fill:#E4B2B0;" width="6.275" height="5.668"/>
										</g>
									</g>
									<g>
										<rect x="92.045" y="191.815" style="fill:#E3E3E3;" width="39.014" height="5.668"/>
										<g>
											<rect x="92.045" y="201.827" style="fill:#E3E3E3;" width="39.014" height="5.668"/>
											<rect x="82.117" y="201.827" style="fill:#D36016;" width="6.275" height="5.668"/>
										</g>
									</g>
								</g>
								<g>
									<rect x="96.239" y="57.222" style="fill:#E3E3E3;" width="81.227" height="6.532"/>
									<rect x="80.843" y="66.151" style="fill:#E3E3E3;" width="112.019" height="6.531"/>
								</g>
							</g>
						</g>
					</g>
				</g>
			</g>
		</g>
		<g>
			<rect x="308.406" y="114.64" style="fill:#E4B2B0;" width="162.485" height="91.435"/>
			<g>
				
					<ellipse transform="matrix(0.2277 -0.9737 0.9737 0.2277 144.7947 503.2675)" style="fill:none;stroke:#D36016;stroke-miterlimit:10;" cx="389.649" cy="160.358" rx="21.461" ry="21.461"/>
				<polygon style="fill:#D36016;stroke:#D36016;stroke-linecap:round;stroke-linejoin:round;stroke-miterlimit:10;" points="
					382.468,148.905 402.305,160.358 382.468,171.81 				"/>
			</g>
			<g>
				<rect x="308.406" y="114.64" style="fill:#1F1426;" width="162.485" height="10.195"/>
				<g>
					<path style="fill:#D36016;" d="M316.645,120.088c0,1.214-0.984,2.197-2.197,2.197c-1.214,0-2.197-0.984-2.197-2.197
						s0.984-2.197,2.197-2.197C315.661,117.891,316.645,118.875,316.645,120.088z"/>
					<path style="fill:#E4B2B0;" d="M324.079,120.088c0,1.214-0.984,2.197-2.197,2.197c-1.214,0-2.197-0.984-2.197-2.197
						s0.984-2.197,2.197-2.197C323.095,117.891,324.079,118.875,324.079,120.088z"/>
					<path style="fill:#65A281;" d="M331.513,120.088c0,1.214-0.984,2.197-2.197,2.197c-1.214,0-2.197-0.984-2.197-2.197
						s0.984-2.197,2.197-2.197C330.529,117.891,331.513,118.875,331.513,120.088z"/>
					<rect x="464.561" y="118.296" style="fill:#FFFFFF;" width="3.585" height="3.585"/>
					<rect x="458.258" y="118.296" style="fill:#FFFFFF;" width="3.585" height="3.585"/>
				</g>
			</g>
		</g>
		<g>
			<g>
				<g>
					<rect x="35.102" y="382.382" style="fill:#B7AFE8;" width="157.486" height="95.792"/>
					<g>
						<g>
							<rect x="35.102" y="382.382" style="fill:#1F1426;" width="157.486" height="10.381"/>
							<g>
								<circle style="fill:#D36016;" cx="41.253" cy="387.929" r="2.237"/>
								<circle style="fill:#E4B2B0;" cx="48.823" cy="387.929" r="2.238"/>
								<path style="fill:#65A281;" d="M58.63,387.929c0,1.236-1.002,2.238-2.238,2.238c-1.236,0-2.237-1.002-2.237-2.238
									c0-1.236,1.002-2.237,2.237-2.237C57.629,385.691,58.63,386.693,58.63,387.929z"/>
								<rect x="185.864" y="386.104" style="fill:#FFFFFF;" width="3.651" height="3.651"/>
								<rect x="179.446" y="386.104" style="fill:#FFFFFF;" width="3.651" height="3.651"/>
							</g>
						</g>
					</g>
				</g>
			</g>
			<g>
				<path style="fill:#E4B2B0;" d="M68.132,451.994c-9.102,0-16.508-7.405-16.508-16.508c0-9.103,7.405-16.508,16.508-16.508
					v-10.015c-14.648,0-26.522,11.875-26.522,26.523c0,14.648,11.874,26.522,26.522,26.522c1.906,0,3.761-0.21,5.552-0.592
					l-2.097-9.793C70.472,451.863,69.318,451.994,68.132,451.994z"/>
				<path style="fill:#FFFFFF;" d="M84.64,435.486h10.015c0-14.648-11.875-26.522-26.523-26.522v10.015
					C77.235,418.979,84.64,426.384,84.64,435.486z"/>
				<path style="fill:#65A281;" d="M94.655,435.487L94.655,435.487l-10.015,0v0c0,7.917-5.604,14.544-13.052,16.137l2.097,9.793
					C85.665,458.863,94.655,448.229,94.655,435.487z"/>
			</g>
			<g>
				<rect x="102.854" y="418.56" style="fill:#FFFFFF;" width="68.377" height="4.373"/>
				<g>
					<rect x="102.854" y="427.192" style="fill:#FFFFFF;" width="80.242" height="7.053"/>
					<rect x="102.854" y="437.872" style="fill:#FFFFFF;" width="80.242" height="7.053"/>
					<rect x="102.854" y="448.552" style="fill:#FFFFFF;" width="80.242" height="7.053"/>
				</g>
			</g>
		</g>
		<g>
			<g>
				<g>
					<g>
						<rect x="372.063" y="326.276" style="fill:#D36016;" width="86.504" height="154.957"/>
						<g>
							<g>
								<rect x="372.063" y="326.276" style="fill:#1F1426;" width="86.504" height="11.377"/>
								<g>
									<circle style="fill:#D36016;" cx="378.804" cy="332.356" r="2.452"/>
									<circle style="fill:#E4B2B0;" cx="387.101" cy="332.356" r="2.452"/>
									<path style="fill:#65A281;" d="M397.849,332.356c0,1.354-1.098,2.452-2.452,2.452c-1.354,0-2.452-1.098-2.452-2.452
										c0-1.354,1.098-2.452,2.452-2.452C396.751,329.904,397.849,331.002,397.849,332.356z"/>
									<rect x="451.197" y="330.356" style="fill:#FFFFFF;" width="4.001" height="4.001"/>
									<rect x="444.163" y="330.356" style="fill:#FFFFFF;" width="4.001" height="4.001"/>
								</g>
							</g>
						</g>
					</g>
				</g>
			</g>
			<g>
				<rect x="375.891" y="381.457" style="fill:#E4B2B0;" width="78.846" height="60.193"/>
				<g>
					<rect x="375.891" y="353.797" style="fill:#E3E3E3;" width="78.846" height="4.542"/>
					<rect x="375.891" y="345.29" style="fill:#65A281;" width="78.846" height="4.542"/>
					<rect x="375.572" y="363.157" style="fill:#E3E3E3;" width="78.846" height="4.542"/>
					<rect x="375.572" y="372.517" style="fill:#E3E3E3;" width="78.846" height="4.542"/>
				</g>
				<g>
					<rect x="375.891" y="457.016" style="fill:#E3E3E3;" width="45.647" height="4.542"/>
					<rect x="375.891" y="448.509" style="fill:#65A281;" width="78.846" height="4.542"/>
					<rect x="375.572" y="466.376" style="fill:#E3E3E3;" width="36.269" height="4.542"/>
				</g>
			</g>
		</g>
	</g>
</g>
</svg>
