<?xml version="1.0" encoding="utf-8"?>
<!-- Generator: Adobe Illustrator 27.5.0, SVG Export Plug-In . SVG Version: 6.00 Build 0)  -->
<svg version="1.1" xmlns="http://www.w3.org/2000/svg" xmlns:xlink="http://www.w3.org/1999/xlink" x="0px" y="0px"
	 viewBox="0 0 900 600" style="enable-background:new 0 0 900 600;" xml:space="preserve">
<g id="Layer_2">
	<rect style="fill:#FFFFFF;" width="900" height="600"/>
	<rect style="opacity:0;fill:#FFFFFF;" width="900" height="600"/>
</g>
<g id="Layer_1">
	<g>
		<g>
			<path style="fill:#FFE0B3;" d="M165.231,558.748c-42.966-18.545-103.32-123.114-17.533-221.24
				c53.627-61.34-30.638-191.195,127.66-272.124c103.396-52.861,329.941-14.68,452.426,132.521
				c83.253,100.053,85.181,247.259,19.641,359.492L165.231,558.748z"/>
		</g>
		<g>
			<g>
				<path style="fill:#788918;" d="M234.278,438.623c-0.961-1.086-23.475-26.774-17.611-42.209
					c2.165-5.698,7.954-9.227,17.211-10.492c-3.461-5.519-25.161-41.452-17.757-63.539c2.278-6.796,7.151-11.602,14.485-14.283
					c8.19-2.992,15.269-0.615,21.042,7.073l-0.8,0.6c-5.477-7.293-12.173-9.558-19.899-6.733
					c-7.034,2.571-11.704,7.168-13.88,13.661c-7.713,23.006,17.813,62.945,18.072,63.346l0.434,0.672l-0.794,0.096
					c-9.316,1.124-15.096,4.473-17.179,9.955c-5.651,14.871,17.193,40.931,17.425,41.192L234.278,438.623z"/>
			</g>
			<g>
				<path style="fill:#788918;" d="M240.653,440.292c0,0-41.561-46.954,0.069-51.974c0,0-41.37-64.064-3.943-77.748
					c17.694-6.469,27.074,13.754,32.047,36.877c0,0,23.656-16.429,26.687,20.416c0,0,25.017-12.262,30.077,16.435
					c5.06,28.697,3.971,53.275,3.971,53.275l-35.041,14.204L240.653,440.292z"/>
			</g>
			<g>
				<path style="fill:#47393D;" d="M292.849,435.001c-37.726-37.473-46.273-96.207-46.355-96.796l0.99-0.139
					c0.081,0.586,8.588,58.995,46.07,96.226L292.849,435.001z"/>
			</g>
			<g>
				<path style="fill:#47393D;" d="M268.45,401.494c-0.033-0.275-3.19-27.697,10.337-42.757l0.744,0.668
					c-13.222,14.719-10.122,41.697-10.088,41.968L268.45,401.494z"/>
			</g>
		</g>
		<g>
			<g>
				<path style="fill:#98A51C;" d="M303.553,557.71l-66.1-0.511c-31.978-15.66-18.501-37.363-3.293-36.846
					c0,0-36.663-7.763-41.552-34.156c-1.384-7.472,5.155-11.439,15.242-13.287c0,0-45.757-39.316-23.39-56.06
					c19.011-14.232,39.922,20.442,39.922,20.442s13.851-21.477,30.417,5.951c0,0,11.365-29.279,33.676-8.022
					c5.432,5.175,6.802,11.405,9.505,15.784L303.553,557.71z"/>
			</g>
			<g>
				<g>
					<path style="fill:#47393D;" d="M309.487,532.227c-62.541-31.521-95.874-83.718-96.204-84.241l0.847-0.533
						c0.328,0.522,33.524,52.489,95.808,83.882L309.487,532.227z"/>
				</g>
				<g>
					<path style="fill:#47393D;" d="M239.366,479.95c-0.067-0.179-6.683-18.105,0.329-37.106l0.939,0.346
						c-6.879,18.641-0.398,36.231-0.332,36.407L239.366,479.95z"/>
				</g>
				<g>
					<path style="fill:#47393D;" d="M261.932,508.035c-27.249,0-44.931-13.153-45.124-13.3l0.605-0.797
						c0.21,0.159,21.403,15.904,53.125,12.655l0.102,0.994C267.644,507.896,264.735,508.035,261.932,508.035z"/>
				</g>
			</g>
			<g>
				<path style="fill:#98A51C;" d="M229.886,557.648c-20.83-10.2-20.509-21.59-19.405-26.013c1.479-5.925,6.774-10.472,12.98-11.548
					c-9.055-2.371-34.069-10.817-38.084-32.5c-0.861-4.65,0.244-9.313,2.958-12.474c2.308-2.688,5.653-4.169,9.729-4.326
					c-5.238-4.606-28.197-25.77-27.713-42.342c0.142-4.855,2.317-8.892,6.464-11.996c6.002-4.492,12.781-4.705,20.152-0.63
					l-0.484,0.875c-6.995-3.867-13.411-3.681-19.068,0.556c-3.891,2.913-5.931,6.689-6.064,11.225
					c-0.521,17.827,28.085,42.183,28.373,42.427l1.098,0.927l-1.436-0.045c-4.369-0.148-7.937,1.239-10.292,3.981
					c-2.518,2.934-3.54,7.285-2.733,11.641c4.768,25.745,40.184,32.391,40.542,32.455l-0.105,0.992
					c-7.117-0.223-13.715,4.496-15.345,11.024c-1.045,4.188-1.3,14.993,18.874,24.872L229.886,557.648z"/>
			</g>
		</g>
		<g>
			<g>
				<g>
					<path style="fill:#FFFFFF;" d="M275.615,442.477c-0.57-0.813-1.153-1.613-1.751-2.401l1.195-0.906
						c0.608,0.802,1.204,1.618,1.784,2.446L275.615,442.477z"/>
				</g>
			</g>
			<g>
				<g>
					<path style="fill:#FFFFFF;" d="M270.158,435.517c-1.245-1.432-2.586-2.886-3.988-4.319l1.073-1.049
						c1.422,1.455,2.783,2.931,4.046,4.384L270.158,435.517z M261.951,427.091c-1.37-1.272-2.851-2.592-4.401-3.922l0.978-1.139
						c1.564,1.344,3.06,2.676,4.444,3.961L261.951,427.091z M253.011,419.398c-1.53-1.235-3.078-2.454-4.639-3.662l0.918-1.185
						c1.569,1.214,3.126,2.438,4.663,3.68L253.011,419.398z M243.67,412.143c-1.25-0.944-2.503-1.886-3.755-2.827l-0.979-0.735
						l0.901-1.199l0.979,0.735c1.254,0.942,2.508,1.885,3.759,2.829L243.67,412.143z M234.201,405.008
						c-1.577-1.199-3.146-2.405-4.702-3.624l0.925-1.182c1.551,1.215,3.115,2.417,4.686,3.612L234.201,405.008z M224.86,397.664
						c-1.62-1.332-3.103-2.592-4.536-3.852l0.99-1.127c1.42,1.249,2.892,2.499,4.499,3.82L224.86,397.664z M215.93,389.791
						c-1.468-1.404-2.882-2.827-4.204-4.227l1.091-1.029c1.304,1.382,2.701,2.786,4.15,4.173L215.93,389.791z M207.761,381.102
						c-0.583-0.699-1.157-1.407-1.72-2.125c-0.659-0.84-1.315-1.713-1.949-2.595l1.218-0.875c0.622,0.864,1.265,1.721,1.911,2.544
						c0.554,0.706,1.118,1.402,1.692,2.09L207.761,381.102z M200.788,371.396c-1.028-1.686-2.011-3.44-2.922-5.218l1.335-0.684
						c0.894,1.744,1.859,3.467,2.868,5.12L200.788,371.396z M195.331,360.764c-0.772-1.817-1.494-3.694-2.144-5.577l1.418-0.49
						c0.639,1.852,1.348,3.695,2.107,5.482L195.331,360.764z M191.432,349.474c-0.517-1.909-0.976-3.866-1.366-5.816l1.471-0.295
						c0.384,1.918,0.836,3.843,1.344,5.719L191.432,349.474z M189.087,337.764c-0.26-1.96-0.46-3.959-0.594-5.943l1.496-0.102
						c0.132,1.952,0.329,3.92,0.585,5.848L189.087,337.764z M188.283,325.854l-0.001-0.283c0-1.891,0.059-3.805,0.174-5.689
						l1.497,0.092c-0.114,1.853-0.171,3.737-0.171,5.598l0.001,0.275L188.283,325.854z M190.502,314.123l-1.488-0.188
						c0.249-1.972,0.566-3.956,0.942-5.899l1.473,0.285C191.059,310.232,190.747,312.184,190.502,314.123z M192.734,302.59
						l-1.45-0.381c0.507-1.927,1.083-3.853,1.715-5.725l1.421,0.479C193.8,298.804,193.233,300.698,192.734,302.59z
						 M196.486,291.467l-1.385-0.576c0.767-1.841,1.605-3.669,2.491-5.434l1.341,0.673
						C198.062,287.864,197.239,289.659,196.486,291.467z M201.757,280.986l-1.287-0.77c1.025-1.715,2.121-3.402,3.258-5.014
						l1.225,0.864C203.839,277.648,202.763,279.303,201.757,280.986z M208.515,271.403l-1.158-0.953
						c1.092-1.327,2.292-2.717,3.892-4.508l1.119,0.999C210.782,268.717,209.593,270.093,208.515,271.403z M216.329,262.533
						l-1.119-0.999c1.582-1.773,2.769-3.15,3.847-4.465l1.16,0.951C219.124,259.351,217.925,260.743,216.329,262.533z
						 M233.071,258.642l-0.4-0.002l0.017-1.5l0.383,0.002c1.805,0,3.627-0.123,5.417-0.365l0.201,1.486
						C236.833,258.515,234.943,258.642,233.071,258.642z M226.662,258.142c-2.004-0.317-3.979-0.786-5.872-1.394l0.459-1.428
						c1.819,0.584,3.719,1.035,5.647,1.34L226.662,258.142z M244.59,257.025l-0.415-1.441c1.874-0.539,3.706-1.218,5.445-2.018
						l0.627,1.362C248.44,255.759,246.536,256.465,244.59,257.025z M215.206,254.441c-1.699-0.874-3.324-1.885-4.831-3.004
						l-0.289-0.217l0.908-1.194l0.273,0.206c1.443,1.072,2.999,2.039,4.625,2.876L215.206,254.441z M223.834,253.251l-1.234-0.853
						l0.134-0.195c1.078-1.575,2.042-3.188,2.87-4.796l1.334,0.686c-0.856,1.664-1.853,3.331-2.964,4.955L223.834,253.251z
						 M255.518,251.977l-0.837-1.245c1.618-1.087,3.137-2.306,4.516-3.623l1.036,1.084
						C258.793,249.569,257.206,250.842,255.518,251.977z M205.613,247.139c-1.403-1.542-2.618-3.184-3.612-4.881l1.295-0.758
						c0.941,1.607,2.093,3.164,3.426,4.629L205.613,247.139z M264.22,243.642l-1.21-0.886c1.126-1.539,2.142-3.204,3.017-4.947
						l1.341,0.673C266.455,240.3,265.396,242.036,264.22,243.642z M229.282,242.528l-1.426-0.468
						c0.624-1.903,1.048-3.796,1.26-5.626l1.49,0.173C230.383,238.537,229.938,240.528,229.282,242.528z M199.59,236.654
						c-0.415-1.474-0.668-2.973-0.751-4.455c-0.018-0.313-0.026-0.627-0.026-0.941c0.001-0.232,0.005-0.462,0.014-0.691l1.499,0.059
						c-0.008,0.212-0.013,0.423-0.013,0.633c0,0.285,0.008,0.57,0.024,0.855c0.078,1.373,0.313,2.764,0.698,4.133L199.59,236.654z
						 M269.642,232.892l-1.429-0.456c0.583-1.829,1.037-3.73,1.349-5.65l1.48,0.24C270.719,229.019,270.248,230.992,269.642,232.892
						z M229.081,230.713c-0.071-0.522-0.162-1.042-0.274-1.562c-0.282-1.308-0.737-2.606-1.352-3.858l1.347-0.661
						c0.669,1.362,1.164,2.776,1.472,4.204c0.12,0.557,0.218,1.116,0.294,1.675L229.081,230.713z M201.515,225.107l-1.394-0.555
						c0.78-1.961,1.857-3.729,3.201-5.255l1.126,0.991C203.218,221.685,202.232,223.306,201.515,225.107z M271.573,221.019
						l-1.5-0.023c0.003-0.219,0.005-0.438,0.005-0.656c0-1.723-0.111-3.454-0.33-5.147l1.487-0.192
						c0.228,1.757,0.343,3.553,0.343,5.338C271.579,220.564,271.577,220.792,271.573,221.019z M224.195,220.651
						c-1.36-1.411-2.884-2.546-4.529-3.371l0.673-1.341c1.797,0.902,3.457,2.138,4.936,3.671L224.195,220.651z M208.885,216.917
						l-0.632-1.36c0.984-0.457,2.016-0.792,3.068-0.994c0.997-0.191,2.025-0.268,3.034-0.225l-0.063,1.499
						c-0.893-0.039-1.805,0.029-2.688,0.199C210.673,216.215,209.758,216.512,208.885,216.917z M268.579,209.503
						c-0.535-1.875-1.216-3.704-2.022-5.438l1.359-0.633c0.84,1.804,1.549,3.708,2.105,5.658L268.579,209.503z"/>
				</g>
			</g>
			<g>
				<g>
					<path style="fill:#FFFFFF;" d="M263.61,198.935c-0.56-0.805-1.16-1.588-1.782-2.33l1.149-0.964
						c0.65,0.775,1.278,1.595,1.863,2.436L263.61,198.935z"/>
				</g>
			</g>
		</g>
		<g>
			<g>
				<g>
					<path style="fill:#47393D;" d="M582.512,221.628l8.313-2.942c0.959-0.339,1.461-1.391,1.122-2.35l-9.877-27.908
						c-0.339-0.959-1.391-1.461-2.35-1.121l-8.313,2.942c-0.959,0.339-1.461,1.391-1.122,2.35l9.877,27.908
						C580.501,221.466,581.553,221.968,582.512,221.628z"/>
				</g>
			</g>
			<g>
				<g>
					<path style="fill:#FFBB8D;" d="M579.885,231.377c0.416-2.076,0.131-4.228-0.814-6.122c-1.796-3.6-4.618-9.512-4.963-11.765
						c-0.242-1.58,4.12-11.159,5.5-10.599c1.443,0.586-3.008,7.859-2.359,8.372c0.37,0.293,4.613-7.129,5.885-6.077
						c1.125,0.93-4.315,7.1-3.701,7.503c0.368,0.242,1.42-1.597,2.702-2.311c0.762-0.424,4.23-1.523,4.334-0.582
						c0.122,1.102-2.57,1.37-3.466,2.021c-1.198,0.87-1.855,2.262-1.663,2.411c0.364,0.284,1.917-1.243,3.318-1.644
						c0.887-0.254,3.817-0.049,3.917,0.537c0.167,0.978-2.582,0.616-3.442,1.111c-1.052,0.606-2.433,1.435-1.85,1.816
						c7.026,4.591,4.922,11.646,4.922,11.646l-0.027,0.185l9.528,36.197l5.712-15.177l15.749,39.004c0,0-19.167,14.462-34.027,3.182
						C572.509,281.498,577.584,242.859,579.885,231.377z"/>
				</g>
			</g>
		</g>
		<g>
			<path style="fill:#47393D;" d="M698.034,242.393l-0.729-0.175c6.629-27.602-8.937-36.522-18.805-39.382
				c-11.747-3.405-16.508-10.981-16.555-11.058l0.639-0.393c0.046,0.074,4.672,7.41,16.125,10.73
				C695.94,207.11,702.983,221.79,698.034,242.393z"/>
		</g>
		<g>
			<path style="fill:#47393D;" d="M622.403,188.535c-0.181-0.359-4.385-8.869-0.866-15.233c2.027-3.666,6.205-5.824,12.416-6.413
				l0.07,0.747c-5.949,0.564-9.93,2.592-11.829,6.028c-3.33,6.021,0.837,14.449,0.879,14.533L622.403,188.535z"/>
		</g>
		<g>
			<path style="fill:#47393D;" d="M622.738,188.367c0,0-4.218-7.337,1.91-16.529c3.862-5.794,18.085-7.83,25.489-2.979
				c5.177,3.392,8.221,9.3,11.404,19.234c6.934,21.641,34.723,14.638,35.404,50.723l-53.787-7.83L622.738,188.367z"/>
		</g>
		<g>
			<g>
				<path style="fill:#FFBB8D;" d="M632.99,542.034l-1.768-18.117h-19.148l4.159,17.591c0,0,2.218,5.898,8.655,5.681
					C631.079,546.98,632.99,542.034,632.99,542.034z"/>
			</g>
		</g>
		<g>
			<g>
				<path style="fill:#FFBB8D;" d="M713.818,542.034l-1.767-18.117h-19.148l4.819,18.251c0,0,1.783,4.228,7.995,5.021
					C711.86,547.973,713.818,542.034,713.818,542.034z"/>
			</g>
		</g>
		<g>
			<path style="fill:#788918;" d="M646.35,531.667c0,0-23.574,7.489-50.468-2.383c0,0-18.181-122.934,16.136-216.577l41.037,3.886
				C653.055,316.593,631.127,430.211,646.35,531.667z"/>
		</g>
		<g>
			<g>
				<path style="fill:#788918;" d="M670.105,531.642c0,0-39.73-122.228-35.768-214.707l53.46,3.328
					c-6.128,88.17,37.106,211.745,37.106,211.745S702.776,537.455,670.105,531.642L670.105,531.642z"/>
			</g>
		</g>
		<g>
			<g>
				<path style="fill:#F9614A;" d="M598.797,258.37c0,0,9.681-39.213,41.961-40.056c62.31-1.628,71.344,48.151,71.344,48.151
					s-11.265,18.229-31.806,24.413l-69.135-17.449C602.546,265.919,598.797,258.37,598.797,258.37z"/>
			</g>
		</g>
		<g>
			<g>
				<g>
					<path style="fill:#FFBB8D;" d="M653.278,219.337c-2.674-7.353-3.819-15.587-3.492-24.668l-14.84,9.722l-1.914,17.817
						c0,0,3.336,3.451,8.696,3.182C644.944,225.228,648.888,223.727,653.278,219.337z"/>
				</g>
			</g>
			<g>
				<g>
					<path style="fill:#47393D;" d="M633.688,215.667c10.247-3.359,12.36-11.611,12.36-11.611l-11.492,3.532L633.688,215.667z"/>
				</g>
			</g>
		</g>
		<g>
			<path style="fill:#F9614A;" d="M577.18,234.37l15.149,0.17l6.468,23.83c0,0,6.149-32.255,34.553-39.149l-10.383,61.106
				c0,0-9.702,18.723-28.936,15.149C574.797,291.901,570.542,263.646,577.18,234.37z"/>
		</g>
		<g>
			<path style="fill:#FFBB8D;" d="M644.123,176.946c-6.544-3.626-17.741-3.961-20.325,5.033c-2.385,8.3-2.556,31.466,8.204,30.989
				C654.287,211.98,651.136,180.831,644.123,176.946z"/>
		</g>
		<g>
			<g>
				<g>
					<g>
						<rect x="296.441" y="92.395" style="fill:#FFFFFF;" width="256.626" height="435.185"/>
					</g>
				</g>
				<g>
					<g>
						<path style="fill:#47393D;" d="M553.004,73.33v19.469H296.377V73.33c0-6.612,5.362-11.971,11.974-11.971h232.683
							C547.645,61.36,553.004,66.718,553.004,73.33z"/>
					</g>
				</g>
				<g>
					<g>
						<path style="fill:#47393D;" d="M296.377,527.985h256.627v19.13c0,6.612-5.359,11.974-11.971,11.974H308.35
							c-6.612,0-11.974-5.362-11.974-11.974V527.985z"/>
					</g>
				</g>
				<g>
					<g>
						<rect x="551.685" y="92.799" style="fill:#47393D;" width="1.319" height="435.34"/>
					</g>
				</g>
			</g>
			<g>
				<g>
					<g>
						<path style="fill:#F2E9E8;" d="M458.022,77.254H393.36c-0.637,0-1.154-0.517-1.154-1.154c0-0.637,0.517-1.154,1.154-1.154
							h64.662c0.637,0,1.154,0.517,1.154,1.154C459.176,76.738,458.659,77.254,458.022,77.254z"/>
					</g>
				</g>
			</g>
		</g>
		<g>
			<g>
				<path style="fill:#FFCE76;" d="M522.746,353.711H326.337c-3.824,0-6.924-3.1-6.924-6.924V175.731c0-3.824,3.1-6.924,6.924-6.924
					h196.409c3.824,0,6.924,3.1,6.924,6.924v171.057C529.67,350.612,526.57,353.711,522.746,353.711z"/>
			</g>
		</g>
		<g>
			<path style="fill:#47393D;" d="M484.355,320.788l-0.922-0.387c12.451-29.677-3.333-42.493-13.851-47.491
				c-12.575-5.976-16.42-15.075-16.578-15.46l0.925-0.379c0.038,0.091,3.877,9.136,16.082,14.936
				C488.456,280.772,493.685,298.553,484.355,320.788z"/>
		</g>
		<g>
			<g>
				
					<ellipse transform="matrix(0.164 -0.9865 0.9865 0.164 76.471 422.3304)" style="fill:#788918;" cx="287.393" cy="166.05" rx="44.787" ry="44.787"/>
			</g>
		</g>
		<g>
			<path style="fill:#47393D;" d="M482.373,313.727l-52.91-17.68l-46.41,24.39c-9.02-35.24,14.974-36.836,16-62.47
				c0.532-13.278,3.532-27.321,11.574-32.172c4.583-2.764,10.404-1.532,10.404-1.532c6.638-5.872,17.598-2.622,21.958,1.532
				c5.055,4.816,8.634,12.822,10.184,24.502C456.553,275.727,488.833,273.497,482.373,313.727z"/>
		</g>
		<g>
			<g>
				<g>
					<g>
						<path style="fill:#FFBB8D;" d="M434.876,269.359h-19.468l-2.909,23.834c2.175,2.784,7.343,8.112,14.62,7.381
							c4.94-0.5,8.424-3.965,10.662-7.277C438.059,293.296,434.876,269.359,434.876,269.359z"/>
					</g>
				</g>
				<g>
					<g>
						<path style="fill:#47393D;" d="M436.668,283.182c-14.359,5.952-20.641-2.706-20.641-2.706l19.495-6.209
							C435.858,276.843,436.281,280.095,436.668,283.182z"/>
					</g>
				</g>
				<g>
					<g>
						<path style="fill:#FFBB8D;" d="M443.8,241.263c3.53,11.896,0.307,42.751-18.353,42.805
							c-20.009,0.058-20.965-33.476-17.633-44.249C412.104,225.947,439.975,228.372,443.8,241.263z"/>
					</g>
				</g>
			</g>
		</g>
		<g>
			<g>
				<g>
					<g>
						<g>
							<path style="fill:#FFFFFF;" d="M284.701,134.345l-0.541-1.389c3.642-1.42,7.453-2.104,11.316-2.028l-0.028,1.49
								C291.82,132.352,288.112,133.015,284.701,134.345z"/>
						</g>
					</g>
					<g>
						<g>
							<path style="fill:#FFFFFF;" d="M263.405,170.031c-1.84-14.138,4.747-28.19,16.39-34.966l0.75,1.289
								c-11.131,6.478-17.426,19.934-15.662,33.484L263.405,170.031z"/>
						</g>
					</g>
					<g>
						<g>
							<path style="fill:#FFFFFF;" d="M266.979,181.523c-1.229-2.374-2.184-4.916-2.836-7.556l1.448-0.357
								c0.624,2.525,1.536,4.957,2.712,7.227L266.979,181.523z"/>
						</g>
					</g>
					<g>
						<g>
							<path style="fill:#FFFFFF;" d="M274.49,149.152l-1.236-0.834c7.287-10.79,21.236-14.814,32.45-9.358l-0.653,1.34
								C294.504,135.168,281.364,138.973,274.49,149.152z"/>
						</g>
					</g>
					<g>
						<g>
							<path style="fill:#FFFFFF;" d="M271.469,178.792c-4.326-8.344-4.415-18.426-0.239-26.969l1.34,0.654
								c-3.969,8.121-3.886,17.702,0.223,25.629L271.469,178.792z"/>
						</g>
					</g>
					<g>
						<g>
							<path style="fill:#FFFFFF;" d="M309.365,150.469c-4.188-5.077-10.707-7.704-17.027-6.859l-0.198-1.478
								c6.818-0.918,13.862,1.916,18.375,7.387L309.365,150.469z"/>
						</g>
					</g>
					<g>
						<g>
							<path style="fill:#FFFFFF;" d="M275.95,176.059c-3.13-6.06-3.463-13.31-0.914-19.892c2.393-6.179,6.955-10.785,12.845-12.97
								l0.518,1.398c-5.484,2.034-9.736,6.334-11.973,12.11c-2.359,6.093-2.042,13.073,0.849,18.67L275.95,176.059z"/>
						</g>
					</g>
					<g>
						<g>
							<path style="fill:#FFFFFF;" d="M280.432,173.326c-2.686-5.191-2.651-11.671,0.091-16.913l1.321,0.691
								c-2.52,4.817-2.554,10.77-0.088,15.536L280.432,173.326z"/>
						</g>
					</g>
					<g>
						<g>
							<path style="fill:#FFFFFF;" d="M307.332,156.933c-2.141-4.131-5.962-6.92-10.484-7.654
								c-4.409-0.714-8.795,0.681-12.033,3.829l-1.039-1.069c3.58-3.48,8.433-5.022,13.311-4.232
								c4.993,0.809,9.209,3.886,11.569,8.439L307.332,156.933z"/>
						</g>
					</g>
					<g>
						<g>
							<path style="fill:#FFFFFF;" d="M302.849,159.665c-0.457-0.883-1.035-1.689-1.716-2.393l1.072-1.036
								c0.782,0.809,1.444,1.732,1.968,2.744L302.849,159.665z"/>
						</g>
					</g>
					<g>
						<g>
							<path style="fill:#FFFFFF;" d="M284.915,170.593c-2.29-4.426-1.443-10.23,2.059-14.115c3.027-3.357,7.31-4.39,11.459-2.764
								l-0.545,1.388c-3.598-1.412-7.173-0.547-9.806,2.373c-3.095,3.434-3.852,8.546-1.842,12.432L284.915,170.593z"/>
						</g>
					</g>
					<g>
						<g>
							<path style="fill:#FFFFFF;" d="M289.399,167.861c-1.546-2.984-0.525-6.8,2.275-8.507c1.354-0.825,2.924-1.048,4.418-0.63
								c1.548,0.433,2.826,1.494,3.599,2.987l-1.324,0.685c-0.581-1.122-1.531-1.916-2.676-2.236
								c-1.092-0.305-2.242-0.14-3.24,0.468c-2.145,1.307-2.919,4.245-1.726,6.547L289.399,167.861z"/>
						</g>
					</g>
				</g>
			</g>
			<g>
				<g>
					<g>
						<g>
							<path style="fill:#FFFFFF;" d="M310.151,164.819c-0.636-2.794-1.622-5.495-2.931-8.026l1.325-0.684
								c1.366,2.643,2.395,5.462,3.059,8.38L310.151,164.819z"/>
						</g>
					</g>
					<g>
						<g>
							<path style="fill:#FFFFFF;" d="M300.749,198.951l-0.984-1.12c8.041-7.065,12.26-18.304,11.01-29.331l1.482-0.168
								C313.561,179.836,309.151,191.569,300.749,198.951z"/>
						</g>
					</g>
					<g>
						<g>
							<path style="fill:#FFFFFF;" d="M280.555,201.176c-1.36,0-2.725-0.115-4.085-0.351l0.255-1.469
								c9.76,1.693,19.896-3.26,25.221-12.325l1.286,0.755C298.334,196.126,289.571,201.176,280.555,201.176z"/>
						</g>
					</g>
					<g>
						<g>
							<path style="fill:#FFFFFF;" d="M305.208,183.748l-1.385-0.552c3.042-7.637,2.637-16.486-1.084-23.67l1.324-0.686
								C307.979,166.404,308.408,175.715,305.208,183.748z"/>
						</g>
					</g>
					<g>
						<g>
							<path style="fill:#FFFFFF;" d="M280.751,195.673c-1.789,0-3.585-0.245-5.352-0.739c-5.588-1.564-10.209-5.407-13.013-10.822
								l1.324-0.685c2.612,5.043,6.905,8.62,12.091,10.071c4.974,1.393,10.203,0.641,14.724-2.114
								c9.561-5.827,13.028-18.894,7.728-29.129l1.324-0.685c5.653,10.916,1.94,24.862-8.276,31.088
								C288.026,194.652,284.404,195.673,280.751,195.673z"/>
						</g>
					</g>
					<g>
						<g>
							<path style="fill:#FFFFFF;" d="M295.542,171.378c-0.156-2.24-0.769-4.451-1.773-6.392l1.324-0.685
								c1.097,2.121,1.767,4.532,1.937,6.973L295.542,171.378z"/>
						</g>
					</g>
					<g>
						<g>
							<path style="fill:#FFFFFF;" d="M288.818,187.862l-0.778-1.273c3.903-2.384,6.654-6.679,7.361-11.489l1.475,0.217
								C296.106,180.559,293.094,185.249,288.818,187.862z"/>
						</g>
					</g>
					<g>
						<g>
							<path style="fill:#FFFFFF;" d="M280.949,190.125c-5.715,0-11.277-3.322-14.08-8.746l1.324-0.684
								c3.079,5.956,9.806,9.125,16,7.531l0.372,1.444C283.369,189.977,282.155,190.125,280.949,190.125z"/>
						</g>
					</g>
					<g>
						<g>
							<path style="fill:#FFFFFF;" d="M273.654,181.721c-0.928-0.881-1.703-1.915-2.302-3.074l1.325-0.684
								c0.522,1.011,1.196,1.911,2.004,2.677L273.654,181.721z"/>
						</g>
					</g>
					<g>
						<g>
							<path style="fill:#FFFFFF;" d="M280.97,184.658c-1.138,0-2.301-0.194-3.457-0.592l0.484-1.41
								c3.582,1.23,7.086,0.256,9.615-2.674c2.952-3.42,3.64-8.463,1.674-12.263l1.324-0.685c2.239,4.328,1.471,10.053-1.869,13.923
								C286.651,183.378,283.891,184.658,280.97,184.658z"/>
						</g>
					</g>
					<g>
						<g>
							<path style="fill:#FFFFFF;" d="M280.925,179.108c-0.498,0-0.997-0.068-1.49-0.206c-1.548-0.433-2.826-1.494-3.6-2.987
								l1.324-0.686c0.581,1.122,1.532,1.916,2.677,2.237c1.092,0.305,2.242,0.14,3.239-0.468c2.145-1.307,2.919-4.245,1.727-6.548
								l1.324-0.685c1.545,2.985,0.525,6.801-2.275,8.507C282.944,178.825,281.939,179.108,280.925,179.108z"/>
						</g>
					</g>
				</g>
			</g>
		</g>
		<g>
			<g>
				<path style="fill:#F9614A;" d="M408.944,467.544H286.097c-4.702,0-8.513-3.811-8.513-8.513v-71.707
					c0-4.702,3.811-8.513,8.513-8.513h122.847c4.701,0,8.513,3.811,8.513,8.513v71.707
					C417.457,463.733,413.645,467.544,408.944,467.544z"/>
			</g>
			<g>
				<g>
					<g>
						<g>
							<g>
								<g>
									<path style="fill:#FFFFFF;" d="M358.837,400.657h-3.023v-7.697c0-4.272-3.467-7.749-7.749-7.749
										c-4.282,0-7.749,3.477-7.749,7.749v7.697h-3.023c-2.837,0-5.128,2.291-5.128,5.128v16.416c0,2.827,2.291,5.128,5.128,5.128
										h21.544c2.837,0,5.128-2.301,5.128-5.128v-16.416C363.965,402.947,361.675,400.657,358.837,400.657z M349.603,414.793
										v5.231h-3.075v-5.231c-1.217-0.578-2.053-1.816-2.053-3.25c0-1.981,1.61-3.591,3.591-3.591c1.991,0,3.591,1.61,3.591,3.591
										C351.656,412.977,350.82,414.215,349.603,414.793z M343.278,400.657v-7.388c0-2.641,2.146-4.788,4.788-4.788
										c2.642,0,4.788,2.146,4.788,4.788v7.388H343.278z"/>
								</g>
							</g>
						</g>
					</g>
				</g>
			</g>
			<g>
				<g>
					<g>
						<path style="fill:#FFFFFF;" d="M401.36,456.378H294.771c-1.724,0-3.121-1.397-3.121-3.121v-14.613
							c0-1.724,1.397-3.121,3.121-3.121H401.36c1.724,0,3.121,1.397,3.121,3.121v14.613
							C404.481,454.981,403.083,456.378,401.36,456.378z"/>
					</g>
				</g>
			</g>
			<g>
				<g>
					<g>
						<g>
							<g>
								<g>
									<path style="fill:#47393D;" d="M314.979,445.807c0,1.939-1.572,3.511-3.51,3.511c-1.939,0-3.511-1.572-3.511-3.511
										c0-1.939,1.572-3.511,3.511-3.511C313.408,442.296,314.979,443.868,314.979,445.807z"/>
								</g>
							</g>
						</g>
					</g>
				</g>
				<g>
					<g>
						<g>
							<g>
								<g>
									<path style="fill:#47393D;" d="M328.814,445.807c0,1.939-1.572,3.511-3.51,3.511c-1.939,0-3.511-1.572-3.511-3.511
										c0-1.939,1.572-3.511,3.511-3.511C327.243,442.296,328.814,443.868,328.814,445.807z"/>
								</g>
							</g>
						</g>
					</g>
				</g>
				<g>
					<g>
						<g>
							<g>
								<g>
									<path style="fill:#47393D;" d="M342.649,445.807c0,1.939-1.572,3.511-3.511,3.511c-1.939,0-3.51-1.572-3.51-3.511
										c0-1.939,1.572-3.511,3.51-3.511C341.077,442.296,342.649,443.868,342.649,445.807z"/>
								</g>
							</g>
						</g>
					</g>
				</g>
				<g>
					<g>
						<g>
							<g>
								<g>
									<path style="fill:#47393D;" d="M356.484,445.807c0,1.939-1.572,3.511-3.511,3.511c-1.939,0-3.51-1.572-3.51-3.511
										c0-1.939,1.572-3.511,3.51-3.511C354.912,442.296,356.484,443.868,356.484,445.807z"/>
								</g>
							</g>
						</g>
					</g>
				</g>
				<g>
					<g>
						<g>
							<g>
								<g>
									<circle style="fill:#47393D;" cx="366.808" cy="445.807" r="3.511"/>
								</g>
							</g>
						</g>
					</g>
				</g>
				<g>
					<g>
						<g>
							<g>
								<g>
									<circle style="fill:#47393D;" cx="380.643" cy="445.807" r="3.511"/>
								</g>
							</g>
						</g>
					</g>
				</g>
			</g>
		</g>
		<g>
			<g>
				<path style="fill:#47393D;" d="M716.69,556.986h-45.705c-0.055-0.541-0.165-2.211,0.183-3.964
					c0.018-0.037,44.879,0.257,44.879,0.257L716.69,556.986z"/>
			</g>
			<g>
				<path style="fill:#47393D;" d="M716.047,553.279l-44.86-0.294c0.431-4.643,6.258-6.827,11.699-8.212
					c0.367-0.092,0.725-0.174,1.083-0.266c0.78-0.184,1.542-0.349,2.266-0.514c0.376-0.083,0.743-0.165,1.092-0.239
					c1.881-0.422,3.441-0.78,4.34-1.202c0.807-0.385,1.789-0.945,2.643-1.459c0.294-0.174,0.56-0.349,0.807-0.505
					c0.807-0.505,1.386-0.89,1.386-0.89c2.936,0.963,7.359,3.725,17.067-0.67l0.294,1.688l0.165,0.954L716.047,553.279z"/>
			</g>
			<g>
				<g>
					<g>
						<path style="fill:#FFFFFF;" d="M683.969,544.507c-0.679,1.569-0.752,3.257-0.752,3.276l-0.918-0.037
							c0.009-0.092,0.064-1.468,0.587-2.973C683.253,544.682,683.611,544.599,683.969,544.507z"/>
					</g>
				</g>
				<g>
					<g>
						<path style="fill:#FFFFFF;" d="M687.327,543.755c-0.752,1.624-0.826,3.423-0.826,3.441l-0.918-0.028
							c0-0.101,0.064-1.597,0.651-3.175C686.611,543.911,686.978,543.828,687.327,543.755z"/>
					</g>
				</g>
			</g>
			<g>
				<g>
					<path style="fill:#FFFFFF;" d="M714.029,541.672c-4.001,1.991-7.423,2.679-10.258,2.679c-5.239,0-8.442-2.367-9.46-3.257
						c0.294-0.174,0.56-0.349,0.807-0.505c1.707,1.459,7.955,5.625,18.746,0.128L714.029,541.672z"/>
				</g>
			</g>
			<g>
				<rect x="671.186" y="552.485" style="fill:#FFFFFF;" width="44.86" height="1"/>
			</g>
		</g>
		<g>
			<g>
				<path style="fill:#47393D;" d="M636.009,556.986h-45.705c-0.055-0.541-0.165-2.211,0.184-3.964
					c0.018-0.037,44.879,0.257,44.879,0.257L636.009,556.986z"/>
			</g>
			<g>
				<path style="fill:#47393D;" d="M635.366,553.279l-44.86-0.294c0.431-4.643,6.258-6.827,11.699-8.212
					c0.367-0.092,0.725-0.174,1.083-0.266c0.78-0.184,1.542-0.349,2.266-0.514c0.376-0.083,0.743-0.165,1.092-0.239
					c1.881-0.422,3.441-0.78,4.34-1.202c0.807-0.385,1.789-0.945,2.643-1.459c0.294-0.174,0.56-0.349,0.807-0.505
					c0.807-0.505,1.386-0.89,1.386-0.89c2.936,0.963,7.359,3.725,17.067-0.67l0.294,1.688l0.165,0.954L635.366,553.279z"/>
			</g>
			<g>
				<g>
					<g>
						<path style="fill:#FFFFFF;" d="M603.288,544.507c-0.679,1.569-0.752,3.257-0.752,3.276l-0.918-0.037
							c0.009-0.092,0.064-1.468,0.587-2.973C602.572,544.682,602.93,544.599,603.288,544.507z"/>
					</g>
				</g>
				<g>
					<g>
						<path style="fill:#FFFFFF;" d="M606.646,543.755c-0.752,1.624-0.826,3.423-0.826,3.441l-0.918-0.028
							c0-0.101,0.064-1.597,0.651-3.175C605.93,543.911,606.298,543.828,606.646,543.755z"/>
					</g>
				</g>
			</g>
			<g>
				<g>
					<path style="fill:#FFFFFF;" d="M633.348,541.672c-4.001,1.991-7.423,2.679-10.258,2.679c-5.239,0-8.442-2.367-9.46-3.257
						c0.294-0.174,0.56-0.349,0.807-0.505c1.707,1.459,7.955,5.625,18.746,0.128L633.348,541.672z"/>
				</g>
			</g>
			<g>
				<rect x="590.506" y="552.485" style="fill:#FFFFFF;" width="44.482" height="1"/>
			</g>
		</g>
		<g>
			<g>
				<g>
					<path style="fill:#47393D;" d="M680.188,290.883l0.972-0.186c-2.775-14.456-8.541-25.559-8.599-25.67l-0.876,0.459
						C671.742,265.595,677.441,276.577,680.188,290.883z"/>
				</g>
			</g>
		</g>
		<g>
			<path style="fill:#47393D;" d="M647.376,189.423c-14.387-0.224-16.77-9.585-16.77-9.585c-5.957-3.064-7.867,8.529-7.867,8.529
				s-3.367-8.018,1.168-13.509c1.945-2.355,5.901-4.502,11.813-5.184c9-1.038,14.751,1.324,17.737,8.292
				c4.673,10.904-1.404,16.34-1.404,16.34L647.376,189.423z"/>
		</g>
		<g>
			<path style="fill:#47393D;" d="M444.904,252.093c-17.854,2.036-24.638-12.128-24.638-12.128
				c-12-5.234-14.553,10.851-14.553,10.851s-2.7-7.689,0.971-15.241c6.306-12.972,32.35-8.544,37.05-1.216
				c7.355,11.467,3.724,19.776,3.724,19.776L444.904,252.093z"/>
		</g>
		<g>
			<path style="fill:#47393D;" d="M644.237,190.071c-4.872,0-8.592-1.185-11.087-3.537c-3.312-3.122-3.182-7.118-3.175-7.287
				l0.75,0.031c-0.002,0.038-0.115,3.839,2.949,6.72c2.907,2.733,7.632,3.788,14.046,3.137l0.076,0.746
				C646.55,190.008,645.362,190.071,644.237,190.071z"/>
		</g>
		<g>
			<path style="fill:#FFBB8D;" d="M645.657,197.794c0,0,6.506,1.119,7.105-3.793c0.539-4.432-4.775-5.697-7.277-3.566
				L645.657,197.794z"/>
		</g>
		<g>
			<path style="fill:#47393D;" d="M436.469,253.912c-3.5,0-6.558-0.833-9.142-2.496c-6.404-4.122-7.513-11.783-7.558-12.107
				l0.991-0.135c0.01,0.075,1.1,7.541,7.116,11.407c4.257,2.734,9.937,3.063,16.883,0.977l0.288,0.958
				C441.949,253.446,439.085,253.912,436.469,253.912z"/>
		</g>
		<g>
			<g>
				<g>
					<path style="fill:#FFFFFF;" d="M684.492,269.046c3.534,36.526,8.412,58.06,8.412,58.06
						c-30.808,3.404-69.152,0.465-92.596-11.193l14.608-65.023l17.903-29.789c0,0,8.48,8.633,19.745-2.901l27.404,15.74
						L684.492,269.046z"/>
				</g>
			</g>
			<g>
				<path style="fill:#FFFFFF;" d="M635.071,216.02c2.593,0.483,8.53,0.775,15.198-4.372c0.758-0.585,1.866-0.204,2.074,0.731
					l1.623,7.289c0,0-11.362,11.89-20.936,2.541l0.507-5.043C633.614,216.405,634.32,215.88,635.071,216.02z"/>
			</g>
		</g>
		<g>
			<path style="fill:#47393D;" d="M399.536,252.227c-0.103-0.726-2.425-17.868,5.899-25.398c3.721-3.365,8.987-4.242,15.651-2.605
				l-0.238,0.971c-6.324-1.553-11.283-0.754-14.742,2.376c-7.934,7.178-5.604,24.343-5.58,24.516L399.536,252.227z"/>
		</g>
		<g>
			<g>
				<path style="fill:#FFFFFF;" d="M669.629,531.796c-0.283-0.872-28.431-88.19-34.784-170.116l0.996-0.078
					c6.346,81.81,34.456,169.015,34.739,169.886L669.629,531.796z"/>
			</g>
		</g>
		<g>
			<g>
				<path style="fill:#FFFFFF;" d="M639.301,532.751c0,0-0.132-1.048-0.35-2.982l0.994-0.111c0.216,1.922,0.348,2.966,0.348,2.968
					L639.301,532.751z"/>
			</g>
			<g>
				<path style="fill:#FFFFFF;" d="M638.33,523.935c-0.176-1.731-0.365-3.689-0.562-5.846l0.996-0.09
					c0.196,2.152,0.386,4.106,0.56,5.836L638.33,523.935z M637.262,512.242c-0.152-1.855-0.307-3.811-0.457-5.853l0.998-0.074
					c0.15,2.04,0.303,3.991,0.455,5.845L637.262,512.242z M636.398,500.532c-0.123-1.897-0.242-3.853-0.355-5.859l0.998-0.057
					c0.113,2.004,0.232,3.956,0.355,5.852L636.398,500.532z M635.74,488.81c-0.092-1.92-0.175-3.877-0.249-5.865l1-0.037
					c0.074,1.984,0.156,3.938,0.247,5.855L635.74,488.81z M635.299,477.077c-0.054-1.935-0.099-3.892-0.133-5.869l1-0.018
					c0.034,1.973,0.079,3.928,0.133,5.859L635.299,477.077z M635.099,465.341c-0.006-0.993-0.009-1.989-0.009-2.989
					c0-0.958,0.003-1.918,0.009-2.881l1,0.006c-0.006,0.961-0.009,1.919-0.009,2.875c0,0.998,0.003,1.992,0.009,2.983
					L635.099,465.341z M636.171,453.62l-1-0.02c0.037-1.954,0.088-3.912,0.152-5.87l1,0.033
					C636.259,449.716,636.208,451.67,636.171,453.62z M636.561,441.91l-0.998-0.049c0.096-1.961,0.207-3.918,0.335-5.865
					l0.998,0.066C636.769,438.004,636.657,439.955,636.561,441.91z M637.335,430.222l-0.996-0.084
					c0.167-1.966,0.354-3.918,0.56-5.851l0.994,0.105C637.688,426.319,637.502,428.264,637.335,430.222z M638.586,418.579
					l-0.992-0.131c0.261-1.969,0.546-3.926,0.849-5.816l0.988,0.158C639.128,414.672,638.844,416.619,638.586,418.579z"/>
			</g>
			<g>
				<path style="fill:#FFFFFF;" d="M640.451,407.043l-0.982-0.191c0.194-0.993,0.396-1.978,0.606-2.949l0.977,0.211
					C640.844,405.079,640.644,406.056,640.451,407.043z"/>
			</g>
		</g>
		<g>
			<g>
				<path style="fill:#FFFFFF;" d="M717.456,532.861c0,0-0.364-0.988-1.016-2.825l0.943-0.334c0.648,1.827,1.01,2.812,1.01,2.814
					L717.456,532.861z"/>
			</g>
			<g>
				<path style="fill:#FFFFFF;" d="M714.557,524.618c-0.552-1.609-1.167-3.432-1.837-5.443l0.949-0.316
					c0.668,2.01,1.283,3.828,1.833,5.435L714.557,524.618z M710.93,513.716c-0.56-1.731-1.145-3.558-1.748-5.472l0.953-0.301
					c0.604,1.912,1.187,3.736,1.746,5.464L710.93,513.716z M707.475,502.763c-0.546-1.775-1.102-3.609-1.666-5.495l0.959-0.287
					c0.563,1.884,1.118,3.716,1.662,5.489L707.475,502.763z M704.185,491.758c-0.523-1.803-1.051-3.646-1.58-5.522l0.963-0.271
					c0.527,1.874,1.055,3.713,1.578,5.514L704.185,491.758z M701.069,480.703c-0.497-1.823-0.995-3.673-1.489-5.546l0.967-0.256
					c0.494,1.871,0.99,3.719,1.487,5.538L701.069,480.703z M698.139,469.597c-0.469-1.839-0.933-3.698-1.39-5.572l0.971-0.236
					c0.457,1.87,0.921,3.726,1.388,5.563L698.139,469.597z M695.411,458.439c-0.434-1.855-0.86-3.724-1.278-5.6l0.977-0.217
					c0.416,1.872,0.843,3.736,1.276,5.588L695.411,458.439z M692.916,447.229c-0.395-1.87-0.779-3.746-1.151-5.626l0.98-0.195
					c0.372,1.876,0.755,3.748,1.149,5.614L692.916,447.229z M690.683,435.96c-0.348-1.888-0.683-3.775-1.003-5.66l0.986-0.168
					c0.318,1.881,0.653,3.765,1.001,5.646L690.683,435.96z"/>
			</g>
			<g>
				<path style="fill:#FFFFFF;" d="M688.768,424.665c-0.152-0.99-0.3-1.98-0.444-2.968l0.99-0.145
					c0.143,0.985,0.29,1.972,0.442,2.96L688.768,424.665z"/>
			</g>
		</g>
		<g>
			<g>
				<g>
					<path style="fill:#47393D;" d="M657.897,319.77c-19.801,0-36.516-2.908-52.132-8.9l0.357-0.934
						c22.504,8.634,47.338,10.818,80.524,7.08l0.111,0.994C676.392,319.178,666.829,319.77,657.897,319.77z"/>
				</g>
			</g>
			<g>
				<g>
					<path style="fill:#47393D;" d="M657.512,309.776c-19.801,0-36.515-2.908-52.132-8.899l0.357-0.934
						c22.505,8.633,47.337,10.817,80.525,7.079l0.111,0.994C676.007,309.185,666.443,309.776,657.512,309.776z"/>
				</g>
			</g>
			<g>
				<g>
					<path style="fill:#47393D;" d="M657.161,299.797c-0.466,0-0.929-0.001-1.391-0.005c-11.074-0.077-21.095-1.069-30.634-3.035
						c-6.563-1.351-12.97-3.187-19.04-5.458l0.35-0.936c6.023,2.252,12.379,4.074,18.892,5.414
						c9.475,1.952,19.432,2.938,30.44,3.014c9.123,0.075,18.975-0.511,30.104-1.761l0.111,0.994
						C675.387,299.216,665.938,299.797,657.161,299.797z"/>
				</g>
			</g>
			<g>
				<g>
					<path style="fill:#47393D;" d="M656.837,289.801c-0.526,0-1.05-0.003-1.571-0.006c-10.579-0.075-20.186-0.992-29.371-2.805
						c-6.298-1.235-12.495-2.931-18.419-5.039l0.336-0.942c5.877,2.092,12.026,3.775,18.276,5
						c9.122,1.801,18.669,2.712,29.185,2.787c9.233,0.072,19.118-0.501,30.224-1.756l0.111,0.994
						C675.09,289.221,665.657,289.801,656.837,289.801z"/>
				</g>
			</g>
			<g>
				<g>
					<path style="fill:#47393D;" d="M656.299,279.813c-0.516,0-1.028-0.002-1.539-0.006c-10.098-0.083-19.292-0.929-28.107-2.585
						c-6.109-1.148-12.099-2.713-17.801-4.653l0.322-0.946c5.657,1.924,11.6,3.477,17.664,4.617
						c8.755,1.646,17.891,2.485,27.929,2.568c9.273,0.065,19.195-0.505,30.344-1.761l0.111,0.994
						C674.65,279.231,665.169,279.813,656.299,279.813z"/>
				</g>
			</g>
			<g>
				<g>
					<path style="fill:#47393D;" d="M656.163,269.815c-0.589,0-1.173-0.003-1.755-0.008h-0.146
						c-9.508-0.073-18.223-0.841-26.648-2.348l-0.189-0.03c-5.751-1.014-11.466-2.429-16.986-4.207l-0.093-0.027l0.183-0.989
						l0.217,0.064c5.477,1.764,11.148,3.168,16.854,4.174l0.191,0.03c8.369,1.497,17.029,2.26,26.476,2.332h0.146
						c9.062,0.087,18.989-0.49,30.314-1.757l0.111,0.994C674.199,269.233,664.796,269.815,656.163,269.815z"/>
				</g>
			</g>
			<g>
				<g>
					<path style="fill:#47393D;" d="M655.926,259.814c-0.542,0-1.08-0.003-1.617-0.007h-0.556
						c-8.864-0.072-17.035-0.749-24.982-2.067l0.164-0.986c7.896,1.31,16.015,1.982,24.822,2.053h0.556
						c9.148,0.077,18.957-0.496,30.023-1.747l0.113,0.994C673.99,259.236,664.639,259.814,655.926,259.814z"/>
				</g>
			</g>
			<g>
				<g>
					<path style="fill:#47393D;" d="M652.543,249.778c-8.033,0-15.447-0.5-22.641-1.526l0.141-0.99
						c7.362,1.05,14.962,1.545,23.227,1.515c0.297-0.001,0.611,0,0.927-0.01c9.084-0.066,18.816-0.769,29.763-2.146l0.125,0.992
						c-10.986,1.383-20.756,2.087-29.868,2.154C653.661,249.785,653.102,249.779,652.543,249.778z"/>
				</g>
			</g>
			<g>
				<g>
					<path style="fill:#47393D;" d="M648.91,239.856c-6.306,0-12.173-0.318-17.883-0.962l0.111-0.994
						c6.854,0.773,13.935,1.072,21.654,0.917c0.483-0.011,0.891-0.021,1.297-0.04c9.021-0.247,18.655-1.129,29.462-2.695
						l0.143,0.989c-10.845,1.572-20.517,2.457-29.568,2.706c-0.404,0.018-0.818,0.028-1.225,0.038
						C651.551,239.842,650.221,239.856,648.91,239.856z"/>
				</g>
			</g>
			<g>
				<g>
					<path style="fill:#47393D;" d="M647.783,229.78c-5.404,0-10.536-0.24-15.578-0.726l0.096-0.995
						c6.38,0.614,12.907,0.834,19.96,0.667c0.58-0.01,1.157-0.03,1.734-0.049l0.035,0.999c-0.583,0.02-1.166,0.04-1.749,0.05
						C650.76,229.762,649.261,229.78,647.783,229.78z"/>
				</g>
			</g>
		</g>
		<g>
			<path style="fill:#F9614A;" d="M700.882,339.859c-17.45,0.64-45.8-4.871-45.8-4.871l-1.178-116.215l30.808,17.445
				L700.882,339.859z"/>
		</g>
		<g>
			<path style="fill:#F9614A;" d="M633.35,219.221l-12.85,108.64c-9.16-2.5-16.26-4.99-20.9-6.78l13.62-72.303L633.35,219.221z"/>
		</g>
		<g>
			
				<rect x="596.198" y="233.976" transform="matrix(0.9654 -0.2608 0.2608 0.9654 -44.6192 164.2403)" style="fill:#47393D;" width="0.75" height="32.552"/>
		</g>
		<g>
			<g>
				<path style="fill:#FFBB8D;" d="M681.479,322.235c-1.682,4.516-4.11,8.891-7.484,12.956c-0.785,0.946-2.969,3.604-4.115,4.05
					c-1.062,0.414-7.087,1.911-6.653,3.16c0.454,1.309,4.386-0.585,4.568,0.508c0.112,0.674-7.533,4.514-6.428,5.764
					c0.725,0.82,5.038-2.135,5.253-1.57c0.2,0.524-5.874,3.058-4.862,4.327c1.061,1.33,6.384-3.66,6.838-3.018
					c0.225,0.317-6.624,4.488-5.77,5.503c1.143,1.357,6.051-3.566,6.625-2.992c0.282,0.282-1.763,1.711-2.871,2.716
					c-0.615,0.557-0.264,1.143,0.282,1.005c5.66-1.424,11.405-9.841,12.253-10.355c5.88-3.566,10.816-7.393,14.941-11.386
					L681.479,322.235z"/>
			</g>
		</g>
		<g>
			<path style="fill:#F9614A;" d="M673.521,334.242c0,0,11.681-15.461,7.085-43.851l31.298-24.66c0,0,12.83,56.064-27,77
				L673.521,334.242z"/>
		</g>
		<g>
			<path style="fill:#47393D;" d="M684.679,343.032l-11.727-8.746l0.301-0.307c0.155-0.158,15.335-16.301,3.309-62.814l0.727-0.188
				c11.226,43.419-1.153,60.707-3.22,63.206l11.06,8.247L684.679,343.032z"/>
		</g>
		<g>
			<g>
				<g>
					<path style="fill:#FFFFFF;" d="M351.17,353.785c0,0,4.685-53.929,61.329-60.593h25.82c0,0,61.126,6.947,61.126,60.593H351.17z"
						/>
				</g>
			</g>
			<g>
				<path style="fill:#FFFFFF;" d="M412.499,293.192l1.043-8.227c8.257,4.355,16.048,4.44,23.319,0l1.458,8.227
					c0,0-2.99,8.177-13.373,8.347C415.75,301.69,412.499,293.192,412.499,293.192z"/>
			</g>
		</g>
		<g>
			
				<rect x="587.779" y="274.442" transform="matrix(0.1863 -0.9825 0.9825 0.1863 225.0564 821.3685)" style="fill:#47393D;" width="41.228" height="0.749"/>
		</g>
		<g>
			<path style="fill:#47393D;" d="M679.686,287.835c-1.327-5.889-5.59-11.458-5.633-11.513l0.594-0.458
				c0.179,0.232,4.406,5.753,5.771,11.807L679.686,287.835z"/>
		</g>
		<g>
			<g>
				<g>
					<path style="fill:#47393D;" d="M428.289,349.646c-15.575,0-29.384-2.11-42.555-6.369l0.308-0.951
						c22.936,7.417,47.851,8.266,80.788,2.755l0.165,0.986C452.769,348.447,440.026,349.646,428.289,349.646z"/>
				</g>
			</g>
			<g>
				<g>
					<path style="fill:#47393D;" d="M427.396,339.7c-7.769,0-15.077-0.528-22.156-1.596c-6.625-0.996-13.12-2.486-19.305-4.43
						l0.3-0.953c6.136,1.927,12.581,3.405,19.154,4.395c9.567,1.442,19.562,1.893,30.558,1.38
						c9.114-0.425,18.916-1.528,29.966-3.372l0.165,0.986c-11.09,1.85-20.931,2.958-30.085,3.384
						C433.062,339.632,430.199,339.7,427.396,339.7z"/>
				</g>
			</g>
			<g>
				<g>
					<path style="fill:#47393D;" d="M426.448,329.74c-7.329,0-14.249-0.474-20.973-1.43c-6.36-0.897-12.639-2.259-18.663-4.046
						l0.284-0.959c5.977,1.773,12.207,3.124,18.519,4.015c9.206,1.31,18.79,1.706,29.292,1.219
						c9.221-0.422,19.062-1.525,30.087-3.372l0.165,0.986c-11.064,1.855-20.945,2.961-30.206,3.384
						C432.053,329.673,429.221,329.74,426.448,329.74z"/>
				</g>
			</g>
			<g>
				<g>
					<path style="fill:#47393D;" d="M425.574,319.785c-6.925,0-13.481-0.42-19.864-1.269c-6.167-0.82-12.232-2.063-18.025-3.693
						l0.271-0.963c5.748,1.618,11.766,2.85,17.886,3.664c8.83,1.174,17.998,1.523,28.027,1.068
						c9.258-0.426,19.138-1.532,30.205-3.384l0.165,0.986c-11.107,1.858-21.026,2.969-30.325,3.395
						C431.069,319.721,428.293,319.785,425.574,319.785z"/>
				</g>
			</g>
			<g>
				<g>
					<path style="fill:#47393D;" d="M424.646,309.826c-6.405,0-12.513-0.368-18.5-1.11l-0.186-0.02
						c-5.802-0.704-11.584-1.811-17.191-3.291l-0.098-0.023l0.13-0.997l0.223,0.054c5.563,1.468,11.3,2.566,17.053,3.265l0.188,0.02
						c8.446,1.047,17.134,1.344,26.568,0.911l0.144-0.008c9.076-0.402,18.945-1.508,30.179-3.379l0.164,0.986
						c-11.274,1.878-21.183,2.987-30.292,3.392l-0.152,0.008C430.072,309.762,427.333,309.826,424.646,309.826z"/>
				</g>
			</g>
			<g>
				<g>
					<path style="fill:#47393D;" d="M425.749,299.94c-14.385,0-27.144-2.128-36.971-4.532l-0.105-0.025l0.132-0.997l0.211,0.05
						c17.533,4.289,44.472,7.695,73.242-0.441l0.273,0.962C449.684,298.59,437.2,299.94,425.749,299.94z"/>
				</g>
			</g>
		</g>
		<g>
			<path style="fill:#F9614A;" d="M412.499,293.192l-4.702,60.432l-56.627,0.16C351.17,353.785,354.605,296.419,412.499,293.192z"/>
		</g>
		<g>
			<path style="fill:#F9614A;" d="M438.319,293.192l4.702,60.432l56.627,0.16C499.648,353.785,501.712,298.816,438.319,293.192z"/>
		</g>
		<g>
			<g>
				<path style="fill:#47393D;" d="M380.913,353.722l-0.949-0.086c0.037-0.406,0.927-10.028,3.525-16.179l0.878,0.371
					C381.827,343.841,380.922,353.624,380.913,353.722z"/>
			</g>
		</g>
		<g>
			<g>
				<path style="fill:#47393D;" d="M472.339,353.729c-0.008-0.098-0.86-9.887-3.365-15.913l0.88-0.366
					c2.563,6.165,3.401,15.791,3.435,16.198L472.339,353.729z"/>
			</g>
		</g>
		<g>
			<g>
				<g>
					<g>
						<g>
							<path style="fill:#FFFFFF;" d="M373.14,234.644h-2.009v-22.311c0-6.84,5.859-12.405,13.061-12.405h23.499v1.909h-23.499
								c-6.094,0-11.051,4.709-11.051,10.497V234.644z"/>
						</g>
					</g>
				</g>
			</g>
			<g>
				<g>
					<g>
						<g>
							<path style="fill:#FFFFFF;" d="M407.69,302.845h-23.499c-7.202,0-13.061-5.565-13.061-12.405v-22.32h2.009v22.32
								c0,5.788,4.958,10.497,11.051,10.497h23.499V302.845z"/>
						</g>
					</g>
				</g>
			</g>
			<g>
				<g>
					<g>
						<g>
							<path style="fill:#FFFFFF;" d="M479.484,234.644h-2.009v-22.311c0-5.788-4.958-10.497-11.051-10.497h-23.489v-1.909h23.489
								c7.202,0,13.061,5.565,13.061,12.405V234.644z"/>
						</g>
					</g>
				</g>
			</g>
			<g>
				<g>
					<g>
						<g>
							<path style="fill:#FFFFFF;" d="M466.423,302.845h-23.489v-1.909h23.489c6.094,0,11.051-4.709,11.051-10.497v-22.32h2.009
								v22.32C479.484,297.28,473.625,302.845,466.423,302.845z"/>
						</g>
					</g>
				</g>
			</g>
		</g>
		<g>
			<g>
				<path style="fill:#47393D;" d="M522.746,354.211H340.351v-1h182.396c3.542,0,6.423-2.881,6.423-6.423v-98.014h1v98.014
					C530.169,350.881,526.839,354.211,522.746,354.211z"/>
			</g>
		</g>
		<g>
			<g>
				<rect x="400.095" y="360.211" style="fill:#47393D;" width="104.651" height="1"/>
			</g>
		</g>
		<g>
			<path style="fill:#47393D;" d="M643.879,167.036c0,0-1.87-7.534,4.174-6.4c0,0,4.346-3.294,7.633,0.346
				c3.695,4.093-1.534,9.525-5.155,10.345L643.879,167.036z"/>
		</g>
		<g>
			<path style="fill:#47393D;" d="M643.554,167.222c-0.026-0.047-2.622-4.707,0.525-7.128c1.977-1.521,3.817-0.349,4.516,0.482
				l-0.573,0.483c-0.065-0.076-1.59-1.829-3.485-0.371c-2.63,2.023-0.354,6.122-0.33,6.164L643.554,167.222z"/>
		</g>
		<g>
			<path style="fill:#47393D;" d="M651.779,171.898l-0.219-0.718c0.034-0.01,3.394-1.061,4.694-3.6
				c0.621-1.213,0.678-2.59,0.166-4.091l0.711-0.241c0.579,1.702,0.508,3.276-0.212,4.678
				C655.472,170.75,651.929,171.853,651.779,171.898z"/>
		</g>
		<g>
			<g>
				<path style="fill:#47393D;" d="M418.354,224.516c0,0-7.134-6.521-0.087-9.513c0,0,2.234-6.412,8.151-4.905
					c6.653,1.694,4.979,10.932,1.79,14.279L418.354,224.516z"/>
			</g>
			<g>
				<path style="fill:#47393D;" d="M418.185,224.851c-0.059-0.03-5.892-3.035-4.325-7.64c1.223-3.589,4.865-2.567,4.9-2.557
					l-0.21,0.72c-0.122-0.033-2.992-0.824-3.98,2.078c-1.357,3.987,3.899,6.702,3.953,6.729L418.185,224.851z"/>
			</g>
			<g>
				<path style="fill:#47393D;" d="M429.825,224.05l-0.579-0.477c0.028-0.034,2.811-3.468,2.404-7.037
					c-0.196-1.712-1.099-3.199-2.684-4.418l0.457-0.595c1.754,1.349,2.754,3.008,2.973,4.932
					C432.837,220.343,429.948,223.9,429.825,224.05z"/>
			</g>
		</g>
		<g>
			<g>
				<g>
					<rect x="124.846" y="557.199" style="fill:#47393D;" width="643.404" height="1.319"/>
				</g>
			</g>
		</g>
	</g>
</g>
</svg>
